<svg width="88" height="88" viewBox="0 0 88 88" fill="none" xmlns="http://www.w3.org/2000/svg">
<path d="M50.0627 78.7946C71.0055 78.7946 87.9831 61.817 87.9831 40.8742C87.9831 19.9314 71.0055 2.95386 50.0627 2.95386C29.1199 2.95386 12.1423 19.9314 12.1423 40.8742C12.1423 61.817 29.1199 78.7946 50.0627 78.7946Z" fill="#9278FE"/>
<path d="M1.42578 86.626H64.6265V1.44263H34.9496L1.42578 21.227V86.626Z" fill="#2DBF90"/>
<path d="M64.6265 87.9998H1.42576C0.60143 87.9998 0.0518188 87.4502 0.0518188 86.6259V21.227C0.0518188 20.6773 0.326537 20.2652 0.738702 19.9905L34.1252 0.20605C34.4 0.0686035 34.5374 0.0686035 34.8121 0.0686035H64.489C65.3133 0.0686035 65.863 0.618214 65.863 1.44254V86.6259C66.0004 87.4502 65.3133 87.9998 64.6265 87.9998ZM2.7997 85.252H63.2525V2.81648H35.2245L2.7997 22.0515V85.252Z" fill="#183651"/>
<path d="M6.92151 21.2271L34.9496 6.93823H59.1307V81.1303H6.92151V21.2271Z" fill="white"/>
<path d="M34.9496 1.44263L1.42578 21.227H34.9496V1.44263Z" fill="white"/>
<path d="M34.9496 22.6011H1.42575C0.738869 22.6011 0.326531 22.189 0.0518124 21.6394C-0.0856339 20.9525 0.189259 20.4029 0.738695 19.9907L34.1252 0.206283C34.5374 -0.0684354 35.087 -0.0684354 35.4992 0.206283C35.9113 0.481001 36.1861 0.893166 36.1861 1.44278V21.2274C36.3235 22.0517 35.6366 22.6011 34.9496 22.6011ZM6.50935 19.8534H33.5756V3.91576L6.50935 19.8534Z" fill="#183651"/>
<path d="M14.7528 78.3824L13.3788 74.9477L9.80664 76.1842L15.5773 65.605L20.5233 67.8033L14.7528 78.3824Z" fill="#2DBF90"/>
<path d="M22.4469 78.3824L23.9583 74.9477L27.5305 76.1842L21.76 65.605L16.8138 67.8033L22.4469 78.3824Z" fill="#2DBF90"/>
<path d="M18.6 71.9253C23.001 71.9253 26.5687 68.3576 26.5687 63.9565C26.5687 59.5555 23.001 55.9878 18.6 55.9878C14.199 55.9878 10.6312 59.5555 10.6312 63.9565C10.6312 68.3576 14.199 71.9253 18.6 71.9253Z" fill="#4FBF9F"/>
<path d="M18.5999 68.7649C15.9895 68.7649 13.7912 66.5666 13.7912 63.9562C13.7912 61.3457 15.9895 59.1475 18.5999 59.1475C21.2103 59.1475 23.4086 61.3457 23.4086 63.9562C23.4086 66.5666 21.3478 68.7649 18.5999 68.7649Z" fill="white"/>
<path d="M19.5617 32.9053H16.8138V35.6532H19.5617V32.9053Z" fill="#183651"/>
<path d="M26.5686 32.9053H23.8207V35.6532H26.5686V32.9053Z" fill="#183651"/>
<path d="M33.7131 32.9053H30.9652V35.6532H33.7131V32.9053Z" fill="#183651"/>
<path d="M42.6436 41.2864H16.8138V44.0342H42.6436V41.2864Z" fill="#183651"/>
<path d="M42.6436 49.6672H16.8138V52.4151H42.6436V49.6672Z" fill="#183651"/>
<path d="M42.6436 58.1855H30.4156V60.9334H42.6436V58.1855Z" fill="#183651"/>
</svg>
