<svg width="88" height="88" viewBox="0 0 88 88" fill="none" xmlns="http://www.w3.org/2000/svg">
<g clip-path="url(#clip0_42_1700)">
<path d="M44.0001 88.0002C68.3007 88.0002 88.0002 68.3007 88.0002 44.0001C88.0002 19.6995 68.3007 0 44.0001 0C19.6995 0 0 19.6995 0 44.0001C0 68.3007 19.6995 88.0002 44.0001 88.0002Z" fill="#9278FE"/>
<path d="M16.9125 86.625H71.3625C74.3875 86.625 76.8626 84.1501 76.8626 81.1249V6.87506C76.8626 3.85009 74.3877 1.375 71.3625 1.375H34.7875L11.4125 18.0125V81.1251C11.4125 84.1501 13.8876 86.625 16.9125 86.625Z" fill="white"/>
<path d="M71.2251 88H16.9125C13.0625 88 10.0374 84.975 10.0374 81.1249V18.0126C10.0374 17.6001 10.3123 17.1876 10.5875 16.9125L34.1001 0.274933C34.375 0.137554 34.6499 0 34.925 0H71.3625C75.2124 0 78.2375 3.02496 78.2375 6.87507V81.1251C78.1 84.975 75.075 88 71.2251 88ZM12.7874 18.7V81.1249C12.7874 83.4625 14.5749 85.25 16.9125 85.25H71.3625C73.7 85.25 75.4875 83.4625 75.4875 81.1249V6.87507C75.4875 4.53753 73.7 2.75003 71.3625 2.75003H35.3375L12.7874 18.7Z" fill="#183651"/>
<path d="M71.2251 6.875V81.1249H16.9125V18.0125L34.7875 6.875H71.2251Z" fill="white"/>
<path d="M32.5335 82.5386L85.3416 66.2219L76.3715 37.1907L23.5635 53.5074L32.5335 82.5386Z" fill="#2DBF90"/>
<path d="M32.4499 83.875C32.1749 83.875 32.0374 83.875 31.7624 83.7374C31.4875 83.5999 31.2124 83.3249 31.075 82.9124L22.1375 53.9C21.8626 53.2125 22.2751 52.3874 23.1 52.1125L75.8999 35.75C76.3124 35.6125 76.5873 35.6125 77 35.8876C77.4126 36.1627 77.55 36.3001 77.6874 36.7125L86.6249 65.725C86.8998 66.4125 86.4874 67.2376 85.6624 67.5125L32.8623 83.875C32.725 83.875 32.5874 83.875 32.4499 83.875ZM25.2999 54.45L33.4124 80.85L83.4624 65.3126L75.3499 38.9125L25.2999 54.45Z" fill="#183651"/>
<path d="M34.9251 71.7749L31.625 60.9123C33.6874 60.2249 34.9251 58.0247 34.2375 55.9623L68.8874 45.2373C69.5748 47.2997 71.775 48.5374 73.8374 47.8498L77.1375 58.7123C75.075 59.3998 73.8374 61.5999 74.525 63.6624L39.8751 74.3874C39.325 72.3249 36.9875 71.225 34.9251 71.7749Z" fill="white"/>
<path d="M63.2299 57.0804C61.2348 50.6234 55.677 46.6066 50.8161 48.1085C45.9552 49.6105 43.632 56.0624 45.6271 62.5193C47.6222 68.9762 53.18 72.993 58.0409 71.4911C62.9017 69.9892 65.2249 63.5373 63.2299 57.0804Z" fill="#2DBF90"/>
<path d="M70.6751 57.0624C71.8901 57.0624 72.875 56.0775 72.875 54.8625C72.875 53.6474 71.8901 52.6625 70.6751 52.6625C69.46 52.6625 68.4751 53.6474 68.4751 54.8625C68.4751 56.0775 69.46 57.0624 70.6751 57.0624Z" fill="#2DBF90"/>
<path d="M38.0876 67.1001C39.3026 67.1001 40.2876 66.1151 40.2876 64.9001C40.2876 63.685 39.3026 62.7001 38.0876 62.7001C36.8726 62.7001 35.8876 63.685 35.8876 64.9001C35.8876 66.1151 36.8726 67.1001 38.0876 67.1001Z" fill="#2DBF90"/>
<path d="M55.4125 64.2124L55.1376 63.525C54.1751 63.6626 53.2125 63.6625 52.25 63.2501L52.6625 62.15C53.3499 62.4249 54.0375 62.5625 54.7249 62.4249L54.3124 60.3625C53.4875 60.3625 52.7999 60.3625 52.3874 60.2249C51.9749 60.0874 51.5624 59.6749 51.4249 59.1249C51.2873 58.5748 51.2873 58.0248 51.5624 57.4749C51.8373 56.9249 52.3874 56.6499 52.9374 56.3748L52.7999 55.6872L53.4873 55.5497L53.6248 56.0997C54.4498 55.9622 55.1374 55.9622 55.9624 56.2373L55.6875 57.3374C55.1374 57.1998 54.5874 57.0624 54.0375 57.1998L54.5875 59.1249C55.4125 59.1249 56.1001 59.1249 56.5126 59.3998C56.9251 59.5373 57.3376 59.9498 57.4751 60.6372C57.6127 61.1873 57.6127 61.7373 57.3376 62.2872C57.0626 62.8372 56.5126 63.1122 55.825 63.3873L56.0999 64.0747L55.4125 64.2124ZM52.6625 57.75C52.5249 57.8876 52.5249 58.1625 52.5249 58.4374C52.6625 58.7124 52.6625 58.8499 52.9374 58.8499C53.075 58.9875 53.3499 58.9875 53.7624 58.9875L53.2124 57.2C53.075 57.4749 52.8 57.6125 52.6625 57.75ZM56.2375 61.5999C56.375 61.325 56.375 61.1875 56.375 60.9125C56.2375 60.6376 56.2375 60.5 55.9626 60.3625C55.825 60.2249 55.4125 60.2249 55 60.2249L55.5501 62.0124C55.825 62.0124 56.0999 61.875 56.2375 61.5999Z" fill="white"/>
<path d="M34.7875 1.375L11.4125 18.0125H29.425C32.45 18.0125 34.9251 15.5376 34.9251 12.5125L34.7875 1.375Z" fill="white"/>
<path d="M29.2875 19.3875H11.4125C10.8625 19.3875 10.3124 18.975 10.0375 18.425C9.76255 17.8749 10.0375 17.1875 10.5875 16.9124L34.1001 0.274864C34.5126 -6.94452e-05 35.0627 -6.94348e-05 35.4751 0.137484C35.8876 0.412417 36.1626 0.824904 36.1626 1.37494V12.5124C36.1626 16.3624 33.1376 19.3875 29.2875 19.3875ZM15.6751 16.6375H29.2877C31.6252 16.6375 33.4127 14.85 33.4127 12.5124V3.98742L15.6751 16.6375Z" fill="#183651"/>
<path d="M46.3375 15.8125H43.5874V18.5625H46.3375V15.8125Z" fill="#183651"/>
<path d="M54.5876 15.8125H51.8375V18.5625H54.5876V15.8125Z" fill="#183651"/>
<path d="M62.9752 15.8125H60.2251V18.5625H62.9752V15.8125Z" fill="#183651"/>
<path d="M62.975 22.825H23.0999V25.575H62.975V22.825Z" fill="#183651"/>
<path d="M62.975 30.2499H23.0999V32.9999H62.975V30.2499Z" fill="#183651"/>
<path d="M43.0374 37.8124H23.0999V40.5624H43.0374V37.8124Z" fill="#183651"/>
</g>
<defs>
<clipPath id="clip0_42_1700">
<rect width="88" height="88" fill="white"/>
</clipPath>
</defs>
</svg>
