<svg width="683" height="733" viewBox="0 0 683 733" fill="none" xmlns="http://www.w3.org/2000/svg">
<g clip-path="url(#clip0_36_1336)">
<path d="M172.076 0H8.23914V237.57H172.076V0Z" fill="#E0E0E0"/>
<path d="M163.869 0H0.0326538V237.57H163.869V0Z" fill="#F5F5F5"/>
<path d="M143.508 25.7402H20.3776V211.847H143.508V25.7402Z" fill="white"/>
<path d="M143.508 211.847C143.508 211.847 143.508 211.536 143.508 210.933C143.508 210.329 143.508 209.447 143.508 208.305C143.508 205.954 143.508 202.527 143.508 198.087C143.508 189.175 143.508 176.166 143.394 159.746C143.394 126.938 143.279 80.4687 143.198 25.7402L143.606 26.1482L20.4102 26.1809L20.8507 25.7402C20.8507 95.9259 20.8507 160.676 20.7529 211.814L20.4102 211.455L110.013 211.651H134.779H141.305C142.79 211.651 143.557 211.651 143.557 211.651C143.557 211.651 142.839 211.651 141.387 211.651H134.959H110.274L20.3939 212.255H19.986V211.896C19.986 160.725 19.986 96.0075 19.8882 25.8218V25.3647H20.3613H143.459H143.981V25.7728C143.981 80.5993 143.834 127.167 143.785 160.056C143.785 176.378 143.785 189.436 143.671 198.299C143.671 202.706 143.671 206.101 143.671 208.419C143.671 209.545 143.671 210.41 143.671 211.014C143.671 211.618 143.508 211.847 143.508 211.847Z" fill="#E0E0E0"/>
<path d="M164.326 0.0654297C163.488 1.569 162.511 2.98992 161.405 4.30922C159.497 6.85549 156.805 10.3321 153.721 14.1026C150.638 17.873 147.75 21.1701 145.564 23.5205C144.479 24.8495 143.278 26.0786 141.974 27.193C142.892 25.7445 143.935 24.3791 145.09 23.1125C147.293 20.4356 149.985 17.1548 152.987 13.5313L160.867 3.95013C161.915 2.56524 163.072 1.26621 164.326 0.0654297V0.0654297Z" fill="#E0E0E0"/>
<path d="M144.144 211.243C150.258 220.985 157.461 229.998 165.615 238.109Z" fill="white"/>
<path d="M165.615 238.109C164.247 237.114 162.989 235.976 161.862 234.714C158.99 231.808 156.267 228.757 153.705 225.574C151.157 222.392 148.777 219.08 146.575 215.65C145.593 214.271 144.756 212.794 144.079 211.243C145.174 212.523 146.183 213.875 147.097 215.291C148.892 217.837 151.437 221.297 154.39 225.084C157.343 228.871 160.182 232.021 162.254 234.339C163.462 235.514 164.585 236.774 165.615 238.109Z" fill="#E0E0E0"/>
<path d="M0.0163269 237.391L21.4707 210.9Z" fill="white"/>
<path d="M21.4707 210.9C18.253 215.595 14.7837 220.112 11.078 224.431C7.61073 228.934 3.91883 233.26 0.0163269 237.391C3.23133 232.699 6.69509 228.182 10.3927 223.86C13.8567 219.349 17.5544 215.023 21.4707 210.9V210.9Z" fill="#E0E0E0"/>
<path d="M0.0326538 0.0654297C3.72585 4.02452 7.20068 8.18197 10.4417 12.5193C13.9472 16.6846 17.2154 21.0441 20.2308 25.5771C16.5353 21.6144 13.0604 17.4514 9.82173 13.1069C6.31445 8.94875 3.04615 4.59456 0.0326538 0.0654297V0.0654297Z" fill="#E0E0E0"/>
<path d="M105.151 63.5264H63.9227V180.639H105.151V63.5264Z" fill="#E0E0E0"/>
<path d="M592.206 511.932H299.856V646.819H592.206V511.932Z" fill="#F5F5F5"/>
<path d="M585.256 640.469H306.545V519.113H585.256V640.469ZM308.356 638.658H583.429V520.86H308.356V638.658Z" fill="#E0E0E0"/>
<path d="M663.634 511.932H592.206V646.819H663.634V511.932Z" fill="#E0E0E0"/>
<path d="M307.459 556.655H584.343C584.427 556.637 584.502 556.59 584.556 556.524C584.61 556.457 584.64 556.373 584.64 556.287C584.64 556.201 584.61 556.118 584.556 556.051C584.502 555.984 584.427 555.938 584.343 555.92H307.459C307.374 555.938 307.299 555.984 307.245 556.051C307.191 556.118 307.161 556.201 307.161 556.287C307.161 556.373 307.191 556.457 307.245 556.524C307.299 556.59 307.374 556.637 307.459 556.655Z" fill="#E0E0E0"/>
<path d="M446.806 556.246C447.573 544.045 447.606 531.808 446.904 519.603C446.904 519.503 446.864 519.408 446.794 519.337C446.724 519.267 446.628 519.228 446.529 519.228C446.429 519.228 446.334 519.267 446.263 519.337C446.193 519.408 446.153 519.503 446.153 519.603C445.444 531.808 445.476 544.045 446.251 556.246C446.251 556.32 446.281 556.391 446.333 556.443C446.385 556.495 446.455 556.524 446.529 556.524C446.602 556.524 446.673 556.495 446.725 556.443C446.777 556.391 446.806 556.32 446.806 556.246Z" fill="#E0E0E0"/>
<path d="M521.333 537.933C521.333 538.682 521.111 539.415 520.694 540.038C520.278 540.661 519.686 541.147 518.993 541.433C518.301 541.719 517.539 541.793 516.804 541.646C516.069 541.498 515.395 541.136 514.866 540.605C514.337 540.073 513.978 539.397 513.834 538.662C513.69 537.926 513.767 537.164 514.056 536.472C514.345 535.781 514.833 535.19 515.457 534.776C516.082 534.362 516.815 534.143 517.565 534.146C518.566 534.15 519.524 534.551 520.231 535.261C520.937 535.971 521.334 536.931 521.333 537.933V537.933Z" fill="#E0E0E0"/>
<path d="M376.015 537.933C376.011 538.678 375.788 539.405 375.372 540.023C374.955 540.641 374.366 541.122 373.677 541.405C372.988 541.687 372.231 541.76 371.501 541.612C370.771 541.465 370.101 541.105 369.575 540.577C369.05 540.049 368.692 539.377 368.548 538.646C368.404 537.915 368.48 537.158 368.766 536.47C369.051 535.782 369.534 535.194 370.154 534.78C370.773 534.367 371.501 534.146 372.246 534.146C372.742 534.146 373.234 534.244 373.692 534.435C374.15 534.625 374.566 534.904 374.917 535.256C375.267 535.608 375.544 536.026 375.732 536.485C375.921 536.944 376.017 537.436 376.015 537.933V537.933Z" fill="#E0E0E0"/>
<path d="M449.677 579.75C449.681 580.5 449.461 581.233 449.047 581.858C448.634 582.483 448.043 582.971 447.352 583.26C446.661 583.549 445.899 583.627 445.164 583.482C444.429 583.338 443.753 582.979 443.222 582.45C442.691 581.921 442.329 581.246 442.181 580.511C442.034 579.776 442.108 579.014 442.394 578.321C442.68 577.628 443.165 577.036 443.788 576.619C444.411 576.202 445.143 575.98 445.892 575.98C446.389 575.977 446.88 576.073 447.34 576.262C447.799 576.45 448.216 576.728 448.568 577.078C448.92 577.428 449.199 577.845 449.389 578.303C449.579 578.762 449.677 579.253 449.677 579.75V579.75Z" fill="#E0E0E0"/>
<path d="M334.803 646.818L319.76 731.515H328.228L355.98 646.818H334.803Z" fill="#E0E0E0"/>
<path d="M571.519 646.818L584.114 731.661H575.646L550.358 646.818H571.519Z" fill="#E0E0E0"/>
<path d="M628.034 646.818L642.31 731.661H633.843L606.874 646.818H628.034Z" fill="#E0E0E0"/>
<path d="M449.416 617.928C449.416 618.674 449.195 619.403 448.781 620.023C448.367 620.643 447.778 621.126 447.09 621.412C446.401 621.697 445.643 621.772 444.912 621.626C444.181 621.481 443.51 621.122 442.983 620.594C442.456 620.067 442.097 619.395 441.951 618.664C441.806 617.932 441.88 617.174 442.166 616.485C442.451 615.796 442.934 615.207 443.554 614.793C444.174 614.379 444.902 614.158 445.648 614.158C446.143 614.156 446.634 614.252 447.092 614.44C447.551 614.629 447.967 614.907 448.317 615.257C448.668 615.608 448.945 616.024 449.134 616.483C449.322 616.941 449.418 617.432 449.416 617.928V617.928Z" fill="#E0E0E0"/>
<path d="M307.459 598.39H584.343C584.427 598.373 584.502 598.326 584.556 598.259C584.61 598.193 584.64 598.109 584.64 598.023C584.64 597.937 584.61 597.854 584.556 597.787C584.502 597.72 584.427 597.674 584.343 597.656H307.459C307.374 597.674 307.299 597.72 307.245 597.787C307.191 597.854 307.161 597.937 307.161 598.023C307.161 598.109 307.191 598.193 307.245 598.259C307.299 598.326 307.374 598.373 307.459 598.39V598.39Z" fill="#E0E0E0"/>
<path d="M478.694 689.834L478.606 673.104L396.428 673.534L396.516 690.264L478.694 689.834Z" fill="#E0E0E0"/>
<path d="M488.551 732.036L488.415 706.035L396.823 706.514L396.959 732.516L488.551 732.036Z" fill="#F5F5F5"/>
<path d="M470.952 731.907C470.343 723.25 470.343 714.562 470.952 705.905C471.54 714.562 471.54 723.249 470.952 731.907V731.907Z" fill="#E0E0E0"/>
<path d="M474.786 731.907C474.199 723.249 474.199 714.562 474.786 705.905C475.396 714.562 475.396 723.25 474.786 731.907V731.907Z" fill="#E0E0E0"/>
<path d="M410.782 731.907C410.195 723.249 410.195 714.562 410.782 705.905C411.369 714.562 411.369 723.249 410.782 731.907V731.907Z" fill="#E0E0E0"/>
<path d="M414.633 731.907C414.045 723.249 414.045 714.562 414.633 705.905C415.22 714.562 415.22 723.249 414.633 731.907V731.907Z" fill="#E0E0E0"/>
<path d="M422.97 719.322C422.97 719.077 432.22 718.881 443.608 718.881C454.996 718.881 464.247 719.077 464.247 719.322C464.247 719.567 455.012 719.779 443.608 719.779C432.204 719.779 422.97 719.583 422.97 719.322Z" fill="#E0E0E0"/>
<path d="M522.961 705.898L522.874 689.168L409.86 689.76L409.948 706.49L522.961 705.898Z" fill="#EBEBEB"/>
<path d="M506.797 703.865C505.723 703.878 504.669 703.571 503.77 702.984C502.871 702.396 502.166 701.554 501.746 700.565C501.326 699.576 501.209 698.485 501.411 697.429C501.613 696.374 502.123 695.402 502.878 694.638C503.633 693.873 504.598 693.351 505.651 693.136C506.703 692.922 507.795 693.025 508.789 693.433C509.783 693.842 510.632 694.536 511.231 695.429C511.829 696.321 512.148 697.371 512.148 698.446C512.152 699.153 512.017 699.855 511.751 700.51C511.484 701.165 511.091 701.761 510.594 702.264C510.097 702.767 509.506 703.168 508.855 703.442C508.203 703.717 507.504 703.861 506.797 703.865V703.865Z" fill="#E0E0E0"/>
<path d="M492.113 700.127V696.781H416.46V700.127H492.113Z" fill="#E0E0E0"/>
<path d="M677.583 22.2798H242.818V457.235H677.583V22.2798Z" fill="#FAFAFA"/>
<path d="M677.583 457.235C677.583 454.102 677.436 283.093 677.224 22.28L677.583 22.6554H242.867L243.291 22.231C243.291 181.52 243.291 330.722 243.291 457.187L242.916 456.827L677.681 457.187L242.916 457.562H242.557V457.187C242.557 330.787 242.557 181.52 242.557 22.231V21.8066H243.03H677.746H678.122V22.1657C677.73 283.093 677.6 454.102 677.583 457.235Z" fill="#263238"/>
<path d="M371.838 77.5798H376.602V86.7366C373.945 88.6285 370.759 89.6338 367.498 89.6093C360.417 89.6093 355.197 84.7127 355.197 77.9389C355.197 71.1652 360.417 66.2685 367.596 66.2685C369.364 66.1973 371.126 66.5174 372.756 67.2058C374.386 67.8942 375.844 68.9341 377.026 70.2512L373.763 73.3524C373.03 72.5322 372.129 71.8801 371.121 71.4406C370.113 71.0012 369.022 70.7847 367.922 70.8061C366.01 70.8061 364.176 71.5662 362.823 72.9192C361.471 74.2721 360.711 76.1072 360.711 78.0205C360.711 79.9339 361.471 81.769 362.823 83.1219C364.176 84.4749 366.01 85.235 367.922 85.235C369.336 85.2624 370.734 84.9311 371.985 84.272L371.838 77.5798Z" fill="#9278FE"/>
<path d="M397.958 81.9705H384.906C385.177 83.0368 385.818 83.9721 386.715 84.609C387.611 85.2459 388.705 85.543 389.801 85.4472C390.6 85.4852 391.398 85.3601 392.147 85.0795C392.896 84.7989 393.58 84.3686 394.157 83.8149L396.865 86.6713C395.952 87.6344 394.839 88.3851 393.604 88.8702C392.37 89.3554 391.043 89.5631 389.719 89.4788C383.715 89.4788 379.816 85.7083 379.816 80.5505C379.801 79.3461 380.033 78.1514 380.497 77.0398C380.961 75.9283 381.647 74.9235 382.514 74.0872C383.38 73.2509 384.408 72.6009 385.535 72.1769C386.662 71.753 387.864 71.5642 389.067 71.6222C390.265 71.5591 391.464 71.7483 392.585 72.1775C393.706 72.6067 394.724 73.2664 395.575 74.114C396.425 74.9616 397.088 75.9782 397.521 77.0981C397.954 78.218 398.148 79.4164 398.089 80.6158C398.056 81.0075 397.991 81.5461 397.958 81.9705ZM384.776 79.0325H393.325C393.149 78.0265 392.623 77.1148 391.841 76.4579C391.06 75.801 390.071 75.4409 389.05 75.4409C388.029 75.4409 387.041 75.801 386.259 76.4579C385.477 77.1148 384.952 78.0265 384.776 79.0325Z" fill="#9278FE"/>
<path d="M412.577 88.3854C411.352 89.1511 409.925 89.5321 408.482 89.479C404.403 89.479 401.956 87.3734 401.956 83.2602V76.1274H399.296V72.259H401.956V68.0479H406.981V72.259H411.304V76.1274H406.981V83.1949C406.941 83.4946 406.968 83.7994 407.062 84.087C407.155 84.3746 407.311 84.6376 407.519 84.8568C407.727 85.076 407.982 85.2457 408.264 85.3536C408.547 85.4614 408.849 85.5046 409.151 85.48C409.879 85.4944 410.591 85.2646 411.174 84.8271L412.577 88.3854Z" fill="#9278FE"/>
<path d="M423.916 66.6601C423.923 66.2669 424.011 65.8794 424.175 65.5216C424.338 65.1638 424.573 64.8434 424.865 64.5802C425.157 64.317 425.5 64.1166 425.873 63.9915C426.246 63.8664 426.64 63.8191 427.032 63.8527C427.418 63.8098 427.809 63.8471 428.181 63.9625C428.552 64.0779 428.896 64.2687 429.19 64.5231C429.484 64.7775 429.722 65.0899 429.89 65.4408C430.058 65.7917 430.151 66.1735 430.165 66.5622C430.121 67.354 429.779 68.0998 429.208 68.6495C428.637 69.1991 427.878 69.5116 427.086 69.524C426.293 69.5365 425.525 69.2479 424.937 68.7164C424.349 68.185 423.984 67.4502 423.916 66.6601V66.6601ZM424.601 71.8833H429.496V89.2175H424.601V71.8833Z" fill="#9278FE"/>
<path d="M451.929 79.2937V89.2176H446.904V80.0445C446.904 77.2534 445.615 75.964 443.396 75.964C441.177 75.964 439.252 77.433 439.252 80.6321V89.2013H434.227V71.8834H439.024V73.9073C439.764 73.1458 440.657 72.5488 441.644 72.1551C442.63 71.7614 443.689 71.5799 444.75 71.6222C448.845 71.6222 451.929 74.0053 451.929 79.2937Z" fill="#9278FE"/>
<path d="M476.809 88.3854C475.589 89.1489 474.169 89.5298 472.731 89.479C468.636 89.479 466.205 87.3734 466.205 83.2602V76.1274H463.529V72.259H466.205V68.0479H471.23V72.259H475.537V76.1274H471.23V83.1949C471.187 83.4937 471.212 83.7982 471.303 84.0859C471.394 84.3736 471.549 84.637 471.756 84.8566C471.963 85.0762 472.217 85.2463 472.499 85.3542C472.78 85.4621 473.083 85.5052 473.383 85.48C474.112 85.4944 474.824 85.2646 475.406 84.8271L476.809 88.3854Z" fill="#9278FE"/>
<path d="M477.756 80.5504C477.756 75.3272 481.786 71.6221 487.3 71.6221C492.815 71.6221 496.795 75.3272 496.795 80.5504C496.795 85.7735 492.815 89.4786 487.3 89.4786C481.786 89.4786 477.756 85.7735 477.756 80.5504ZM491.705 80.5504C491.635 79.6896 491.316 78.868 490.787 78.186C490.257 77.504 489.54 76.9913 488.724 76.7107C487.908 76.4301 487.027 76.3938 486.191 76.6062C485.354 76.8186 484.597 77.2704 484.013 77.9065C483.43 78.5425 483.044 79.3351 482.903 80.1871C482.763 81.0392 482.874 81.9137 483.223 82.7036C483.572 83.4935 484.143 84.1645 484.867 84.6343C485.591 85.1042 486.437 85.3526 487.3 85.3491C487.915 85.3592 488.526 85.2388 489.091 84.9958C489.656 84.7528 490.164 84.3928 490.58 83.9394C490.996 83.4861 491.311 82.9497 491.505 82.3655C491.699 81.7814 491.767 81.1627 491.705 80.5504V80.5504Z" fill="#9278FE"/>
<path d="M517.597 71.8833V89.2175H512.817V87.1609C512.141 87.9098 511.311 88.5044 510.385 88.9044C509.459 89.3043 508.458 89.5001 507.449 89.4787C503.093 89.4787 500.026 87.0304 500.026 81.6767V71.8833H505.051V80.9422C505.051 83.8312 506.34 85.1207 508.575 85.1207C510.81 85.1207 512.572 83.6353 512.572 80.4525V71.8833H517.597Z" fill="#9278FE"/>
<path d="M520.991 80.5506C520.991 75.3275 525.004 71.6223 530.649 71.6223C532.236 71.4985 533.822 71.852 535.206 72.6373C536.59 73.4225 537.708 74.6038 538.415 76.0294L534.516 78.1349C534.157 77.4168 533.605 76.8132 532.922 76.3921C532.239 75.9711 531.452 75.7493 530.649 75.7519C529.377 75.7519 528.157 76.2575 527.258 77.1574C526.358 78.0573 525.853 79.2779 525.853 80.5506C525.853 81.8233 526.358 83.0439 527.258 83.9438C528.157 84.8438 529.377 85.3494 530.649 85.3494C531.459 85.3659 532.256 85.1503 532.947 84.728C533.638 84.3057 534.194 83.6944 534.549 82.9663L538.448 85.0882C537.729 86.5105 536.604 87.6871 535.215 88.4687C533.827 89.2504 532.238 89.602 530.649 89.4789C525.004 89.4789 520.991 85.7737 520.991 80.5506Z" fill="#9278FE"/>
<path d="M558.891 79.2937V89.2176H553.866V80.0445C553.866 77.2534 552.577 75.964 550.358 75.964C548.139 75.964 546.198 77.433 546.198 80.6321V89.2013H541.173V65.3545H546.198V73.6788C546.935 72.9881 547.802 72.4507 548.749 72.0976C549.695 71.7446 550.703 71.583 551.712 71.6222C555.807 71.6222 558.891 74.0053 558.891 79.2937Z" fill="#9278FE"/>
<path d="M575.598 106.829C575.598 107.058 522.41 107.254 456.823 107.254C391.237 107.254 338.066 107.058 338.066 106.829C338.066 106.601 391.22 106.405 456.823 106.405C522.427 106.405 575.598 106.601 575.598 106.829Z" fill="#263238"/>
<path d="M613.971 181.781C613.971 181.781 613.971 181.226 613.971 180.149C613.971 179.072 613.971 177.505 613.971 175.448C613.971 171.286 613.971 165.165 613.971 157.151L614.117 157.314L299.464 157.575L299.888 157.151V181.765L299.464 181.341L522.704 181.52L589.596 181.651H607.738H612.47H614.101H612.47H607.804H589.759L522.867 181.781L299.35 181.961H298.926V156.759H299.366L614.02 157.02H614.183V157.184C614.183 165.231 614.183 171.4 614.101 175.563C614.101 177.619 614.101 179.17 614.101 180.247C614.101 181.324 613.971 181.781 613.971 181.781Z" fill="#263238"/>
<path d="M306.692 139.816V146.966H305.337L301.781 142.624V146.966H300.149V139.816H301.503L305.06 144.158V139.816H306.692Z" fill="#263238"/>
<path d="M313.136 143.832V146.966H311.635V146.28C311.454 146.539 311.208 146.747 310.922 146.881C310.635 147.016 310.319 147.073 310.004 147.047C308.715 147.047 307.948 146.329 307.948 145.415C307.948 144.501 308.633 143.783 310.314 143.783H311.57C311.57 143.097 311.162 142.705 310.314 142.705C309.729 142.69 309.155 142.868 308.682 143.211L308.111 142.102C308.815 141.648 309.639 141.415 310.477 141.432C312.157 141.383 313.136 142.167 313.136 143.832ZM311.505 145.219V144.664H310.395C309.661 144.664 309.416 144.942 309.416 145.301C309.416 145.66 309.759 145.97 310.314 145.97C310.572 146.001 310.834 145.943 311.056 145.807C311.278 145.671 311.447 145.464 311.537 145.219H311.505Z" fill="#263238"/>
<path d="M323.839 143.816V146.966H322.207V144.061C322.207 143.179 321.799 142.771 321.163 142.771C320.527 142.771 319.956 143.228 319.956 144.207V146.966H318.324V144.061C318.324 143.179 317.949 142.771 317.28 142.771C316.611 142.771 316.073 143.228 316.073 144.207V146.966H314.441V141.465H315.959V142.069C316.178 141.831 316.446 141.644 316.745 141.52C317.043 141.396 317.365 141.338 317.688 141.351C318.04 141.33 318.391 141.402 318.706 141.559C319.021 141.717 319.289 141.955 319.483 142.249C319.726 141.959 320.031 141.728 320.375 141.572C320.72 141.417 321.095 141.341 321.473 141.351C321.803 141.308 322.138 141.343 322.451 141.453C322.765 141.563 323.048 141.745 323.279 141.985C323.509 142.225 323.679 142.516 323.777 142.834C323.874 143.152 323.895 143.488 323.839 143.816V143.816Z" fill="#263238"/>
<path d="M330.675 144.664H326.531C326.616 145.019 326.831 145.329 327.133 145.534C327.434 145.739 327.801 145.825 328.162 145.774C328.416 145.785 328.668 145.742 328.904 145.649C329.14 145.556 329.354 145.416 329.533 145.236L330.381 146.15C329.943 146.542 329.407 146.808 328.83 146.92C328.253 147.032 327.656 146.987 327.103 146.788C326.55 146.589 326.06 146.244 325.687 145.79C325.313 145.336 325.069 144.789 324.981 144.207C324.978 143.826 325.053 143.448 325.201 143.097C325.35 142.746 325.568 142.428 325.842 142.164C326.117 141.9 326.443 141.694 326.8 141.56C327.157 141.426 327.537 141.366 327.918 141.384C328.298 141.362 328.679 141.422 329.035 141.558C329.391 141.694 329.714 141.903 329.984 142.173C330.253 142.443 330.463 142.766 330.599 143.122C330.735 143.478 330.794 143.859 330.773 144.24C330.748 144.383 330.715 144.525 330.675 144.664V144.664ZM326.498 143.734H329.207C329.156 143.411 328.992 143.116 328.744 142.904C328.495 142.691 328.179 142.574 327.852 142.574C327.525 142.574 327.209 142.691 326.961 142.904C326.713 143.116 326.549 143.411 326.498 143.734V143.734Z" fill="#263238"/>
<path d="M613.971 243.267C613.971 243.267 613.971 242.712 613.971 241.635C613.971 240.558 613.971 238.991 613.971 236.934C613.971 232.772 613.971 226.651 613.971 218.637L614.117 218.8L299.464 219.061L299.888 218.637V243.267L299.464 242.843L522.704 243.023L589.596 243.153H607.738H612.47H614.101H612.47H607.804H589.759L522.867 243.284L299.35 243.463H298.926V218H299.366L614.02 218.278H614.183V218.425C614.183 226.472 614.183 232.642 614.101 236.804C614.101 238.86 614.101 240.411 614.101 241.488C614.101 242.566 613.971 243.267 613.971 243.267Z" fill="#263238"/>
<path d="M613.971 366.68C613.971 366.68 613.971 366.108 613.971 365.047C613.971 363.986 613.971 362.289 613.971 360.151C613.971 355.809 613.971 349.427 613.971 341.152C613.971 324.584 613.889 300.346 613.824 270.003L614.085 270.28L299.431 270.427L299.856 270.003C299.856 303.496 299.856 336.043 299.856 366.745L299.448 366.337L524.433 366.516L590.281 366.647H607.967H612.551H614.183H612.665H608.13H590.542L524.792 366.761L299.513 366.941H299.089V269.513H299.529L614.183 269.676H614.46V269.938C614.46 300.428 614.346 324.633 614.313 341.25C614.313 349.509 614.313 355.94 614.313 360.183C614.313 362.322 614.313 363.937 614.313 365.08C614.313 366.223 613.971 366.68 613.971 366.68Z" fill="#263238"/>
<path d="M305.68 207.064V208.403H300.149V201.253H305.501V202.576H301.732V204.208H304.995V205.497H301.732V207.129L305.68 207.064Z" fill="#263238"/>
<path d="M316.154 205.252V208.403H314.523V205.497C314.523 204.616 314.131 204.208 313.495 204.208C312.859 204.208 312.271 204.665 312.271 205.644V208.403H310.64V205.497C310.64 204.616 310.248 204.208 309.596 204.208C308.943 204.208 308.388 204.665 308.388 205.644V208.403H306.757V202.902H308.291V203.539C308.506 203.3 308.771 203.113 309.067 202.988C309.363 202.864 309.683 202.807 310.004 202.82C310.357 202.801 310.71 202.874 311.027 203.031C311.344 203.189 311.616 203.425 311.815 203.718C312.055 203.43 312.357 203.199 312.699 203.044C313.041 202.888 313.413 202.812 313.789 202.82C314.114 202.782 314.445 202.819 314.754 202.929C315.063 203.038 315.343 203.218 315.571 203.453C315.8 203.688 315.972 203.972 316.073 204.285C316.174 204.597 316.202 204.928 316.154 205.252V205.252Z" fill="#263238"/>
<path d="M322.436 205.269V208.403H320.951V207.717C320.769 207.975 320.522 208.181 320.236 208.316C319.95 208.45 319.635 208.508 319.32 208.484C318.031 208.484 317.264 207.766 317.264 206.852C317.264 205.938 317.949 205.22 319.63 205.22H320.886C320.886 204.534 320.478 204.142 319.63 204.142C319.045 204.127 318.471 204.305 317.998 204.648L317.427 203.539C318.132 203.087 318.955 202.854 319.793 202.869C321.473 202.82 322.436 203.604 322.436 205.269ZM320.804 206.656V206.101H319.727C318.977 206.101 318.732 206.379 318.732 206.738C318.732 207.097 319.075 207.407 319.646 207.407C319.899 207.43 320.153 207.369 320.368 207.233C320.584 207.098 320.748 206.895 320.837 206.656H320.804Z" fill="#263238"/>
<path d="M323.676 201.254C323.677 201.128 323.705 201.004 323.757 200.889C323.809 200.774 323.884 200.672 323.977 200.587C324.071 200.503 324.181 200.439 324.3 200.399C324.419 200.359 324.546 200.345 324.671 200.356C324.794 200.345 324.917 200.358 325.034 200.396C325.152 200.434 325.26 200.495 325.353 200.576C325.446 200.657 325.521 200.756 325.575 200.866C325.629 200.977 325.66 201.098 325.666 201.221C325.666 201.485 325.561 201.738 325.375 201.925C325.188 202.112 324.935 202.217 324.671 202.217C324.407 202.217 324.154 202.112 323.967 201.925C323.781 201.738 323.676 201.485 323.676 201.221V201.254ZM323.871 202.886H325.503V208.386H323.871V202.886Z" fill="#263238"/>
<path d="M326.939 200.829H328.57V208.403H326.939V200.829Z" fill="#263238"/>
<path d="M337.756 205.269V208.403H336.271V207.717C336.089 207.975 335.842 208.181 335.556 208.316C335.27 208.45 334.955 208.508 334.639 208.484C333.351 208.484 332.6 207.766 332.6 206.852C332.6 205.938 333.269 205.22 334.949 205.22H336.222C336.222 204.534 335.814 204.142 334.949 204.142C334.365 204.129 333.792 204.307 333.318 204.648L332.747 203.539C333.452 203.087 334.275 202.854 335.113 202.869C336.793 202.82 337.756 203.604 337.756 205.269ZM336.124 206.656V206.101H335.031C334.281 206.101 334.052 206.379 334.052 206.738C334.052 207.097 334.378 207.407 334.949 207.407C335.207 207.432 335.466 207.372 335.687 207.237C335.908 207.101 336.079 206.897 336.173 206.656H336.124Z" fill="#263238"/>
<path d="M344.853 200.829V208.403H343.335V207.766C343.12 208.008 342.852 208.199 342.553 208.323C342.253 208.447 341.93 208.502 341.606 208.484C340.892 208.43 340.226 208.108 339.739 207.583C339.253 207.058 338.982 206.368 338.982 205.652C338.982 204.936 339.253 204.247 339.739 203.722C340.226 203.197 340.892 202.875 341.606 202.82C341.91 202.805 342.214 202.857 342.496 202.973C342.778 203.088 343.032 203.265 343.238 203.49V200.829H344.853ZM343.221 205.644C343.196 205.374 343.093 205.116 342.924 204.903C342.755 204.69 342.528 204.531 342.271 204.444C342.013 204.358 341.736 204.348 341.473 204.416C341.21 204.484 340.972 204.627 340.789 204.827C340.606 205.028 340.484 205.277 340.44 205.545C340.396 205.814 340.43 206.089 340.539 206.338C340.648 206.587 340.827 206.799 341.054 206.948C341.281 207.097 341.546 207.177 341.818 207.178C342.013 207.19 342.207 207.161 342.39 207.092C342.572 207.023 342.738 206.917 342.876 206.78C343.015 206.643 343.123 206.478 343.194 206.297C343.264 206.115 343.296 205.92 343.286 205.726L343.221 205.644Z" fill="#263238"/>
<path d="M351.917 200.829V208.403H350.384V207.766C350.18 207.997 349.929 208.181 349.647 208.305C349.365 208.429 349.06 208.49 348.752 208.484C348.038 208.43 347.372 208.108 346.885 207.583C346.399 207.058 346.128 206.368 346.128 205.652C346.128 204.936 346.399 204.247 346.885 203.722C347.372 203.197 348.038 202.875 348.752 202.82C349.056 202.805 349.36 202.857 349.642 202.973C349.924 203.088 350.178 203.265 350.384 203.49V200.829H351.917ZM350.286 205.644C350.26 205.374 350.157 205.116 349.988 204.903C349.82 204.69 349.593 204.531 349.335 204.444C349.078 204.358 348.801 204.348 348.537 204.416C348.274 204.484 348.037 204.627 347.853 204.827C347.67 205.028 347.549 205.277 347.504 205.545C347.46 205.814 347.494 206.089 347.603 206.338C347.712 206.587 347.891 206.799 348.118 206.948C348.345 207.097 348.611 207.177 348.883 207.178C349.077 207.19 349.272 207.161 349.454 207.092C349.636 207.023 349.802 206.917 349.941 206.78C350.079 206.643 350.188 206.478 350.258 206.297C350.329 206.115 350.36 205.92 350.351 205.726L350.286 205.644Z" fill="#263238"/>
<path d="M356.779 202.82V204.289H356.42C356.218 204.273 356.015 204.302 355.826 204.374C355.636 204.447 355.466 204.561 355.326 204.708C355.187 204.856 355.082 205.032 355.02 205.225C354.958 205.418 354.941 205.623 354.968 205.824V208.419H353.337V202.918H354.87V203.653C355.092 203.364 355.384 203.136 355.717 202.991C356.051 202.845 356.417 202.786 356.779 202.82Z" fill="#263238"/>
<path d="M363.028 206.101H358.884C358.969 206.456 359.184 206.766 359.485 206.971C359.787 207.177 360.154 207.262 360.515 207.211C360.768 207.22 361.02 207.176 361.256 207.083C361.492 206.991 361.706 206.851 361.886 206.673L362.734 207.587C362.296 207.979 361.76 208.245 361.183 208.357C360.606 208.47 360.009 208.424 359.456 208.225C358.902 208.026 358.413 207.681 358.04 207.227C357.666 206.773 357.422 206.226 357.334 205.644C357.331 205.263 357.406 204.885 357.554 204.534C357.703 204.183 357.921 203.865 358.195 203.601C358.47 203.337 358.796 203.131 359.153 202.997C359.509 202.863 359.89 202.803 360.271 202.821C360.65 202.802 361.03 202.863 361.385 203C361.74 203.137 362.062 203.347 362.331 203.616C362.6 203.885 362.81 204.207 362.946 204.562C363.083 204.917 363.144 205.297 363.126 205.677C363.101 205.82 363.068 205.962 363.028 206.101ZM358.851 205.171H361.559C361.509 204.848 361.345 204.553 361.097 204.341C360.848 204.128 360.532 204.011 360.205 204.011C359.878 204.011 359.562 204.128 359.314 204.341C359.066 204.553 358.901 204.848 358.851 205.171Z" fill="#263238"/>
<path d="M363.582 207.881L364.121 206.738C364.696 207.089 365.356 207.276 366.03 207.277C366.764 207.277 367.041 207.081 367.041 206.771C367.041 205.873 363.778 206.771 363.778 204.6C363.778 203.555 364.708 202.821 366.307 202.821C367.044 202.807 367.772 202.975 368.428 203.31L367.89 204.437C367.394 204.153 366.829 204.012 366.258 204.028C365.557 204.028 365.247 204.257 365.247 204.534C365.247 205.481 368.51 204.534 368.51 206.738C368.51 207.75 367.563 208.484 365.916 208.484C365.099 208.489 364.294 208.281 363.582 207.881V207.881Z" fill="#263238"/>
<path d="M368.999 207.881L369.537 206.738C370.112 207.089 370.773 207.276 371.446 207.277C372.181 207.277 372.458 207.081 372.458 206.771C372.458 205.873 369.195 206.771 369.195 204.6C369.195 203.555 370.125 202.821 371.724 202.821C372.46 202.807 373.189 202.975 373.845 203.31L373.306 204.437C372.81 204.153 372.246 204.012 371.675 204.028C370.973 204.028 370.663 204.257 370.663 204.534C370.663 205.481 373.926 204.534 373.926 206.738C373.926 207.75 372.98 208.484 371.332 208.484C370.515 208.489 369.711 208.281 368.999 207.881V207.881Z" fill="#263238"/>
<path d="M306.643 261.826V257.533L304.554 261.075H303.869L301.781 257.631V261.826H300.231V254.693H301.585L304.261 259.133L306.904 254.693H308.258V261.842L306.643 261.826Z" fill="#263238"/>
<path d="M315.127 259.589H310.966C311.052 259.944 311.266 260.254 311.568 260.459C311.869 260.664 312.237 260.75 312.598 260.699C312.853 260.709 313.108 260.666 313.347 260.573C313.585 260.481 313.802 260.34 313.984 260.16L314.833 261.091C314.541 261.393 314.187 261.628 313.796 261.781C313.404 261.933 312.984 261.998 312.565 261.972C312.17 262.011 311.772 261.967 311.395 261.842C311.018 261.718 310.671 261.517 310.376 261.251C310.082 260.986 309.846 260.661 309.683 260.299C309.521 259.937 309.435 259.545 309.433 259.148C309.428 258.767 309.501 258.389 309.647 258.037C309.793 257.685 310.009 257.366 310.283 257.1C310.556 256.835 310.88 256.627 311.236 256.491C311.592 256.355 311.972 256.293 312.353 256.308C312.734 256.29 313.114 256.351 313.469 256.488C313.825 256.625 314.148 256.834 314.419 257.103C314.689 257.372 314.9 257.694 315.039 258.049C315.177 258.404 315.241 258.784 315.224 259.165C315.159 259.23 315.127 259.393 315.127 259.589ZM310.95 258.659H313.658C313.608 258.336 313.444 258.041 313.195 257.828C312.947 257.616 312.631 257.499 312.304 257.499C311.977 257.499 311.661 257.616 311.413 257.828C311.164 258.041 311 258.336 310.95 258.659V258.659Z" fill="#263238"/>
<path d="M315.681 261.32L316.203 260.177C316.784 260.513 317.442 260.693 318.112 260.699C318.863 260.699 319.124 260.503 319.124 260.21C319.124 259.312 315.861 260.21 315.861 258.022C315.861 256.994 316.807 256.243 318.406 256.243C319.137 256.231 319.86 256.399 320.511 256.733L319.988 257.859C319.49 257.583 318.927 257.442 318.357 257.451C317.639 257.451 317.329 257.68 317.329 257.973C317.329 258.904 320.592 257.973 320.592 260.161C320.592 261.189 319.63 261.907 317.998 261.907C317.189 261.906 316.393 261.704 315.681 261.32V261.32Z" fill="#263238"/>
<path d="M321.098 261.32L321.62 260.177C322.201 260.513 322.858 260.693 323.529 260.699C324.279 260.699 324.54 260.503 324.54 260.21C324.54 259.312 321.277 260.21 321.277 258.022C321.277 256.994 322.224 256.243 323.823 256.243C324.554 256.231 325.276 256.399 325.927 256.733L325.405 257.859C324.906 257.583 324.344 257.442 323.774 257.451C323.056 257.451 322.746 257.68 322.746 257.973C322.746 258.904 326.009 257.973 326.009 260.161C326.009 261.189 325.046 261.907 323.415 261.907C322.606 261.906 321.81 261.704 321.098 261.32V261.32Z" fill="#263238"/>
<path d="M331.898 258.692V261.826H330.414V261.222C330.234 261.482 329.988 261.69 329.701 261.825C329.415 261.96 329.098 262.016 328.782 261.989C327.51 261.989 326.743 261.271 326.743 260.357C326.743 259.443 327.428 258.724 329.092 258.724H330.365C330.365 258.039 329.957 257.647 329.092 257.647C328.508 257.634 327.935 257.812 327.461 258.153L326.89 257.043C327.595 256.591 328.418 256.359 329.255 256.374C330.936 256.325 331.898 257.027 331.898 258.692ZM330.267 260.095V259.589H329.174C328.423 259.589 328.195 259.867 328.195 260.242C328.195 260.618 328.521 260.895 329.092 260.895C329.356 260.917 329.62 260.85 329.841 260.705C330.063 260.56 330.23 260.346 330.316 260.095H330.267Z" fill="#263238"/>
<path d="M339.061 256.325V260.895C339.061 262.935 337.968 263.866 335.977 263.866C335.023 263.906 334.081 263.643 333.285 263.115L333.922 261.972C334.486 262.381 335.166 262.598 335.863 262.593C336.989 262.593 337.495 262.087 337.495 261.091V260.862C337.268 261.093 336.995 261.273 336.695 261.391C336.394 261.509 336.072 261.563 335.749 261.548C335.044 261.548 334.367 261.268 333.868 260.769C333.37 260.27 333.089 259.593 333.089 258.887C333.089 258.182 333.37 257.505 333.868 257.006C334.367 256.507 335.044 256.227 335.749 256.227C336.095 256.208 336.44 256.271 336.757 256.41C337.075 256.549 337.355 256.76 337.576 257.027V256.325H339.061ZM337.429 258.887C337.449 258.596 337.38 258.305 337.233 258.054C337.085 257.802 336.864 257.6 336.6 257.476C336.336 257.351 336.041 257.309 335.753 257.355C335.464 257.401 335.197 257.532 334.984 257.733C334.772 257.933 334.625 258.193 334.562 258.478C334.5 258.763 334.524 259.061 334.633 259.332C334.742 259.603 334.931 259.834 335.173 259.997C335.416 260.159 335.702 260.245 335.994 260.242C336.182 260.265 336.374 260.248 336.556 260.191C336.737 260.134 336.905 260.039 337.047 259.913C337.189 259.786 337.302 259.631 337.38 259.457C337.457 259.283 337.496 259.094 337.495 258.904L337.429 258.887Z" fill="#263238"/>
<path d="M345.897 259.589H341.737C341.822 259.944 342.037 260.254 342.338 260.459C342.64 260.665 343.007 260.75 343.368 260.699C343.624 260.709 343.879 260.666 344.117 260.573C344.356 260.481 344.573 260.34 344.755 260.161L345.603 261.091C345.311 261.393 344.957 261.627 344.565 261.779C344.174 261.931 343.755 261.997 343.335 261.973C342.94 262.014 342.54 261.971 342.163 261.848C341.785 261.725 341.437 261.524 341.141 261.258C340.846 260.991 340.61 260.666 340.448 260.303C340.287 259.94 340.203 259.546 340.203 259.149C340.201 258.777 340.272 258.409 340.413 258.066C340.554 257.722 340.762 257.41 341.025 257.147C341.287 256.885 341.599 256.677 341.943 256.536C342.286 256.394 342.654 256.323 343.025 256.325C343.406 256.307 343.786 256.368 344.142 256.504C344.498 256.641 344.821 256.851 345.091 257.119C345.361 257.388 345.573 257.71 345.711 258.065C345.85 258.42 345.913 258.801 345.897 259.181C345.93 259.23 345.897 259.394 345.897 259.589ZM341.72 258.659H344.429C344.378 258.336 344.214 258.041 343.966 257.829C343.717 257.616 343.401 257.499 343.074 257.499C342.747 257.499 342.431 257.616 342.183 257.829C341.935 258.041 341.771 258.336 341.72 258.659V258.659Z" fill="#263238"/>
<path d="M297.066 56.524C295.819 56.4021 294.566 56.3476 293.313 56.3607C289.903 56.5288 286.647 57.833 284.063 60.0659C282.169 61.7039 280.715 63.7891 279.832 66.1322C278.948 68.4752 278.664 71.0019 279.005 73.4828C279.195 74.9107 279.597 76.3024 280.196 77.6123C280.813 78.9787 281.633 80.2442 282.627 81.3664C284.725 83.7456 287.528 85.3926 290.626 86.0678C293.725 86.743 296.958 86.4112 299.856 85.1206C301.23 84.5238 302.502 83.7141 303.624 82.7212C304.723 81.7844 305.669 80.6833 306.431 79.4567C307.773 77.3444 308.566 74.9295 308.737 72.4321C308.908 69.9347 308.452 67.4342 307.409 65.1584C306.001 62.0631 303.609 59.5208 300.606 57.9277C299.474 57.3972 298.314 56.9286 297.131 56.524C298.392 56.6896 299.616 57.0648 300.753 57.6339C303.941 59.1408 306.507 61.708 308.013 64.8973C309.068 67.0951 309.588 69.5113 309.53 71.9485C309.458 74.7603 308.629 77.5005 307.132 79.8811C305.485 82.5192 303.087 84.605 300.247 85.8714C297.192 87.2548 293.772 87.616 290.495 86.9016C287.218 86.1871 284.259 84.435 282.056 81.9051C280.959 80.737 280.061 79.3971 279.396 77.9388C278.763 76.5648 278.35 75.0996 278.173 73.5971C277.822 70.9961 278.137 68.3487 279.087 65.9025C280.037 63.4562 281.592 61.2909 283.606 59.6089C286.308 57.3427 289.706 56.0749 293.232 56.018C294.529 55.9777 295.824 56.1486 297.066 56.524Z" fill="#9278FE"/>
<path d="M288.468 57.1934C291.171 61.4531 293.633 65.8616 295.842 70.3981C298.279 74.8 300.458 79.3398 302.368 83.9945C299.685 79.7252 297.229 75.3175 295.01 70.7898C292.572 66.386 290.388 61.8464 288.468 57.1934V57.1934Z" fill="#9278FE"/>
<path d="M291.584 56.3281C294.215 60.4441 296.601 64.7116 298.73 69.1085C301.113 73.375 303.254 77.7727 305.142 82.2805C302.509 78.1628 300.117 73.8955 297.979 69.5002C295.597 65.2357 293.462 60.8378 291.584 56.3281V56.3281Z" fill="#9278FE"/>
<path d="M295.189 56.3774C297.536 59.9679 299.645 63.7083 301.503 67.5745C303.624 71.3064 305.488 75.1783 307.083 79.1633C304.736 75.5702 302.621 71.8302 300.753 67.9662C298.648 64.2285 296.79 60.3573 295.189 56.3774V56.3774Z" fill="#9278FE"/>
<path d="M299.073 56.9482C301.026 59.8082 302.755 62.815 304.244 65.9418C305.97 68.9428 307.443 72.082 308.649 75.3271C306.696 72.4672 304.967 69.4603 303.478 66.3335C301.752 63.3325 300.279 60.1933 299.073 56.9482V56.9482Z" fill="#9278FE"/>
<path d="M285.661 59.0049C288.368 63.2629 290.83 67.6716 293.036 72.2096C295.501 76.6116 297.713 81.1511 299.66 85.806C296.952 81.5489 294.49 77.1401 292.285 72.6013C289.828 68.1952 287.617 63.656 285.661 59.0049V59.0049Z" fill="#9278FE"/>
<path d="M282.872 60.8169C285.578 65.0697 288.04 69.4729 290.246 74.0053C292.671 78.4131 294.85 82.9522 296.772 87.6017C294.064 83.3445 291.602 78.9358 289.398 74.397C286.975 69.9937 284.796 65.4601 282.872 60.8169V60.8169Z" fill="#9278FE"/>
<path d="M280.62 63.7222C283.009 67.3837 285.151 71.2007 287.032 75.1477C289.174 78.9426 291.065 82.8738 292.693 86.9161C290.307 83.2528 288.165 79.436 286.281 75.4905C284.144 71.693 282.253 67.7622 280.62 63.7222V63.7222Z" fill="#9278FE"/>
<path d="M278.956 67.6396C280.917 70.4659 282.636 73.4526 284.095 76.5679C285.806 79.5514 287.274 82.6682 288.484 85.8879C286.527 83.0589 284.808 80.0726 283.345 76.9597C281.621 73.9827 280.153 70.8649 278.956 67.6396V67.6396Z" fill="#9278FE"/>
<path d="M417.178 406.114C417.08 406.114 416.525 404.923 414.91 403.111C412.618 400.584 409.544 398.899 406.181 398.329C403.714 397.892 401.177 398.085 398.804 398.889C396.432 399.694 394.3 401.084 392.607 402.932C390.603 405.102 389.286 407.816 388.822 410.734C388.311 413.863 388.815 417.074 390.259 419.896C391.704 422.718 394.013 425.004 396.849 426.419C398.184 427.112 399.622 427.586 401.107 427.823C402.519 428.067 403.96 428.1 405.382 427.921C407.459 427.657 409.458 426.966 411.254 425.889C413.051 424.813 414.604 423.376 415.817 421.669C417.03 419.962 417.875 418.022 418.3 415.971C418.726 413.92 418.721 411.803 418.287 409.754C417.765 407.404 417.08 406.212 417.178 406.163C417.844 407.253 418.329 408.444 418.613 409.689C419.47 413.109 419.112 416.721 417.602 419.907C416.574 422.118 415.036 424.053 413.115 425.554C410.91 427.31 408.272 428.438 405.48 428.819C403.982 429.047 402.458 429.047 400.96 428.819C399.398 428.571 397.885 428.081 396.474 427.366C393.472 425.875 391.028 423.459 389.503 420.473C387.979 417.487 387.454 414.09 388.006 410.783C388.245 409.218 388.736 407.702 389.458 406.294C390.124 404.935 390.994 403.686 392.036 402.589C393.825 400.673 396.068 399.241 398.558 398.424C401.048 397.608 403.704 397.435 406.279 397.921C409.752 398.565 412.894 400.393 415.171 403.095C415.993 403.99 416.671 405.009 417.178 406.114V406.114Z" fill="#9278FE"/>
<path d="M411.19 399.961C409.606 404.754 407.76 409.457 405.659 414.047C403.818 418.737 401.715 423.319 399.362 427.774C400.94 422.986 402.781 418.289 404.876 413.704C406.725 409.01 408.833 404.422 411.19 399.961V399.961Z" fill="#9278FE"/>
<path d="M413.849 401.756C412.337 406.404 410.555 410.96 408.514 415.401C406.733 419.95 404.69 424.391 402.396 428.704C403.905 424.06 405.686 419.509 407.731 415.075C409.518 410.524 411.561 406.077 413.849 401.756Z" fill="#9278FE"/>
<path d="M416.101 404.58C414.813 408.675 413.26 412.683 411.451 416.576C409.913 420.58 408.103 424.474 406.034 428.231C407.316 424.133 408.869 420.125 410.684 416.234C412.223 412.23 414.032 408.336 416.101 404.58V404.58Z" fill="#9278FE"/>
<path d="M418.075 407.942C417.123 411.274 415.901 414.522 414.42 417.654C413.189 420.886 411.699 424.014 409.966 427.007C410.925 423.681 412.153 420.438 413.637 417.311C414.866 414.076 416.35 410.943 418.075 407.942V407.942Z" fill="#9278FE"/>
<path d="M408.025 398.899C406.436 403.686 404.59 408.382 402.494 412.969C400.646 417.661 398.544 422.249 396.196 426.713C397.77 421.918 399.611 417.215 401.711 412.626C403.546 407.931 405.654 403.348 408.025 398.899Z" fill="#9278FE"/>
<path d="M404.843 397.872C403.277 402.664 401.436 407.361 399.329 411.941C397.489 416.637 395.386 421.225 393.031 425.685C394.603 420.895 396.444 416.197 398.546 411.615C400.386 406.919 402.488 402.331 404.843 397.872Z" fill="#9278FE"/>
<path d="M401.221 397.937C399.917 402.094 398.342 406.161 396.506 410.113C394.931 414.172 393.094 418.125 391.008 421.947C392.316 417.785 393.891 413.713 395.723 409.754C397.298 405.7 399.135 401.752 401.221 397.937Z" fill="#9278FE"/>
<path d="M397.094 399.177C396.141 402.48 394.924 405.7 393.455 408.807C392.253 412.031 390.774 415.143 389.034 418.111C389.987 414.809 391.204 411.588 392.672 408.481C393.883 405.261 395.362 402.149 397.094 399.177V399.177Z" fill="#9278FE"/>
<path d="M643.354 95.3548C643.188 93.0628 642.845 90.7872 642.326 88.5484C641.657 85.941 640.602 83.4486 639.194 81.1544C635.875 75.6316 630.738 71.4365 624.665 69.2892C618.592 67.1418 611.962 67.1761 605.911 69.3861C603.402 70.2738 601.047 71.5458 598.928 73.1565C597.824 73.9707 596.778 74.8596 595.796 75.817C594.818 76.8406 593.913 77.9314 593.087 79.0815C589.6 83.8084 587.719 89.5288 587.719 95.4037C587.719 101.279 589.6 106.999 593.087 111.726C593.913 112.876 594.818 113.967 595.796 114.99C596.778 115.948 597.824 116.837 598.928 117.651C601.047 119.262 603.402 120.534 605.911 121.421C611.962 123.631 618.592 123.666 624.665 121.518C630.738 119.371 635.875 115.176 639.194 109.653C640.602 107.359 641.657 104.867 642.326 102.259C642.845 100.02 643.188 97.7447 643.354 95.4527C643.373 95.6045 643.373 95.7579 643.354 95.9097C643.354 96.2525 643.354 96.6932 643.354 97.2481C643.357 97.9756 643.297 98.7019 643.175 99.419C643.07 100.405 642.89 101.382 642.636 102.341C642.017 105 640.993 107.549 639.602 109.898C637.563 113.363 634.812 116.354 631.529 118.673C628.246 120.992 624.508 122.585 620.562 123.347C615.574 124.29 610.425 123.878 605.65 122.156C603.063 121.248 600.631 119.949 598.439 118.304C597.291 117.464 596.201 116.548 595.176 115.562C594.17 114.541 593.238 113.45 592.386 112.297C588.784 107.43 586.84 101.533 586.84 95.4772C586.84 89.4209 588.784 83.5248 592.386 78.6571C593.246 77.5112 594.178 76.4208 595.176 75.3926C596.201 74.4068 597.291 73.4908 598.439 72.6505C600.635 70.9375 603.084 69.5773 605.699 68.6189C610.159 66.9963 614.957 66.5285 619.647 67.2591C624.336 67.9897 628.765 69.8948 632.521 72.7974C635.407 75.0265 637.829 77.7989 639.651 80.9585C641.042 83.3077 642.066 85.8563 642.685 88.5157C642.941 89.4851 643.121 90.4729 643.224 91.4701C643.346 92.1871 643.406 92.9135 643.403 93.6409C643.403 94.1959 643.403 94.6366 643.403 94.9794C643.399 95.1058 643.383 95.2316 643.354 95.3548V95.3548Z" fill="#9278FE"/>
<path d="M638.77 80.2729C638.916 80.4524 629.552 88.532 617.837 98.2274C606.123 107.923 596.514 115.953 596.367 115.692C596.22 115.431 605.585 107.531 617.299 97.7377C629.013 87.9444 638.623 80.0444 638.77 80.2729Z" fill="#9278FE"/>
<path d="M641.592 85.4963C641.739 85.6759 632.652 93.4942 621.313 102.977C609.974 112.461 600.641 120.002 600.494 119.822C600.348 119.642 609.419 111.808 620.774 102.325C632.129 92.8413 641.413 85.3168 641.592 85.4963Z" fill="#9278FE"/>
<path d="M642.881 91.9435C643.044 92.1231 635.082 99.0111 625.13 107.335C615.178 115.66 606.971 122.254 606.825 122.025C606.678 121.797 614.623 114.958 624.576 106.634C634.528 98.3092 642.734 91.764 642.881 91.9435Z" fill="#9278FE"/>
<path d="M643.354 99.1089C643.501 99.2885 637.122 104.871 629.095 111.579C621.068 118.288 614.411 123.576 614.281 123.396C614.15 123.217 620.513 117.635 628.556 110.926C636.6 104.218 643.224 98.9294 643.354 99.1089Z" fill="#9278FE"/>
<path d="M634.463 75.964C634.626 76.1436 625.244 84.2231 613.547 93.9185C601.849 103.614 592.206 111.498 592.06 111.318C591.913 111.139 601.278 103.059 612.992 93.2656C624.706 83.4723 634.316 75.7845 634.463 75.964Z" fill="#9278FE"/>
<path d="M630.172 71.6549C630.318 71.8345 620.937 79.914 609.239 89.6094C597.541 99.3048 587.915 107.27 587.752 107.091C587.589 106.911 596.97 98.8315 608.685 89.0381C620.399 79.2448 630.008 71.4754 630.172 71.6549Z" fill="#9278FE"/>
<path d="M624.184 68.7494C624.331 68.929 616.271 75.9149 606.156 84.3699C596.04 92.8248 587.752 99.5169 587.589 99.3374C587.426 99.1578 595.502 92.1556 605.617 83.717C615.733 75.2783 624.037 68.6189 624.184 68.7494Z" fill="#9278FE"/>
<path d="M616.451 67.3131C616.597 67.4926 610.251 73.0422 602.289 79.7017C594.327 86.3611 587.72 91.6169 587.605 91.4374C587.491 91.2578 593.789 85.7082 601.767 79.0488C609.745 72.3893 616.304 67.1335 616.451 67.3131Z" fill="#9278FE"/>
<path d="M585.403 58.7929C588.286 58.7929 590.624 56.4545 590.624 53.5698C590.624 50.6852 588.286 48.3467 585.403 48.3467C582.519 48.3467 580.182 50.6852 580.182 53.5698C580.182 56.4545 582.519 58.7929 585.403 58.7929Z" fill="#9278FE"/>
<path d="M440.1 397.072C440.104 398.106 439.8 399.117 439.228 399.978C438.657 400.839 437.842 401.511 436.889 401.909C435.935 402.307 434.885 402.413 433.871 402.213C432.857 402.013 431.925 401.517 431.194 400.787C430.462 400.058 429.963 399.127 429.76 398.113C429.557 397.1 429.66 396.049 430.055 395.093C430.449 394.138 431.118 393.321 431.977 392.747C432.836 392.172 433.846 391.865 434.879 391.865C436.261 391.865 437.587 392.413 438.565 393.389C439.544 394.365 440.096 395.69 440.1 397.072Z" fill="#9278FE"/>
<path d="M193.187 120.85C192.534 116.728 190.542 112.936 187.52 110.06C184.497 107.183 180.612 105.383 176.464 104.936C174.267 104.984 172.073 104.743 169.938 104.217C168.327 103.443 166.773 102.553 165.288 101.557C162.72 100.264 159.789 99.8826 156.975 100.476C154.162 101.069 151.634 102.601 149.805 104.821C146.542 109.082 145.123 103.189 137.275 107.825C130.749 111.693 134.176 117.063 134.176 117.063C130.808 117.019 127.53 118.142 124.898 120.243C122.265 122.344 120.441 125.292 119.737 128.587C118.97 132.781 119.737 137.874 116.474 140.616C114.842 141.938 112.689 142.248 111.041 143.57C108.006 145.921 107.908 150.458 108.593 154.229C109.279 157.999 110.453 161.998 109.05 165.654C106.75 171.514 98.4128 173.816 97.3849 180.051C96.8955 182.989 98.1191 186.58 96.0797 188.669C95.1737 189.447 94.1346 190.055 93.0125 190.464C90.8248 191.535 88.9741 193.189 87.6634 195.243C86.3527 197.296 85.6326 199.672 85.5821 202.108C85.5315 204.544 86.1525 206.947 87.3768 209.054C88.6012 211.16 90.3816 212.889 92.523 214.05C93.6977 214.687 95.1171 215.29 95.5576 216.564C95.9981 217.837 95.1334 219.453 94.4645 220.791C93.2223 223.277 92.8252 226.101 93.3333 228.833C93.8414 231.565 95.2271 234.057 97.2799 235.93C99.3326 237.803 101.94 238.954 104.707 239.209C107.473 239.463 110.247 238.808 112.607 237.342C115.197 241.821 119.427 245.116 124.403 246.531C126.657 247.275 129.08 247.337 131.369 246.711C133.157 246.079 134.791 245.078 136.166 243.773C142.953 237.848 152.481 228.805 153.101 219.812" fill="#263238"/>
<path d="M130.766 153.625C129.727 153.834 128.656 153.834 127.617 153.625C125.084 153.205 122.667 152.263 120.518 150.858C118.369 149.453 116.537 147.616 115.136 145.464C114.505 144.618 114.055 143.651 113.814 142.624C114.469 143.418 115.074 144.252 115.625 145.121C117.128 147.042 118.942 148.697 120.993 150.018C123.064 151.339 125.342 152.304 127.731 152.874C128.758 153.058 129.772 153.309 130.766 153.625V153.625Z" fill="#455A64"/>
<path d="M135.318 132.978C134.79 133.795 134.095 134.49 133.278 135.018C129.479 137.831 124.729 139.044 120.047 138.397C119.075 138.325 118.129 138.047 117.273 137.58C120.444 137.968 123.657 137.836 126.785 137.189C129.843 136.269 132.727 134.846 135.318 132.978V132.978Z" fill="#455A64"/>
<path d="M101.97 235.106C101.97 235.106 101.872 235.106 101.692 235.106C101.416 235.04 101.143 234.958 100.876 234.861C99.8581 234.474 98.9102 233.923 98.0702 233.229C96.6801 232.188 95.5609 230.828 94.8072 229.263C93.8262 227.176 93.5513 224.827 94.024 222.571C94.2811 221.263 94.7731 220.013 95.4761 218.882C96.2623 217.654 97.2305 216.553 98.3475 215.617C99.4917 214.68 100.492 213.58 101.317 212.353C101.691 211.716 101.899 210.994 101.922 210.256C101.945 209.517 101.782 208.784 101.447 208.125C100.63 206.695 99.6504 205.364 98.527 204.159C97.9549 203.478 97.4469 202.746 97.0097 201.972C96.5713 201.151 96.2735 200.263 96.1287 199.344C95.8659 197.419 96.2124 195.459 97.1195 193.741C98.0266 192.022 99.4488 190.631 101.186 189.763C102.981 189.162 104.827 188.731 106.701 188.473C107.544 188.305 108.343 187.966 109.05 187.478C109.703 186.99 110.179 186.302 110.404 185.519C110.759 183.871 110.571 182.153 109.866 180.622C109.23 179.072 108.349 177.603 107.778 176.036C107.106 174.491 106.985 172.762 107.435 171.139C107.969 169.641 108.941 168.339 110.225 167.401C112.512 165.874 115.071 164.799 117.763 164.235C119.9 163.728 121.917 162.808 123.701 161.525C124.961 160.46 125.833 159.008 126.181 157.396C126.427 156.379 126.324 155.31 125.887 154.36C125.577 153.707 125.284 153.446 125.333 153.413C125.634 153.644 125.88 153.939 126.051 154.278C126.564 155.249 126.726 156.368 126.507 157.445C126.21 159.168 125.329 160.735 124.011 161.884C122.203 163.264 120.132 164.258 117.926 164.806C115.329 165.391 112.867 166.46 110.665 167.956C109.497 168.808 108.62 169.999 108.153 171.368C107.753 172.839 107.88 174.404 108.512 175.791C109.067 177.293 109.931 178.713 110.617 180.345C111.387 182.03 111.593 183.919 111.204 185.731C110.931 186.685 110.359 187.526 109.572 188.131C108.774 188.695 107.869 189.089 106.913 189.289C105.096 189.534 103.305 189.944 101.562 190.514C99.9905 191.305 98.7049 192.567 97.8833 194.123C97.0617 195.679 96.745 197.453 96.9771 199.197C97.1034 200.022 97.3623 200.821 97.7439 201.564C98.1583 202.297 98.6388 202.991 99.1796 203.637C100.34 204.891 101.343 206.284 102.165 207.783C102.54 208.551 102.718 209.401 102.684 210.256C102.649 211.11 102.404 211.943 101.97 212.679C101.107 213.961 100.05 215.101 98.837 216.058C97.7614 216.919 96.821 217.937 96.0471 219.078C95.3676 220.141 94.8867 221.319 94.6277 222.554C94.1422 224.687 94.3597 226.921 95.2477 228.92C95.9287 230.433 96.9506 231.768 98.2333 232.821C99.3469 233.78 100.609 234.552 101.97 235.106V235.106Z" fill="#455A64"/>
<path d="M271.288 643.652H95.5577V652.988H271.288V643.652Z" fill="#E0E0E0"/>
<path d="M271.239 652.955C271.239 652.955 271.239 652.743 271.239 652.368C271.239 651.992 271.239 651.388 271.239 650.638C271.239 649.005 271.239 646.753 271.157 643.619L271.288 643.75C248.447 643.913 178.373 644.044 95.5577 644.044L95.9819 643.619V652.955L95.5577 652.531L220.009 652.711L257.534 652.841H267.731H270.391H271.321H270.456H267.845H257.746L220.352 652.972L95.5903 653.151H95.1661V643.162H95.5903C178.406 643.162 248.528 643.276 271.321 643.456H271.451V643.587C271.451 646.753 271.451 649.087 271.369 650.67C271.369 651.421 271.369 651.976 271.369 652.384C271.343 652.578 271.299 652.769 271.239 652.955V652.955Z" fill="#263238"/>
<path d="M113.961 481.816L76.8605 732.575H89.2274L122.804 485.097V481.816H113.961Z" fill="#E0E0E0"/>
<path d="M113.961 481.833C113.961 481.833 114.63 481.833 116.082 481.833H122.804H122.918V481.947C122.918 482.926 122.918 484.02 122.918 485.211C118.905 516.077 105.591 615.186 89.6353 732.722V733.098H76.3711V732.608C86.878 662.749 96.1777 599.99 102.916 554.695C106.309 532.105 109.05 513.89 110.959 501.273C111.905 495.005 112.591 490.141 113.162 486.811L113.733 483.073C113.88 482.241 113.961 481.833 113.961 481.833C113.961 481.833 113.961 482.273 113.798 483.139C113.635 484.004 113.504 485.293 113.26 486.942C112.786 490.206 112.085 495.103 111.171 501.501C109.344 514.134 106.685 532.415 103.389 555.054C96.7324 600.283 87.5306 662.912 77.2847 732.641L76.8606 732.151H89.2437L88.8195 732.51C104.825 614.973 118.334 515.848 122.771 485.081C122.771 483.889 122.771 482.796 122.771 481.816L122.869 481.914H116.213L113.961 481.833Z" fill="#263238"/>
<path d="M252.835 481.816L290.719 732.575H278.336L243.976 485.097V481.816H252.835Z" fill="#E0E0E0"/>
<path d="M252.835 481.833H250.649H243.993L244.091 481.735C244.091 482.714 244.091 483.808 244.091 484.999C248.545 515.816 262.429 614.876 278.744 732.429L278.336 732.069H290.703L290.279 732.559C279.821 662.847 270.407 600.202 263.62 554.973C260.259 532.334 257.551 514.069 255.658 501.42C254.744 495.103 254.026 490.206 253.521 486.86C253.292 485.228 253.113 483.938 252.982 483.057C252.852 482.176 252.819 481.751 252.819 481.751C252.819 481.751 252.901 482.159 253.048 482.992C253.194 483.824 253.374 485.114 253.635 486.73C254.157 489.994 254.907 494.891 255.886 501.191C257.828 513.792 260.618 532.024 264.044 554.614C270.929 599.908 280.457 662.618 291.078 732.429V732.918H277.847V732.543C261.531 615.023 247.892 515.897 243.781 485.032C243.781 483.841 243.781 482.747 243.781 481.768V481.653H243.895H250.6C252.167 481.8 252.835 481.833 252.835 481.833Z" fill="#263238"/>
<path d="M184.671 481.816H174.099V732.559H184.671V481.816Z" fill="#E0E0E0"/>
<path d="M184.671 732.576C184.671 732.576 184.671 732.119 184.671 731.254C184.671 730.388 184.671 729.115 184.671 727.467C184.671 724.202 184.671 719.208 184.671 712.907C184.671 700.258 184.589 681.993 184.54 659.37C184.54 614.141 184.426 551.513 184.361 481.833L184.785 482.257H174.213L174.637 481.833C174.637 601.883 174.507 703 174.327 732.576L174.213 732.461H182.191H184.132H184.785H184.181H182.256H174.213H174.099V732.347C173.919 702.771 173.789 601.655 173.789 481.605V481.18H185.209V481.605C185.209 551.415 185.079 614.141 185.046 659.517C185.046 682.107 184.932 700.323 184.916 712.956C184.916 719.224 184.916 724.088 184.916 727.418C184.916 729.05 184.916 730.291 184.916 731.156C184.916 732.021 184.671 732.576 184.671 732.576Z" fill="#263238"/>
<path d="M254.94 465.07H109.882V483.923H254.94V465.07Z" fill="#455A64"/>
<path d="M154.178 465.609C152.533 467.259 150.76 468.777 148.875 470.146C146.844 471.616 144.718 472.952 142.513 474.145C137.102 477.057 131.257 479.075 125.202 480.119C122.732 480.544 120.235 480.801 117.73 480.887C115.427 480.984 113.119 480.903 110.829 480.642H111.351H112.737C113.912 480.642 115.642 480.642 117.763 480.642C120.252 480.523 122.732 480.245 125.186 479.809C128.189 479.251 131.149 478.481 134.045 477.508C136.915 476.487 139.711 475.271 142.415 473.868C144.615 472.696 146.74 471.388 148.778 469.951C150.507 468.71 151.877 467.649 152.775 466.866L153.819 465.984L154.178 465.609Z" fill="#263238"/>
<path d="M174.98 477.997L174.621 477.866C174.392 477.768 174.05 477.589 173.593 477.409C172.245 476.897 170.844 476.536 169.416 476.332C167.168 476.016 164.881 476.099 162.662 476.577C159.746 477.199 157.025 478.521 154.733 480.429V480.2C159.979 481.481 165.371 482.069 170.77 481.947C173.851 481.872 176.922 481.56 179.956 481.017C181.545 480.838 183.09 480.386 184.524 479.678C185.213 479.279 185.739 478.649 186.009 477.899C186.242 477.134 186.214 476.312 185.927 475.565C185.556 474.692 184.977 473.923 184.24 473.326C183.504 472.728 182.632 472.32 181.702 472.137C179.873 471.721 178.011 471.464 176.138 471.37C172.593 471.119 169.033 471.19 165.501 471.582C155.426 472.685 145.783 476.275 137.439 482.029C136.248 482.828 135.367 483.53 134.763 483.987L133.833 484.673C133.833 484.673 134.127 484.412 134.73 483.938C135.334 483.465 136.166 482.747 137.357 481.931C140.68 479.562 144.246 477.554 147.994 475.94C153.545 473.513 159.431 471.94 165.452 471.272C169.011 470.877 172.597 470.795 176.171 471.027C178.065 471.131 179.948 471.393 181.799 471.811C182.752 472.065 183.652 472.485 184.459 473.051C185.272 473.661 185.89 474.495 186.237 475.451C186.539 476.278 186.539 477.186 186.237 478.013C185.953 478.841 185.372 479.533 184.606 479.956C183.138 480.688 181.553 481.158 179.923 481.343C176.868 481.889 173.775 482.195 170.672 482.257C165.249 482.381 159.833 481.777 154.569 480.462H154.325L154.521 480.298C156.88 478.357 159.682 477.028 162.678 476.43C164.917 475.962 167.221 475.901 169.481 476.25C170.921 476.464 172.329 476.853 173.674 477.409C174.474 477.752 174.98 477.997 174.98 477.997Z" fill="#263238"/>
<path d="M193.726 465.56C194.063 465.597 194.393 465.685 194.705 465.821C195.569 466.204 196.346 466.759 196.989 467.453C197.941 468.471 198.61 469.72 198.93 471.077C199.277 472.757 199.136 474.501 198.522 476.104C197.341 478.979 195.097 481.289 192.257 482.551C191.422 482.941 190.554 483.257 189.663 483.498L188.929 483.677C188.75 483.677 188.668 483.677 188.668 483.677C188.974 483.537 189.29 483.423 189.614 483.335C190.484 483.056 191.33 482.706 192.143 482.29C194.892 481.017 197.055 478.747 198.196 475.941C198.813 474.385 198.961 472.682 198.62 471.044C198.332 469.727 197.708 468.507 196.809 467.502C195.952 466.617 194.894 465.951 193.726 465.56V465.56Z" fill="#263238"/>
<path d="M216.436 465.478C215.336 465.941 214.273 466.487 213.255 467.111C210.851 468.679 208.782 470.709 207.169 473.084C205.573 475.474 204.197 478.003 203.058 480.642L201.981 483.025C201.72 483.58 201.573 483.89 201.557 483.89C201.616 483.574 201.715 483.267 201.851 482.976C202.079 482.388 202.405 481.556 202.83 480.544C203.913 477.857 205.274 475.291 206.892 472.889C208.526 470.476 210.65 468.435 213.124 466.898C213.881 466.448 214.678 466.071 215.506 465.772C215.731 465.69 215.96 465.619 216.192 465.56C216.339 465.478 216.436 465.462 216.436 465.478Z" fill="#263238"/>
<path d="M241.496 476.675L240.648 476.299C239.842 475.958 239.006 475.691 238.152 475.5C234.997 474.772 231.689 475.141 228.771 476.544C228.299 476.729 227.891 477.047 227.596 477.458C227.464 477.668 227.406 477.915 227.433 478.161C227.459 478.408 227.569 478.637 227.743 478.813C228.652 479.501 229.689 480 230.794 480.282C233.205 481.141 235.716 481.689 238.266 481.914C241.072 482.157 243.899 482.02 246.668 481.506C248.124 481.317 249.507 480.755 250.682 479.874C251.239 479.384 251.627 478.73 251.791 478.006C251.955 477.282 251.887 476.525 251.596 475.842C251.008 474.444 249.903 473.327 248.512 472.725C247.16 472.102 245.743 471.631 244.286 471.321C241.538 470.696 238.714 470.465 235.9 470.636C231.112 470.926 226.47 472.401 222.391 474.928C219.651 476.628 217.2 478.755 215.131 481.229C214.397 482.127 213.875 482.861 213.5 483.334L212.961 484.085C213.559 483.055 214.235 482.073 214.984 481.147C217.047 478.567 219.516 476.34 222.294 474.553C226.399 471.979 231.081 470.469 235.917 470.162C238.762 469.978 241.619 470.203 244.401 470.832C245.88 471.142 247.319 471.618 248.691 472.252C250.152 472.889 251.317 474.055 251.954 475.516C252.251 476.274 252.325 477.101 252.167 477.899C251.979 478.685 251.551 479.392 250.943 479.923C249.729 480.867 248.289 481.475 246.766 481.686C243.964 482.207 241.105 482.345 238.266 482.094C235.697 481.853 233.167 481.305 230.728 480.462C230.157 480.266 229.603 480.037 229.097 479.825C228.538 479.624 228.03 479.301 227.612 478.878C227.41 478.662 227.285 478.385 227.256 478.09C227.226 477.795 227.294 477.499 227.449 477.246C227.778 476.808 228.217 476.464 228.722 476.251C231.696 474.854 235.059 474.519 238.25 475.304C239.396 475.59 240.492 476.053 241.496 476.675Z" fill="#263238"/>
<path d="M147.456 225.312C142.087 227.382 137.613 231.269 134.812 236.297C130.064 244.703 131.337 248.849 132.577 253.827C133.817 258.806 136.003 268.648 136.117 268.012C136.231 267.375 147.456 225.312 147.456 225.312Z" fill="#A36957"/>
<path d="M147.978 225.345L157.963 219.42L204.38 202.053L195.259 280.106L160.998 301.684L140.702 291.532L138.662 268.942L147.978 225.345Z" fill="#A36957"/>
<path d="M146.755 344.138L128.628 367.675L106.146 362.386L88.1669 372.441L92.9146 380.912L140.636 384.111L157.441 349.427L146.755 344.138Z" fill="#7C3B29"/>
<path d="M91.7236 570.071L110.013 609.75L139.56 596.105L120.618 546.991L91.7236 570.071Z" fill="#A36957"/>
<path d="M106.57 607.106L117.257 627.509C117.257 627.509 89.88 655.828 92.4578 662.161L156.805 631.296L139.086 590.376L106.57 607.106Z" fill="#2DBF90"/>
<path d="M135.823 615.17C136.535 615.061 137.262 615.219 137.864 615.614C138.466 616.008 138.902 616.612 139.086 617.308C139.225 618.014 139.087 618.746 138.702 619.354C138.316 619.961 137.712 620.398 137.014 620.572C136.262 620.686 135.494 620.517 134.859 620.098C134.223 619.679 133.765 619.04 133.572 618.304C133.507 617.551 133.736 616.803 134.21 616.216C134.685 615.628 135.368 615.248 136.117 615.153" fill="#E0E0E0"/>
<g opacity="0.6">
<path opacity="0.6" d="M156.805 631.296L154.129 626.154L93.4041 657.673C93.4041 657.673 91.1363 660.284 92.4252 662.161L156.805 631.296Z" fill="white"/>
</g>
<path d="M116.066 627.688C116.213 627.999 117.86 627.378 119.884 627.688C121.907 627.999 123.375 628.88 123.603 628.619C123.832 628.358 122.494 626.758 120.03 626.481C117.567 626.203 115.854 627.427 116.066 627.688Z" fill="#263238"/>
<path d="M110.649 633.712C110.649 634.055 112.281 633.94 114.043 634.756C115.805 635.573 116.735 636.829 117.028 636.666C117.322 636.503 116.686 634.626 114.548 633.647C112.411 632.667 110.502 633.369 110.649 633.712Z" fill="#263238"/>
<path d="M110.682 643.636C111.008 643.636 110.682 641.775 109.05 640.371C107.419 638.967 105.624 639.049 105.624 639.375C105.624 639.702 106.962 640.191 108.284 641.301C109.605 642.411 110.356 643.75 110.682 643.636Z" fill="#263238"/>
<path d="M112.982 619.822C113.26 620.05 114.483 618.924 116.245 618.189C118.007 617.455 119.737 617.357 119.769 617.014C119.802 616.671 117.926 616.182 115.788 617.014C113.651 617.847 112.721 619.658 112.982 619.822Z" fill="#263238"/>
<path d="M111.106 615.741C111.106 615.741 110.78 615.333 110.502 614.452C110.135 613.191 110.035 611.868 110.209 610.567C110.243 610.12 110.342 609.68 110.502 609.261C110.604 608.988 110.778 608.746 111.004 608.563C111.231 608.379 111.503 608.259 111.791 608.216C111.966 608.194 112.143 608.212 112.31 608.268C112.477 608.325 112.629 608.419 112.754 608.543C112.97 608.791 113.107 609.098 113.145 609.424C113.187 609.968 113.187 610.513 113.145 611.056C113.145 612.15 113.145 613.195 112.884 614.452C112.831 614.82 112.679 615.167 112.443 615.454C112.207 615.742 111.897 615.96 111.547 616.084C110.895 616.281 110.205 616.309 109.54 616.165C107.748 615.853 106.021 615.241 104.433 614.354C103.888 614.086 103.4 613.715 102.997 613.26C102.779 612.99 102.66 612.653 102.66 612.305C102.66 611.958 102.779 611.621 102.997 611.35C103.216 611.155 103.479 611.016 103.763 610.945C104.047 610.874 104.344 610.873 104.629 610.942C105.511 611.179 106.361 611.524 107.158 611.971C108.301 612.592 109.35 613.373 110.274 614.288C110.91 614.941 111.204 615.349 111.155 615.398C109.83 614.295 108.398 613.327 106.88 612.509C106.129 612.123 105.335 611.827 104.515 611.628C104.336 611.58 104.149 611.574 103.968 611.611C103.786 611.647 103.616 611.726 103.471 611.84C103.381 611.987 103.342 612.159 103.359 612.33C103.377 612.501 103.45 612.662 103.568 612.787C103.917 613.139 104.326 613.427 104.776 613.635C105.262 613.904 105.763 614.144 106.277 614.354C107.326 614.796 108.42 615.125 109.54 615.333C110.075 615.471 110.636 615.471 111.171 615.333C111.384 615.263 111.572 615.134 111.714 614.96C111.855 614.787 111.945 614.576 111.971 614.354C112.118 613.309 112.166 612.101 112.264 611.089C112.302 610.595 112.302 610.098 112.264 609.604C112.264 609.179 112.036 608.984 111.726 609C111.024 609 110.78 609.996 110.665 610.746C110.497 612.424 110.646 614.119 111.106 615.741V615.741Z" fill="#263238"/>
<path d="M91.2994 583.7L44.6871 467.633C44.6871 467.633 45.7639 447.034 49.5817 440.521C53.3994 434.009 168.29 396.043 168.29 396.043C168.29 396.043 197.56 389.008 217.073 396.043C236.586 403.078 251.22 427.512 248.512 441.06C245.804 454.607 234.367 464.58 234.367 464.58L149.854 467.094L103.797 483.906L134.796 572.862C134.796 572.862 118.954 590.213 91.2994 583.7Z" fill="#263238"/>
<path d="M50.0222 505.892L48.929 549.571L81.4451 550.37L86.1438 497.943L50.0222 505.892Z" fill="#A36957"/>
<path d="M46.9876 545.669L47.5912 568.7C47.5912 568.7 10.5396 582.019 10.0664 588.842L81.4125 589.56L83.615 545.033L46.9876 545.669Z" fill="#2DBF90"/>
<path d="M69.6819 565.828C70.3681 566.046 70.9499 566.51 71.3169 567.13C71.6839 567.75 71.8104 568.483 71.6723 569.19C71.4772 569.871 71.0334 570.453 70.429 570.822C69.8246 571.191 69.1037 571.319 68.4093 571.181C67.6865 570.948 67.0753 570.455 66.693 569.799C66.3106 569.142 66.184 568.367 66.3373 567.623C66.621 566.934 67.1585 566.38 67.8387 566.077C68.5189 565.773 69.2897 565.742 69.9919 565.991" fill="#E0E0E0"/>
<g opacity="0.6">
<path opacity="0.6" d="M81.3962 589.56L81.2656 583.766L12.9053 585.251C12.9053 585.251 9.64224 586.589 10.0501 588.842L81.3962 589.56Z" fill="white"/>
</g>
<path d="M46.4328 568.324C46.4328 568.684 48.1786 568.847 49.8916 569.957C51.6047 571.067 52.4857 572.568 52.812 572.438C53.1384 572.307 52.6326 570.283 50.5442 568.945C48.4559 567.606 46.3676 568.08 46.4328 568.324Z" fill="#263238"/>
<path d="M38.9279 571.344C38.83 571.687 40.3473 572.291 41.5057 573.776C42.6641 575.261 43.0067 576.828 43.3493 576.812C43.6919 576.796 43.9366 574.837 42.452 573.025C40.9673 571.214 38.9279 571.018 38.9279 571.344Z" fill="#263238"/>
<path d="M34.5717 580.272C34.898 580.272 35.4038 578.64 34.5717 576.698C33.7397 574.755 32.0755 573.988 31.9287 574.282C31.7819 574.576 32.7771 575.604 33.4623 577.187C34.1475 578.77 34.2291 580.223 34.5717 580.272Z" fill="#263238"/>
<path d="M47.1507 559.919C47.2976 560.245 48.8964 559.772 50.8706 559.919C52.8447 560.065 54.362 560.702 54.5415 560.408C54.7209 560.114 53.2689 558.858 50.9521 558.776C48.6354 558.694 46.9876 559.641 47.1507 559.919Z" fill="#263238"/>
<path d="M47.2486 555.43C47.1444 554.962 47.1444 554.478 47.2486 554.01C47.4721 552.716 47.9609 551.482 48.6843 550.386C48.9216 550.004 49.2067 549.652 49.5327 549.342C49.7471 549.14 50.0118 549.001 50.299 548.937C50.5862 548.874 50.8852 548.89 51.1642 548.983C51.3305 549.04 51.4816 549.134 51.606 549.259C51.7304 549.383 51.8248 549.534 51.8821 549.701C51.9789 550.015 51.9789 550.35 51.8821 550.664C51.6651 551.165 51.4143 551.65 51.1316 552.117C50.5769 553.047 50.1037 553.994 49.4022 555.038C49.1933 555.343 48.9049 555.585 48.5684 555.737C48.2319 555.89 47.8601 555.947 47.4933 555.903C46.8177 555.798 46.1817 555.517 45.6497 555.087C44.6519 554.358 43.7381 553.521 42.9251 552.59C42.5498 552.133 42.1909 551.676 41.8646 551.203C41.4892 550.719 41.2171 550.163 41.0651 549.57C40.9746 549.23 41.0068 548.868 41.1559 548.549C41.305 548.229 41.5617 547.973 41.8809 547.824C42.1642 547.751 42.4609 547.749 42.7452 547.817C43.0296 547.885 43.2929 548.022 43.5124 548.215C44.2011 548.821 44.8097 549.512 45.3234 550.272C46.0774 551.329 46.6762 552.489 47.1017 553.716C47.2881 554.156 47.3931 554.626 47.4117 555.104C46.7002 553.532 45.8369 552.034 44.8339 550.631C44.3316 549.951 43.7512 549.332 43.1045 548.787C42.9658 548.665 42.801 548.577 42.6228 548.529C42.4446 548.481 42.2578 548.474 42.0767 548.509C41.9288 548.6 41.8161 548.738 41.7568 548.901C41.6976 549.064 41.6953 549.243 41.7504 549.407C41.9005 549.877 42.1386 550.315 42.4519 550.697C42.77 551.156 43.1131 551.597 43.4798 552.019C44.2603 552.906 45.1356 553.705 46.0902 554.402C46.5184 554.73 47.0145 554.959 47.5423 555.071C47.7662 555.097 47.9929 555.06 48.1973 554.965C48.4017 554.87 48.5759 554.72 48.7006 554.532C49.288 553.667 49.859 552.606 50.3321 551.725C50.6042 551.308 50.8442 550.872 51.05 550.419C51.1968 550.011 51.05 549.75 50.8379 549.636C50.1853 549.374 49.549 550.109 49.1085 550.729C48.2009 552.166 47.5701 553.761 47.2486 555.43V555.43Z" fill="#263238"/>
<path d="M69.013 384.585C69.013 384.585 49.4348 383.035 47.3628 404.172C45.2908 425.309 43.0556 524.01 43.0556 524.01L88.5911 527.813L95.6393 426.925L168.291 396.043C168.291 396.043 81.9835 381.876 69.013 384.585Z" fill="#263238"/>
<path d="M149.332 356.054C149.332 356.054 137.504 389.221 139.755 392.926C142.007 396.631 172.386 411.827 172.386 411.827L248.479 441.06C253.761 431.4 256.454 420.536 256.294 409.525C256.294 390.412 229.831 356.054 229.831 356.054H149.332Z" fill="#263238"/>
<path d="M171.88 394.362C171.88 394.362 171.766 394.362 171.521 394.558L170.444 395.047L166.235 396.924L150.409 403.829L95.8024 427.333L96.0472 426.99C95.3619 436.963 94.6114 447.719 93.8446 458.851C91.9847 484.885 90.2879 508.879 88.9501 527.862V528.204H88.6238L55.3899 525.266L46.2534 524.418L43.8714 524.156C43.5963 524.146 43.323 524.108 43.0556 524.042C43.3324 524.017 43.6109 524.017 43.8877 524.042L46.2697 524.189L55.4225 524.858L88.6238 527.486L88.2648 527.796C89.5537 508.813 91.2016 484.803 92.9962 458.769C93.7794 447.638 94.5299 436.881 95.2314 426.925V426.664L95.4598 426.566L150.197 403.339L166.104 396.663L170.379 394.9L171.488 394.476L171.88 394.362Z" fill="#455A64"/>
<path d="M232.409 397.675C231.676 397.566 230.958 397.369 230.272 397.088L224.545 395.243C218.288 393.109 211.873 391.471 205.358 390.347C198.868 389.283 192.24 389.371 185.78 390.608C183.121 391.225 180.496 391.982 177.916 392.877C178.539 392.479 179.201 392.146 179.891 391.881C181.753 391.094 183.68 390.472 185.65 390.02C192.186 388.582 198.937 388.41 205.538 389.514C212.095 390.614 218.535 392.325 224.773 394.623C227.172 395.472 229.097 396.255 230.435 396.729C231.122 396.98 231.783 397.297 232.409 397.675V397.675Z" fill="#455A64"/>
<path d="M221.641 380.194C219.43 380.057 217.212 380.057 215.001 380.194C212.945 380.325 210.514 380.651 207.789 380.962C205.065 381.272 202.112 381.647 199.028 382.235C193.741 383.074 188.672 384.955 184.116 387.768C182.293 389.027 180.564 390.418 178.944 391.93C179.235 391.395 179.609 390.91 180.054 390.494C181.171 389.273 182.418 388.178 183.774 387.229C188.329 384.222 193.474 382.224 198.865 381.37C201.981 380.766 204.983 380.423 207.708 380.145C210.432 379.868 212.88 379.623 214.968 379.558C216.603 379.478 218.241 379.549 219.863 379.77C220.474 379.814 221.075 379.958 221.641 380.194Z" fill="#455A64"/>
<path d="M147.456 225.312C147.456 225.312 134.518 266.82 134.812 278.703C135.106 290.585 140.033 324.405 139.462 330.934C138.891 337.463 141.224 355.94 149.251 355.94H229.782C229.782 355.94 247.974 350.896 248.757 339.976C249.54 329.057 224.284 223.011 224.284 223.011C224.284 223.011 219.52 203.522 212.863 202.102C206.207 200.682 198.767 202.102 194.313 215.862C189.859 229.622 188.374 249.045 178.863 258.561C169.351 268.077 155.826 278.752 155.826 278.752C155.826 278.752 144.911 269.611 144.405 257.239C143.899 244.867 148.549 224.839 148.549 224.839L147.456 225.312Z" fill="#2DBF90"/>
<path d="M232.23 232.592C230.109 229.406 226.994 227.013 223.37 225.785C219.775 224.575 216.032 223.855 212.243 223.647C208.871 223.186 205.444 223.307 202.112 224.006C198.849 224.855 197.478 228.903 196.108 232.037C193.911 245.981 194.65 260.23 198.278 273.871C198.594 275.947 199.4 277.918 200.629 279.62C201.857 281.323 203.473 282.709 205.342 283.664C208.091 285.671 211.29 286.971 214.658 287.451C220.695 287.908 226.258 283.534 229.081 278.18C231.903 272.826 232.54 266.624 233.111 260.601C233.491 256.825 233.856 253.054 234.204 249.289C234.758 243.577 235.215 237.44 232.23 232.592Z" fill="#A36957"/>
<path d="M159.382 356.951C158.208 356.666 157.117 356.107 156.201 355.319C153.905 353.49 152.063 351.155 150.817 348.496C149.583 345.894 148.662 343.155 148.076 340.335C147.735 339.184 147.548 337.993 147.521 336.793C148.017 337.881 148.394 339.019 148.647 340.188C149.395 342.933 150.378 345.609 151.584 348.186C152.785 350.742 154.482 353.033 156.576 354.927C158.208 356.233 159.448 356.82 159.382 356.951Z" fill="#263238"/>
<path d="M201.998 305.504C201.595 305.939 201.14 306.322 200.643 306.646C199.333 307.581 197.941 308.395 196.483 309.078C194.297 310.086 191.979 310.778 189.598 311.135C186.674 311.557 183.697 311.43 180.821 310.759C175.613 309.432 170.879 306.68 167.148 302.81C166.017 301.67 164.965 300.454 164 299.171C163.63 298.706 163.313 298.203 163.053 297.669C163.184 297.571 164.685 299.628 167.556 302.386C171.313 306.025 175.952 308.624 181.016 309.927C186.092 311.08 191.402 310.6 196.189 308.556C199.926 306.924 201.9 305.291 201.998 305.504Z" fill="#263238"/>
<path d="M158.387 355.45C158.208 355.597 157.098 354.324 156.756 352.349C156.573 351.77 156.51 351.16 156.572 350.557C156.634 349.953 156.818 349.369 157.115 348.839C157.359 348.839 157.229 350.39 157.588 352.104C157.947 353.818 158.665 355.319 158.387 355.45Z" fill="#263238"/>
<path d="M191.752 232.396C191.019 232.553 190.339 232.896 189.778 233.392C189.149 234.011 188.712 234.799 188.521 235.661C188.367 236.224 188.353 236.816 188.481 237.385C188.609 237.954 188.875 238.483 189.255 238.925L189.549 239.219L189.141 239.35C188.141 239.677 187.22 240.209 186.436 240.911C185.653 241.614 185.024 242.472 184.589 243.43C184.009 244.576 183.72 245.847 183.748 247.131C183.777 248.416 184.122 249.673 184.752 250.792L185.242 251.591L184.328 251.347C183.278 251.078 182.171 251.134 181.152 251.506C180.134 251.877 179.251 252.548 178.62 253.43C177.989 254.312 177.638 255.364 177.615 256.448C177.591 257.533 177.895 258.599 178.487 259.508L177.737 259.883C177.403 259.227 176.838 258.718 176.152 258.453C175.465 258.188 174.705 258.185 174.017 258.447C173.248 258.666 172.55 259.083 171.992 259.655C171.434 260.228 171.035 260.937 170.836 261.711C170.374 263.302 170.143 264.951 170.15 266.608L170.085 268.893L169.384 266.641C169.141 266.062 168.707 265.585 168.155 265.288C167.602 264.991 166.965 264.892 166.349 265.008C165.745 265.142 165.182 265.42 164.707 265.817C164.233 266.215 163.861 266.722 163.624 267.293C162.548 269.595 163.2 272.19 163.624 274.296H162.972C162.965 273.754 162.837 273.22 162.597 272.734C162.357 272.248 162.011 271.823 161.585 271.488C160.828 270.844 159.87 270.486 158.877 270.476C158.079 270.528 157.323 270.848 156.731 271.385C156.138 271.921 155.745 272.642 155.614 273.431C155.367 274.456 155.506 275.537 156.005 276.467C156.364 277.087 156.69 277.332 156.658 277.381C156.321 277.182 156.04 276.901 155.842 276.564C155.343 275.733 155.118 274.767 155.197 273.8C155.276 272.834 155.655 271.917 156.283 271.178C156.607 270.805 157.005 270.503 157.451 270.289C157.897 270.076 158.383 269.956 158.877 269.938C160.014 269.922 161.122 270.303 162.009 271.015C162.501 271.409 162.901 271.904 163.183 272.468C163.465 273.032 163.621 273.65 163.641 274.279V276.973L163.004 274.345C162.681 273.19 162.452 272.011 162.319 270.819C162.147 269.48 162.344 268.12 162.89 266.885C163.168 266.194 163.611 265.582 164.18 265.101C164.748 264.62 165.426 264.286 166.153 264.127C166.957 263.969 167.791 264.095 168.512 264.486C169.232 264.876 169.794 265.505 170.101 266.265L169.302 266.379C169.297 264.662 169.539 262.952 170.02 261.303C170.3 260.43 170.749 259.62 171.341 258.92C171.993 258.198 172.845 257.687 173.789 257.451C174.689 257.187 175.646 257.187 176.546 257.451C176.998 257.6 177.41 257.849 177.752 258.179C178.094 258.51 178.357 258.914 178.52 259.361L179.695 262.625L177.77 259.671C177.077 258.627 176.719 257.396 176.743 256.143C176.767 254.89 177.172 253.675 177.903 252.657C178.635 251.64 179.658 250.87 180.838 250.449C182.018 250.029 183.298 249.977 184.508 250.302L184.084 250.873C183.402 249.648 183.036 248.272 183.018 246.87C183.001 245.468 183.334 244.084 183.986 242.843C184.465 241.812 185.159 240.894 186.019 240.152C186.88 239.409 187.888 238.857 188.978 238.534L188.864 238.958C188.443 238.457 188.154 237.858 188.023 237.217C187.892 236.576 187.923 235.912 188.113 235.285C188.352 234.366 188.864 233.54 189.582 232.919C190.029 232.538 190.56 232.27 191.132 232.135C191.35 232.193 191.558 232.281 191.752 232.396V232.396Z" fill="#2DBF90"/>
<path d="M147.848 225.606C147.848 225.606 147.946 225.606 148.076 225.917C148.248 226.257 148.348 226.629 148.37 227.01C148.402 227.631 148.273 228.25 147.994 228.806C147.609 229.576 146.934 230.163 146.118 230.438V230.062C146.839 230.659 147.418 231.407 147.816 232.253C148.214 233.1 148.419 234.024 148.419 234.959C148.468 236.171 148.191 237.373 147.617 238.441C147.043 239.509 146.193 240.404 145.156 241.031V240.427C146.147 241.231 146.886 242.303 147.285 243.516C147.684 244.728 147.727 246.03 147.407 247.266C146.637 249.895 145.275 252.312 143.426 254.334L142.757 253.811C143.076 253.462 143.471 253.19 143.911 253.016C144.351 252.841 144.824 252.77 145.296 252.806C145.768 252.842 146.225 252.985 146.633 253.224C147.041 253.464 147.39 253.793 147.652 254.187C148.074 254.896 148.311 255.7 148.339 256.524C148.368 257.349 148.187 258.168 147.815 258.904C147.117 260.236 146.164 261.418 145.009 262.381L144.585 261.679C145.172 261.447 145.801 261.339 146.432 261.359C147.064 261.38 147.684 261.53 148.255 261.799C148.826 262.068 149.337 262.451 149.755 262.925C150.173 263.399 150.489 263.953 150.685 264.554C150.881 265.154 150.953 265.789 150.895 266.418C150.837 267.047 150.651 267.658 150.348 268.212C150.046 268.767 149.633 269.254 149.136 269.643C148.639 270.033 148.067 270.316 147.456 270.476L146.526 270.738L147.081 269.938C147.47 269.442 147.988 269.063 148.577 268.841C149.167 268.62 149.806 268.564 150.425 268.681C151.504 268.82 152.51 269.301 153.297 270.052C153.881 270.68 154.336 271.417 154.636 272.22C154.935 273.024 155.074 273.879 155.043 274.736C155.059 275.798 154.971 276.858 154.782 277.903C154.744 278.271 154.662 278.632 154.537 278.98C154.406 278.98 154.749 277.446 154.651 274.753C154.643 273.154 154.024 271.618 152.922 270.46C152.234 269.881 151.397 269.508 150.507 269.383C150.004 269.3 149.489 269.355 149.015 269.542C148.541 269.729 148.126 270.04 147.815 270.444L147.44 269.905C148.361 269.579 149.135 268.934 149.623 268.087C150.111 267.24 150.28 266.247 150.099 265.286C149.954 264.77 149.706 264.288 149.371 263.87C149.035 263.452 148.62 263.105 148.148 262.851C147.676 262.596 147.158 262.44 146.624 262.39C146.09 262.34 145.552 262.398 145.041 262.56L143.149 263.229L144.617 261.858C145.688 260.951 146.569 259.842 147.211 258.594C147.527 257.994 147.683 257.324 147.666 256.647C147.649 255.97 147.459 255.308 147.113 254.725C146.925 254.444 146.677 254.208 146.387 254.034C146.097 253.86 145.772 253.752 145.436 253.717C145.099 253.683 144.759 253.723 144.44 253.836C144.121 253.948 143.831 254.129 143.589 254.366L142.92 253.86C144.696 251.943 146.018 249.65 146.787 247.152C147.089 246.064 147.072 244.912 146.739 243.833C146.407 242.754 145.772 241.793 144.911 241.064L144.438 240.737L144.944 240.443C145.878 239.887 146.646 239.092 147.171 238.139C147.696 237.187 147.958 236.112 147.929 235.024C147.951 234.163 147.787 233.306 147.446 232.514C147.105 231.722 146.596 231.014 145.955 230.438L145.612 230.209L146.02 230.095C146.722 229.859 147.306 229.362 147.652 228.708C147.933 228.209 148.085 227.648 148.092 227.075C148.104 226.575 148.021 226.076 147.848 225.606V225.606Z" fill="#2DBF90"/>
<g opacity="0.3">
<path opacity="0.3" d="M164.408 299.53C164.974 305.691 167.947 311.38 172.679 315.362C175.053 317.301 177.851 318.651 180.844 319.303C183.838 319.955 186.944 319.892 189.908 319.116C192.856 318.269 195.513 316.627 197.591 314.37C199.669 312.113 201.086 309.328 201.688 306.32C197.632 308.405 193.305 309.91 188.831 310.792C184.006 311.443 179.095 310.684 174.691 308.604C170.288 306.524 166.58 303.214 164.016 299.073C164.228 299.318 164.456 299.546 164.669 299.775" fill="black"/>
</g>
<g opacity="0.3">
<path opacity="0.3" d="M147.489 337.936C146.916 340.996 147.143 344.152 148.15 347.098C149.156 350.043 150.907 352.679 153.232 354.748C153.674 355.248 154.239 355.625 154.872 355.839C155.504 356.054 156.182 356.1 156.837 355.972C152.31 350.674 149.135 344.356 147.587 337.561" fill="black"/>
</g>
<path d="M210.612 218.898C210.612 218.898 192.388 221.754 196.793 247.674C201.198 273.594 232.686 317.484 232.686 317.484L163.853 359.482L171.88 378.138L261.27 341.331C261.27 341.331 270.081 332.256 266.981 322.153C263.881 312.049 240.877 248.409 240.877 248.409C240.877 248.409 232.376 214.491 210.612 218.898Z" fill="#A36957"/>
<path d="M103.797 375.477L128.433 359.906L161.063 361.44L163.804 359.547L171.831 378.203C171.831 378.203 163.037 382.414 158.436 382.79L129.934 380.619L99.6528 378.35L103.797 375.477Z" fill="#A36957"/>
<path d="M232.605 317.99C232 317.337 231.454 316.633 230.973 315.884C229.994 314.497 228.608 312.457 226.927 309.927C223.582 304.834 219.128 297.701 214.544 289.622C209.959 281.542 206.142 274.05 203.499 268.566C202.177 265.824 201.149 263.588 200.464 262.037C200.049 261.256 199.71 260.436 199.452 259.589C199.938 260.326 200.364 261.101 200.725 261.907L203.988 268.321C206.762 273.724 210.677 281.151 215.245 289.214C219.814 297.277 224.17 304.459 227.384 309.617L231.202 315.721C231.734 316.435 232.204 317.194 232.605 317.99Z" fill="#7C3B29"/>
<path d="M249.54 323.899C246.936 322.259 244.208 320.824 241.382 319.606C238.424 318.662 235.397 317.952 232.327 317.484C235.5 317.258 238.685 317.713 241.668 318.819C244.651 319.926 247.363 321.658 249.621 323.899H249.54Z" fill="#7C3B29"/>
<path d="M4.56824 297.669C5.18821 299.562 29.9219 382.724 29.9219 382.724L171.863 392.926L177.084 384.112L97.8255 378.138L75.588 292.805C75.1367 291.092 74.0657 289.607 72.5826 288.639C71.0995 287.671 69.31 287.289 67.5609 287.565L4.56824 297.669Z" fill="#455A64"/>
<path d="M49.3533 332.566C50.5443 335.047 50.0548 337.757 48.2275 338.638C46.4002 339.519 43.9693 338.23 42.7783 335.765C41.5873 333.301 42.0767 330.575 43.8877 329.693C45.6987 328.812 48.1623 330.101 49.3533 332.566Z" fill="#FAFAFA"/>
<path d="M174.36 388.747H173.936H172.745L168.095 388.486L150.899 387.343L93.3062 383.198H93.0125L92.9309 382.92C92.1641 380.243 91.2994 377.403 90.5163 374.53L73.1081 313.224L67.9362 294.649C67.3488 292.495 66.892 290.797 66.5657 289.573C66.4352 289.034 66.321 288.61 66.2394 288.251C66.1834 288.105 66.1504 287.95 66.1415 287.794C66.2225 287.931 66.283 288.08 66.321 288.235C66.4189 288.577 66.5657 289.002 66.7289 289.54C67.1041 290.748 67.6099 292.413 68.2462 294.551L73.6954 313.061L91.3484 374.22C92.1641 377.093 92.9799 379.933 93.7467 382.61L93.3715 382.3L150.948 386.723L168.111 388.127L172.745 388.535L173.952 388.665C174.091 388.67 174.229 388.698 174.36 388.747V388.747Z" fill="#263238"/>
<path d="M194.346 134.625L194.215 128.227L155.581 122.482C143.704 121.715 131.418 134.071 131.108 145.969C130.815 159.19 130.978 175.35 132.936 185.143C136.884 204.73 152.139 206.705 152.139 206.705L153.02 226.291L196.76 225.067L194.346 134.625Z" fill="#A36957"/>
<path d="M139.331 159.827C139.348 160.488 139.625 161.116 140.101 161.574C140.578 162.032 141.215 162.284 141.876 162.275C142.2 162.289 142.522 162.237 142.825 162.124C143.129 162.01 143.406 161.838 143.641 161.616C143.877 161.394 144.066 161.127 144.197 160.831C144.328 160.535 144.399 160.216 144.405 159.892C144.384 159.231 144.107 158.604 143.631 158.144C143.156 157.684 142.521 157.427 141.86 157.428C141.535 157.415 141.211 157.467 140.907 157.581C140.603 157.695 140.325 157.869 140.089 158.093C139.853 158.317 139.665 158.586 139.535 158.883C139.404 159.181 139.335 159.502 139.331 159.827V159.827Z" fill="#263238"/>
<path d="M135.66 154.229C135.987 154.539 137.863 153.037 140.555 152.939C143.247 152.841 145.335 154.114 145.613 153.772C145.89 153.429 145.417 153.037 144.519 152.433C143.302 151.664 141.878 151.288 140.441 151.356C139.022 151.413 137.658 151.916 136.541 152.792C135.823 153.494 135.513 154.082 135.66 154.229Z" fill="#263238"/>
<path d="M164.832 159.272C164.857 159.932 165.136 160.557 165.61 161.016C166.084 161.475 166.717 161.733 167.377 161.737C167.701 161.748 168.024 161.694 168.327 161.579C168.63 161.464 168.908 161.29 169.143 161.067C169.378 160.843 169.567 160.575 169.698 160.279C169.829 159.982 169.899 159.662 169.906 159.338C169.889 158.675 169.612 158.046 169.136 157.585C168.661 157.124 168.023 156.868 167.361 156.873C167.036 156.862 166.713 156.916 166.41 157.031C166.107 157.146 165.83 157.32 165.594 157.543C165.359 157.767 165.171 158.034 165.04 158.331C164.909 158.628 164.838 158.948 164.832 159.272Z" fill="#263238"/>
<path d="M162.515 153.641C162.841 153.967 164.701 152.466 167.409 152.368C170.118 152.27 172.19 153.543 172.483 153.2C172.777 152.858 172.271 152.45 171.374 151.862C170.167 151.085 168.745 150.708 167.312 150.785C165.89 150.826 164.521 151.33 163.412 152.221C162.613 152.89 162.352 153.494 162.515 153.641Z" fill="#263238"/>
<path d="M153.427 174.289C151.967 173.905 150.467 173.697 148.957 173.669C148.256 173.669 147.603 173.522 147.456 173.048C147.373 172.328 147.509 171.6 147.848 170.959C148.435 169.327 149.039 167.45 149.691 165.573C152.236 157.901 154.064 151.601 153.754 151.503C153.444 151.405 151.127 157.542 148.566 165.214C147.946 167.107 147.358 168.903 146.804 170.633C146.406 171.491 146.319 172.46 146.559 173.375C146.668 173.619 146.833 173.835 147.039 174.005C147.246 174.175 147.489 174.294 147.75 174.354C148.14 174.445 148.54 174.484 148.941 174.469C150.438 174.603 151.946 174.543 153.427 174.289Z" fill="#263238"/>
<path d="M152.139 206.738C161.67 206.51 170.96 203.689 179.01 198.577C179.01 198.577 172.891 212.695 152.351 211.634L152.139 206.738Z" fill="#7C3B29"/>
<path d="M154.847 180.818C155.338 180.14 155.995 179.599 156.755 179.248C157.515 178.896 158.352 178.745 159.187 178.81C159.798 178.852 160.394 179.018 160.938 179.299C161.482 179.579 161.963 179.968 162.352 180.442C162.737 180.885 162.977 181.436 163.039 182.02C163.1 182.604 162.98 183.193 162.694 183.707C162.279 184.218 161.718 184.591 161.086 184.778C160.454 184.964 159.781 184.955 159.154 184.751C157.848 184.344 156.634 183.684 155.581 182.809C155.267 182.596 154.991 182.331 154.765 182.025C154.666 181.876 154.612 181.7 154.612 181.519C154.612 181.339 154.666 181.163 154.765 181.013" fill="#7C3B29"/>
<path d="M161.536 175.856C161.095 175.856 161.21 178.81 158.746 181.013C156.283 183.217 153.134 183.021 153.134 183.445C153.134 183.87 153.852 183.984 155.189 183.968C156.925 183.916 158.588 183.258 159.888 182.107C161.135 181.005 161.902 179.458 162.025 177.798C162.091 176.541 161.732 175.823 161.536 175.856Z" fill="#263238"/>
<path d="M161.373 142.983C161.667 143.701 164.375 143.244 167.589 143.505C170.803 143.766 173.43 144.533 173.838 143.848C174.017 143.521 173.528 142.836 172.467 142.215C171.04 141.387 169.443 140.896 167.797 140.78C166.151 140.664 164.501 140.926 162.972 141.546C161.813 142.069 161.242 142.623 161.373 142.983Z" fill="#263238"/>
<path d="M136.346 146.28C136.851 146.884 138.711 146.166 140.963 146.035C143.214 145.905 145.156 146.297 145.58 145.627C145.759 145.301 145.433 144.697 144.568 144.142C143.423 143.463 142.093 143.16 140.767 143.277C139.441 143.358 138.172 143.842 137.129 144.664C136.362 145.334 136.117 145.986 136.346 146.28Z" fill="#263238"/>
<path d="M126.034 122.025C129.297 128.946 136.346 139.245 143.981 139.98C147.786 140.307 151.612 139.653 155.093 138.082C158.575 136.51 161.596 134.073 163.869 131.003C165.142 136.617 171.472 139.474 177.166 140.274C181.188 141.006 185.334 140.628 189.158 139.18C191.058 138.438 192.738 137.222 194.037 135.648C195.336 134.074 196.212 132.194 196.581 130.186C197.103 126.155 191.148 116.41 187.134 115.741" fill="#263238"/>
<path d="M187.754 223.125C188.007 226.326 189.239 229.372 191.282 231.848C193.325 234.325 196.081 236.112 199.175 236.967C199.082 239.586 199.922 242.152 201.546 244.209C203.17 246.265 205.471 247.677 208.039 248.193C210.607 248.709 213.275 248.295 215.567 247.025C217.858 245.755 219.623 243.711 220.548 241.259C220.89 239.935 221.441 238.673 222.179 237.522C224.104 235.057 227.89 235.547 230.859 234.584C236.21 232.853 238.527 226.292 237.923 220.693C237.742 219.615 237.692 218.519 237.777 217.429C238.103 215.193 239.865 213.479 241.17 211.618C246.554 203.979 244.303 192.896 238.331 185.698C236.341 183.299 233.828 180.802 234.024 177.684C234.307 175.976 234.858 174.324 235.656 172.787C236.638 170.131 236.8 167.241 236.122 164.491C235.445 161.741 233.958 159.258 231.854 157.363C231.129 156.886 230.561 156.204 230.223 155.404C230.117 154.865 230.117 154.311 230.223 153.772C230.551 149.61 229.294 145.479 226.704 142.206C224.113 138.933 220.381 136.762 216.257 136.128C215.757 136.11 215.264 136 214.805 135.801C213.532 135.132 213.483 133.386 213.32 131.965C212.88 128.195 210.057 121.176 207.104 118.712C199.11 111.889 191.376 117.439 188.619 120.034C188.619 120.034 183.154 147.129 184.214 152.189C185.275 157.249 188.978 169.817 187.477 175.53C185.976 181.242 183.61 192.945 185.846 198.103C188.081 203.261 187.754 223.125 187.754 223.125Z" fill="#263238"/>
<path d="M217.611 135.948C217.611 135.948 217.269 136.307 216.567 136.813C215.555 137.514 214.498 138.147 213.402 138.706C206.102 142.491 197.789 143.857 189.663 142.608C188.437 142.434 187.226 142.167 186.041 141.808C185.598 141.715 185.17 141.561 184.769 141.351C184.769 141.204 186.678 141.677 189.663 142.02C193.646 142.448 197.667 142.344 201.622 141.71C205.573 141.056 209.416 139.865 213.043 138.168C215.914 136.878 217.53 135.834 217.611 135.948Z" fill="#455A64"/>
<path d="M220.222 137.874C220.088 138.439 219.891 138.986 219.634 139.506C219.392 140.131 219.103 140.736 218.769 141.318C218.375 142.111 217.934 142.879 217.448 143.619C216.205 145.577 214.773 147.409 213.173 149.087C211.197 151.13 209.009 152.958 206.647 154.539C204.264 156.082 201.727 157.373 199.077 158.391C196.906 159.198 194.659 159.789 192.372 160.154C191.498 160.316 190.615 160.425 189.729 160.48C189.06 160.526 188.39 160.526 187.722 160.48C187.149 160.531 186.572 160.498 186.009 160.382C186.009 160.219 188.456 160.252 192.257 159.501C194.484 159.055 196.668 158.416 198.783 157.591C203.973 155.551 208.68 152.449 212.602 148.483C214.195 146.862 215.641 145.103 216.926 143.228C219.145 140.061 220.058 137.809 220.222 137.874Z" fill="#455A64"/>
<path d="M206.06 238.533C206.06 238.533 206.403 238.533 207.006 238.435C207.888 238.23 208.682 237.75 209.274 237.064C210.237 236 210.766 234.615 210.759 233.18C210.707 231.266 210.36 229.372 209.731 227.565C208.857 225.284 208.686 222.794 209.241 220.416C210.09 217.837 212.146 215.862 213.989 213.74C214.958 212.709 215.757 211.53 216.355 210.247C216.624 209.594 216.752 208.891 216.729 208.184C216.707 207.478 216.535 206.785 216.224 206.15C215.481 204.83 214.428 203.71 213.157 202.886C211.884 201.955 210.481 201.139 209.127 200.143C207.686 199.199 206.552 197.855 205.864 196.275C205.602 195.469 205.512 194.616 205.599 193.773C205.686 192.93 205.949 192.114 206.37 191.378C207.904 188.555 210.302 186.482 210.857 183.821C211.062 182.537 210.989 181.224 210.642 179.971C210.296 178.718 209.685 177.554 208.85 176.558C207.453 174.691 205.855 172.984 204.086 171.465C202.632 170.157 201.3 168.72 200.105 167.172C199.195 165.989 198.494 164.659 198.033 163.239C197.767 162.334 197.657 161.39 197.707 160.448C197.728 160.126 197.788 159.808 197.886 159.501C197.835 160.731 197.99 161.961 198.343 163.141C199.702 166.242 201.817 168.953 204.494 171.025C206.312 172.538 207.954 174.252 209.388 176.133C210.203 177.215 210.846 178.415 211.297 179.692C211.805 181.065 211.907 182.555 211.591 183.984C210.955 187.02 208.458 189.142 207.088 191.77C206.714 192.401 206.479 193.105 206.401 193.834C206.322 194.564 206.4 195.301 206.631 195.998C207.259 197.413 208.285 198.616 209.584 199.458C210.873 200.421 212.292 201.237 213.598 202.2C214.958 203.11 216.077 204.337 216.861 205.775C217.22 206.511 217.417 207.316 217.44 208.135C217.462 208.955 217.309 209.769 216.991 210.524C216.363 211.898 215.508 213.156 214.462 214.246C212.57 216.384 210.579 218.294 209.796 220.612C209.25 222.844 209.369 225.187 210.139 227.353C210.746 229.23 211.054 231.19 211.052 233.163C211.015 234.691 210.403 236.148 209.339 237.244C208.685 237.949 207.81 238.409 206.859 238.55C206.594 238.592 206.323 238.586 206.06 238.533V238.533Z" fill="#455A64"/>
<path d="M683.016 732.576C683.016 732.804 530.78 733 343.042 733C155.304 733 3.03461 732.804 3.03461 732.576C3.03461 732.347 155.238 732.151 343.042 732.151C530.845 732.151 683.016 732.331 683.016 732.576Z" fill="#263238"/>
</g>
<defs>
<clipPath id="clip0_36_1336">
<rect width="683" height="733" fill="white"/>
</clipPath>
</defs>
</svg>
