<svg width="691" height="649" viewBox="0 0 691 649" fill="none" xmlns="http://www.w3.org/2000/svg">
<g clip-path="url(#clip0_13_336)">
<path d="M77.8002 479.671C90.8994 479.671 101.518 469.047 101.518 455.941C101.518 442.836 90.8994 432.212 77.8002 432.212C64.7011 432.212 54.0822 442.836 54.0822 455.941C54.0822 469.047 64.7011 479.671 77.8002 479.671Z" fill="#E0E0E0"/>
<path d="M140.826 472.327C150.089 463.06 150.089 448.036 140.826 438.769C131.564 429.502 116.546 429.502 107.284 438.769C98.0212 448.036 98.0212 463.06 107.284 472.327C116.546 481.594 131.564 481.594 140.826 472.327Z" fill="#EBEBEB"/>
<path d="M48.3255 472.319C57.5947 463.059 57.5947 448.045 48.3255 438.785C39.0564 429.525 24.0281 429.525 14.7589 438.785C5.48968 448.045 5.48968 463.059 14.7589 472.319C24.028 481.579 39.0564 481.579 48.3255 472.319Z" fill="#EBEBEB"/>
<path d="M0 460.653H154.919C154.919 460.653 153.37 524.556 111.743 532.368L111.077 545.899H41.3633V532.089C41.3633 532.089 0 521.55 0 460.653Z" fill="#E0E0E0"/>
<path d="M111.727 532.368C111.727 532.601 95.9103 532.771 76.406 532.771C56.9017 532.771 41.0845 532.601 41.0845 532.368C41.0845 532.136 56.9017 531.965 76.406 531.965C95.9103 531.965 111.727 532.151 111.727 532.368Z" fill="white"/>
<path d="M148.908 493.573C148.908 493.573 148.567 493.574 147.917 493.698L144.989 493.945C141.233 494.312 137.444 494.129 133.741 493.403C131.055 492.86 128.489 491.836 126.166 490.381C123.384 488.627 121.159 486.116 119.752 483.143C119.009 481.459 118.639 479.635 118.668 477.795C118.734 475.818 119.416 473.91 120.62 472.34C121.264 471.514 122.091 470.851 123.037 470.402C124.014 469.989 125.083 469.844 126.135 469.984C127.227 470.198 128.259 470.651 129.156 471.31C130.053 471.969 130.794 472.818 131.325 473.797C132.395 475.867 132.713 478.245 132.223 480.523C131.745 482.859 130.842 485.086 129.559 487.095C126.823 491.366 122.772 494.631 118.017 496.394C112.924 498.284 107.317 498.251 102.246 496.301C99.6034 495.289 97.1674 493.803 95.0582 491.915C92.8039 490.029 91.1149 487.556 90.1783 484.77C89.7449 483.298 89.7449 481.732 90.1783 480.26C90.6139 478.726 91.6388 477.428 93.0288 476.648C94.4833 476.003 96.1073 475.844 97.6592 476.196C99.2112 476.548 100.608 477.391 101.642 478.601C103.651 481.036 104.905 484.004 105.252 487.141C105.732 490.279 105.638 493.477 104.973 496.58C103.659 503.011 100.107 508.767 94.9498 512.824C92.3044 514.852 89.2814 516.333 86.0574 517.179C82.7828 517.997 79.3883 518.222 76.0342 517.845C69.2999 517.171 63.077 513.95 58.6368 508.84C56.4652 506.333 54.9954 503.296 54.3765 500.037C53.784 496.772 54.496 493.405 56.3595 490.66C57.2221 489.273 58.4253 488.13 59.8545 487.341C61.2837 486.551 62.8912 486.141 64.5237 486.149C66.1303 486.238 67.6839 486.755 69.0239 487.646C70.3639 488.537 71.4417 489.77 72.1457 491.218C72.7981 492.681 72.908 494.33 72.4556 495.867C71.998 497.367 71.1538 498.719 70.0079 499.789C67.7809 501.806 65.0783 503.225 62.1535 503.911C56.7875 505.383 51.1327 505.443 45.7369 504.085C40.3411 502.727 35.3873 499.998 31.3556 496.162C29.5083 494.355 28.0803 492.165 27.1728 489.745C26.3036 487.388 26.158 484.824 26.7545 482.383C27.2835 480.003 28.6326 477.885 30.5655 476.4C32.4706 475.049 34.8264 474.494 37.1341 474.85C39.345 475.125 41.3677 476.234 42.7886 477.95C44.1121 479.583 44.8486 481.614 44.88 483.716C44.8878 485.698 44.2517 487.629 43.0675 489.218C41.9664 490.684 40.5806 491.913 38.9931 492.83C36.1598 494.439 33.0989 495.61 29.9149 496.301C27.2694 496.934 24.5827 497.38 21.8746 497.634C18.1248 498.014 14.3463 498.014 10.5965 497.634C8.04031 497.34 6.70801 497.045 6.70801 497.045C6.70801 497.045 7.04883 497.045 7.71498 497.154C8.38113 497.262 9.34163 497.355 10.612 497.464C14.3498 497.795 18.1107 497.769 21.8436 497.386C24.5313 497.101 27.1968 496.635 29.8219 495.991C32.9594 495.307 35.9739 494.147 38.7607 492.551C40.2943 491.659 41.6326 490.468 42.6957 489.048C43.8074 487.541 44.3999 485.713 44.3843 483.84C44.3402 481.855 43.6371 479.941 42.3858 478.4C41.0441 476.797 39.1457 475.761 37.0721 475.501C34.8838 475.195 32.6619 475.75 30.8753 477.051C29.0749 478.464 27.8208 480.458 27.3277 482.693C26.7622 485.017 26.9079 487.458 27.746 489.699C28.6281 492.034 30.0079 494.15 31.7894 495.898C35.7538 499.623 40.6089 502.265 45.8884 503.571C51.1679 504.876 56.6943 504.801 61.9366 503.353C64.7342 502.691 67.3189 501.332 69.4501 499.401C70.4977 498.424 71.272 497.19 71.6965 495.821C72.0973 494.446 71.9929 492.972 71.4021 491.667C70.7682 490.341 69.7895 489.209 68.5685 488.391C67.3474 487.573 65.929 487.099 64.4618 487.017C62.9763 486.958 61.506 487.335 60.2325 488.102C58.9266 488.875 57.8139 489.935 56.9792 491.202C55.2343 493.781 54.5723 496.943 55.1356 500.006C55.7395 503.121 57.1497 506.023 59.2255 508.422C63.5341 513.372 69.5676 516.493 76.0962 517.148C79.3521 517.507 82.646 517.287 85.8251 516.497C88.9461 515.666 91.873 514.228 94.4385 512.266C99.501 508.286 102.969 502.621 104.214 496.301C104.863 493.29 104.957 490.186 104.493 487.141C104.162 484.16 102.985 481.337 101.1 479.004C100.177 477.907 98.9242 477.137 97.5282 476.81C96.1322 476.483 94.668 476.617 93.3541 477.191C92.1534 477.859 91.2632 478.972 90.8754 480.291C90.4803 481.626 90.4803 483.047 90.8754 484.382C91.78 487.034 93.3862 489.391 95.523 491.202C97.5746 493.023 99.9357 494.461 102.494 495.449C107.41 497.388 112.863 497.465 117.831 495.666C122.457 493.947 126.402 490.777 129.078 486.63C130.331 484.696 131.213 482.547 131.681 480.291C132.151 478.148 131.866 475.908 130.875 473.951C130.391 473.045 129.712 472.256 128.887 471.642C128.062 471.029 127.112 470.605 126.104 470.402C125.134 470.253 124.142 470.377 123.238 470.759C122.371 471.172 121.608 471.776 121.007 472.526C119.856 474.006 119.2 475.812 119.133 477.687C119.09 479.455 119.434 481.211 120.14 482.833C121.491 485.738 123.64 488.2 126.336 489.931C128.603 491.413 131.124 492.464 133.772 493.031C137.445 493.785 141.205 494.02 144.942 493.728L147.855 493.558C148.567 493.574 148.908 493.573 148.908 493.573Z" fill="white"/>
<path d="M614.904 187.122C614.3 189.153 603.982 205.427 589.094 210.96C574.207 216.493 563.145 222.616 567.282 229.9C571.418 237.185 589.699 233.217 589.699 233.217C589.699 233.217 552.596 273.515 587.53 296.625C630.117 324.756 674.672 224.104 674.672 224.104L614.904 187.122Z" fill="#EBEBEB"/>
<path d="M667.607 237.913C667.499 238.099 653.463 229.73 636.252 219.221C619.04 208.713 605.19 200.018 605.268 199.832C605.345 199.646 619.427 208.015 636.623 218.524C653.819 229.032 667.731 237.727 667.607 237.913Z" fill="#E0E0E0"/>
<path d="M661.023 249.987C660.899 250.173 645.733 241.261 627.142 230.102C608.552 218.942 593.572 209.705 593.68 209.519C593.789 209.333 608.971 218.229 627.561 229.404C646.151 240.579 661.132 249.863 661.023 249.987Z" fill="#E0E0E0"/>
<path d="M653.06 261.426C652.952 261.612 635.911 251.584 615.028 239.029C594.145 226.475 577.29 216.137 577.398 215.951C577.506 215.765 594.547 225.778 615.446 238.332C636.345 250.886 653.169 261.224 653.06 261.426Z" fill="#E0E0E0"/>
<path d="M643.13 275.577C643.006 275.763 629.807 267.703 613.695 257.582C597.584 247.461 584.524 239.107 584.648 238.983C584.772 238.859 597.956 246.856 614.083 256.977C630.21 267.098 643.239 275.391 643.13 275.577Z" fill="#E0E0E0"/>
<path d="M631.449 289.231C631.325 289.417 619.056 281.482 603.998 271.516C588.939 261.55 576.871 253.304 577.073 253.118C577.274 252.932 589.466 260.868 604.524 270.849C619.582 280.831 631.573 289.045 631.449 289.231Z" fill="#E0E0E0"/>
<path d="M616.546 298.717C615.899 298.49 615.276 298.199 614.687 297.849C613.51 297.229 611.836 296.299 609.776 295.152C605.655 292.843 600.047 289.51 593.974 285.62C587.901 281.73 582.526 278.01 578.699 275.236C576.794 273.841 575.26 272.694 574.222 271.888C573.658 271.502 573.139 271.055 572.673 270.555C573.29 270.853 573.877 271.211 574.424 271.624L579.071 274.724C582.975 277.375 588.366 281.017 594.455 284.907C600.543 288.798 606.073 292.192 610.117 294.641L614.888 297.539C615.477 297.879 616.032 298.273 616.546 298.717Z" fill="#E0E0E0"/>
<path d="M581.612 234.147C578.665 233.391 575.879 232.11 573.386 230.365C570.751 228.848 568.415 226.862 566.492 224.507C566.647 224.321 569.59 227.048 573.819 229.683C578.049 232.318 581.72 233.915 581.612 234.147Z" fill="#E0E0E0"/>
<path d="M671.852 221.965C671.72 222.283 671.542 222.581 671.325 222.848L669.668 225.251C668.227 227.343 666.089 230.334 663.471 233.992C658.126 241.339 650.582 251.367 641.968 262.216C633.355 273.066 625.283 282.691 619.35 289.572C616.391 293.013 613.959 295.772 612.255 297.648C611.449 298.531 610.798 299.197 610.287 299.802C610.071 300.069 609.826 300.314 609.559 300.53C609.731 300.236 609.933 299.961 610.163 299.709L612.022 297.446L618.901 289.231C624.726 282.272 632.704 272.585 641.317 261.751C649.931 250.917 657.537 240.936 663.006 233.682L669.482 225.096L671.248 222.786C671.427 222.497 671.629 222.222 671.852 221.965V221.965Z" fill="#E0E0E0"/>
<path d="M659.784 213.394C659.954 213.533 645.159 232.845 626.74 256.528C608.32 280.211 593.246 299.306 593.06 299.167C592.874 299.027 607.684 279.73 626.104 256.032C644.524 232.334 659.613 213.254 659.784 213.394Z" fill="#E0E0E0"/>
<path d="M642.944 203.846C642.813 204.18 642.652 204.502 642.464 204.807L640.915 207.473C639.582 209.782 637.568 213.084 634.981 217.083C629.807 225.096 622.123 235.806 613.06 247.198C603.998 258.589 595.43 268.587 589.249 275.84L581.891 284.38L579.846 286.69C579.621 286.964 579.372 287.218 579.102 287.449C579.288 287.146 579.495 286.856 579.722 286.581L581.643 284.179L588.815 275.468C594.888 268.122 603.378 258.063 612.425 246.686C621.472 235.31 629.218 224.677 634.501 216.757C637.15 212.805 639.226 209.565 640.698 207.302L642.34 204.714C642.508 204.403 642.71 204.112 642.944 203.846Z" fill="#E0E0E0"/>
<path d="M629.125 195.926C629.296 196.065 616.732 212.758 600.961 233.217C585.19 253.676 572.425 270.152 572.162 270.012C571.898 269.873 584.555 253.18 600.326 232.706C616.097 212.231 628.94 195.786 629.125 195.926Z" fill="#E0E0E0"/>
<path d="M618.73 189.153C618.345 189.93 617.9 190.677 617.398 191.385C616.964 192.082 616.391 192.935 615.694 193.896C614.997 194.857 614.222 195.972 613.262 197.119C611.077 199.839 608.734 202.427 606.244 204.869C600.125 210.905 593.164 216.021 585.578 220.058C582.486 221.699 579.299 223.153 576.035 224.414C574.656 224.987 573.355 225.375 572.239 225.762C571.284 226.106 570.312 226.401 569.327 226.645C568.501 226.907 567.657 227.109 566.802 227.25C567.584 226.88 568.398 226.579 569.234 226.351C570.024 226.088 570.984 225.778 572.084 225.344C573.184 224.91 574.47 224.491 575.818 223.887C579.028 222.557 582.166 221.062 585.221 219.407C588.948 217.347 592.544 215.06 595.988 212.557C599.405 210.019 602.659 207.271 605.733 204.327C608.233 201.914 610.597 199.363 612.812 196.685C613.804 195.57 614.594 194.485 615.322 193.586C616.05 192.687 616.67 191.834 617.15 191.152C617.617 190.44 618.145 189.771 618.73 189.153Z" fill="#E0E0E0"/>
<path d="M690.984 166.911H492.89V187.835H690.984V166.911Z" fill="#E0E0E0"/>
<path d="M555.694 187.122C555.09 189.153 544.772 205.427 529.884 210.96C514.997 216.493 503.935 222.616 508.072 229.9C512.208 237.185 530.489 233.217 530.489 233.217C530.489 233.217 493.386 273.515 528.32 296.625C570.907 324.756 615.415 224.104 615.415 224.104L555.694 187.122Z" fill="#F5F5F5"/>
<path d="M608.397 237.913C608.289 238.099 594.253 229.73 577.042 219.221C559.83 208.713 545.98 200.018 546.058 199.832C546.135 199.646 560.217 208.015 577.413 218.524C594.609 229.032 608.521 237.727 608.397 237.913Z" fill="#E0E0E0"/>
<path d="M601.86 249.987C601.736 250.173 586.569 241.261 567.979 230.102C549.389 218.942 534.362 209.705 534.47 209.565C534.578 209.426 549.76 218.276 568.351 229.451C586.941 240.626 601.86 249.863 601.86 249.987Z" fill="#E0E0E0"/>
<path d="M593.85 261.426C593.742 261.612 576.701 251.584 555.818 239.029C534.935 226.475 518.08 216.137 518.203 215.951C518.327 215.765 535.353 225.778 556.252 238.332C577.15 250.886 593.959 261.224 593.85 261.426Z" fill="#E0E0E0"/>
<path d="M583.92 275.577C583.796 275.763 570.597 267.703 554.485 257.582C538.374 247.461 525.314 239.107 525.438 238.983C525.562 238.859 538.746 246.856 554.873 256.977C571 267.098 584.028 275.391 583.92 275.577Z" fill="#E0E0E0"/>
<path d="M572.239 289.231C572.115 289.417 559.846 281.482 544.788 271.516C529.729 261.55 517.661 253.304 517.785 253.118C517.909 252.932 530.179 260.868 545.237 270.849C560.295 280.831 572.425 289.045 572.239 289.231Z" fill="#E0E0E0"/>
<path d="M557.336 298.717C556.689 298.49 556.066 298.199 555.477 297.849C554.3 297.229 552.627 296.299 550.566 295.152C546.445 292.843 540.837 289.51 534.764 285.62C528.691 281.73 523.316 278.01 519.489 275.236C517.584 273.841 516.05 272.694 515.012 271.888C514.448 271.502 513.929 271.055 513.463 270.555C514.08 270.853 514.667 271.211 515.213 271.624L519.861 274.724C523.765 277.375 529.156 281.017 535.245 284.907C541.333 288.798 546.864 292.192 550.891 294.641L555.678 297.539C556.267 297.879 556.822 298.273 557.336 298.717V298.717Z" fill="#E0E0E0"/>
<path d="M522.402 234.147C519.455 233.391 516.669 232.11 514.176 230.365C511.541 228.848 509.205 226.862 507.282 224.507C507.437 224.321 510.38 227.048 514.609 229.683C518.839 232.318 522.495 233.915 522.402 234.147Z" fill="#E0E0E0"/>
<path d="M612.704 221.965C612.572 222.283 612.394 222.581 612.177 222.848L610.519 225.251C609.079 227.343 606.941 230.334 604.323 233.992C598.978 241.339 591.433 251.367 582.82 262.216C574.207 273.066 566.011 282.722 560.031 289.603C557.073 293.044 554.64 295.803 552.936 297.679C552.131 298.562 551.48 299.228 550.969 299.833C550.752 300.1 550.508 300.345 550.241 300.561C550.412 300.267 550.615 299.992 550.845 299.74L552.704 297.477L559.598 289.231C565.423 282.272 573.401 272.585 582.014 261.751C590.628 250.917 598.234 240.936 603.703 233.682L610.179 225.096L611.945 222.786C612.174 222.491 612.428 222.216 612.704 221.965V221.965Z" fill="#E0E0E0"/>
<path d="M600.574 213.394C600.744 213.533 585.95 232.845 567.53 256.528C549.11 280.211 534.036 299.306 533.85 299.167C533.664 299.027 548.475 279.73 566.895 256.032C585.314 232.334 600.404 213.254 600.574 213.394Z" fill="#E0E0E0"/>
<path d="M583.734 203.846C583.603 204.18 583.442 204.502 583.254 204.807L581.705 207.473C580.372 209.782 578.358 213.084 575.771 217.083C570.597 225.096 562.913 235.806 553.85 247.198C544.788 258.589 536.221 268.587 530.039 275.84L522.681 284.38L520.636 286.69C520.411 286.964 520.162 287.218 519.892 287.449C520.071 287.141 520.279 286.85 520.512 286.581L522.433 284.179L529.605 275.468C535.678 268.122 544.168 258.063 553.215 246.686C562.262 235.31 570.008 224.677 575.291 216.757C577.94 212.805 580.016 209.565 581.488 207.302C582.154 206.233 582.712 205.381 583.13 204.714C583.298 204.403 583.5 204.112 583.734 203.846V203.846Z" fill="#E0E0E0"/>
<path d="M569.915 195.926C570.086 196.065 557.522 212.758 541.751 233.217C525.98 253.676 513.138 270.152 512.952 270.012C512.766 269.873 525.345 253.18 541.116 232.706C556.887 212.231 569.729 195.786 569.915 195.926Z" fill="#E0E0E0"/>
<path d="M559.52 189.153C559.135 189.93 558.69 190.677 558.188 191.385C557.754 192.082 557.181 192.935 556.484 193.896C555.787 194.857 555.012 195.972 554.052 197.119C551.867 199.839 549.524 202.427 547.034 204.869C540.915 210.905 533.954 216.021 526.368 220.058C523.275 221.696 520.088 223.15 516.825 224.414C515.446 224.987 514.145 225.375 513.029 225.762C512.074 226.106 511.102 226.401 510.117 226.645C509.291 226.907 508.447 227.109 507.591 227.25C508.374 226.88 509.188 226.579 510.024 226.351C510.814 226.088 511.774 225.778 512.874 225.344C513.974 224.91 515.26 224.491 516.608 223.887C519.817 222.557 522.956 221.062 526.011 219.407C529.74 217.383 533.341 215.131 536.794 212.665C540.21 210.128 543.465 207.379 546.538 204.435C549.039 202.022 551.402 199.471 553.618 196.794C554.609 195.678 555.4 194.593 556.128 193.694C556.856 192.795 557.46 191.943 557.94 191.261C558.404 190.513 558.933 189.808 559.52 189.153Z" fill="#E0E0E0"/>
<path d="M598.405 62.1985H585.733V74.8769H598.405V62.1985Z" fill="#E0E0E0"/>
<path d="M651.387 91.7401H533.308V166.291H651.387V91.7401Z" fill="#F5F5F5"/>
<path d="M533.308 91.771C533.308 91.771 551.387 72.8775 596.716 73.6369C642.046 74.3964 651.434 91.771 651.434 91.771H533.308Z" fill="#F5F5F5"/>
<path d="M650.938 92.9645C650.938 93.1815 624.385 93.3675 591.651 93.3675C558.916 93.3675 532.363 93.1815 532.363 92.9645C532.363 92.7475 558.901 92.546 591.651 92.546C624.4 92.546 650.938 92.732 650.938 92.9645Z" fill="#E0E0E0"/>
<path d="M650.938 92.9955H677.615C678.749 92.9955 679.836 93.4462 680.638 94.2484C681.44 95.0507 681.891 96.1387 681.891 97.2733V98.8852C681.891 100.02 681.44 101.108 680.638 101.91C679.836 102.712 678.749 103.163 677.615 103.163H650.938V92.9955Z" fill="#E0E0E0"/>
<path d="M533.742 103.163H507.065C505.931 103.163 504.843 102.712 504.041 101.91C503.239 101.108 502.789 100.02 502.789 98.8852V97.2423C502.789 96.1077 503.239 95.0196 504.041 94.2174C504.843 93.4152 505.931 92.9645 507.065 92.9645H533.742V103.178V103.163Z" fill="#E0E0E0"/>
<path d="M605.268 58.5562H579.443C577.749 58.5562 576.375 59.9301 576.375 61.625V62.803C576.375 64.4978 577.749 65.8718 579.443 65.8718H605.268C606.962 65.8718 608.335 64.4978 608.335 62.803V61.625C608.335 59.9301 606.962 58.5562 605.268 58.5562Z" fill="#E0E0E0"/>
<path d="M686.29 545.542C686.29 545.759 533.339 545.945 344.71 545.945C156.081 545.945 3.09839 545.759 3.09839 545.542C3.09839 545.325 156.019 545.14 344.71 545.14C533.401 545.14 686.29 545.325 686.29 545.542Z" fill="#263238"/>
<path d="M459.21 318.928C458.591 321.578 445.407 441.667 445.407 441.667L433.478 458.638L430.241 484.615L455.028 545.945H271.635C271.635 545.945 268.738 513.537 268.986 504.872C269.233 496.208 273.633 464.419 273.633 464.419L273.215 432.135L266.275 291.417L328.397 271.361C365.934 264.898 421.178 293.06 421.178 293.06L459.21 318.928Z" fill="#2DBF90"/>
<path d="M435.384 229.42C443.548 228.908 449.807 222.089 454.3 215.254C458.513 208.868 462.046 201.707 462.138 194.066C462.138 187.432 459.536 181.109 456.933 175.002C454.331 168.895 451.527 162.355 447.328 156.976C443.13 151.598 437.181 147.227 430.396 146.39" fill="#263238"/>
<path d="M339.954 261.426L340.047 259.395L344.834 142.144L347.483 135.494L406.104 127.419C410.649 127.065 415.219 127.636 419.537 129.097C423.855 130.559 427.833 132.88 431.229 135.922C434.626 138.964 437.371 142.663 439.299 146.796C441.228 150.929 442.299 155.409 442.448 159.968C443.192 181.31 443.285 207.395 440.31 223.22C434.361 254.963 409.76 258.357 409.76 258.357C409.76 258.357 409.342 266.68 408.877 278.723C408.536 287.806 400.512 314.015 391.418 314.278C387.514 314.387 376.856 310.992 371.774 310.248C339.722 305.568 339.954 261.426 339.954 261.426Z" fill="#FFBE9D"/>
<path d="M431.619 178.474C431.603 179.543 431.169 180.563 430.411 181.316C429.652 182.069 428.629 182.496 427.561 182.504C427.038 182.531 426.516 182.453 426.024 182.275C425.532 182.097 425.081 181.822 424.697 181.466C424.313 181.111 424.004 180.682 423.788 180.206C423.572 179.729 423.453 179.214 423.44 178.691C423.456 177.622 423.89 176.601 424.648 175.848C425.407 175.095 426.43 174.669 427.499 174.661C428.021 174.634 428.543 174.712 429.035 174.89C429.527 175.068 429.978 175.343 430.363 175.698C430.747 176.054 431.056 176.482 431.271 176.959C431.487 177.436 431.606 177.951 431.619 178.474V178.474Z" fill="#263238"/>
<path d="M436.422 173.282C435.895 173.809 432.859 171.422 428.444 171.313C424.028 171.205 420.698 173.313 420.279 172.755C420.047 172.522 420.589 171.561 422.03 170.585C423.971 169.308 426.262 168.669 428.583 168.756C430.878 168.81 433.096 169.592 434.919 170.988C436.236 172.073 436.67 173.049 436.422 173.282Z" fill="#263238"/>
<path d="M388.475 178.055C388.458 179.124 388.025 180.145 387.266 180.898C386.507 181.651 385.484 182.077 384.416 182.085C383.893 182.112 383.371 182.034 382.879 181.856C382.387 181.678 381.936 181.403 381.552 181.048C381.168 180.693 380.859 180.264 380.643 179.787C380.427 179.311 380.309 178.795 380.295 178.272C380.311 177.203 380.745 176.183 381.503 175.43C382.262 174.677 383.285 174.251 384.354 174.243C384.876 174.215 385.399 174.293 385.89 174.471C386.382 174.65 386.834 174.924 387.218 175.28C387.602 175.635 387.911 176.064 388.127 176.54C388.342 177.017 388.461 177.532 388.475 178.055V178.055Z" fill="#263238"/>
<path d="M393.06 172.91C392.533 173.437 389.481 171.05 385.082 170.941C380.682 170.833 377.336 172.941 376.918 172.383C376.685 172.15 377.227 171.189 378.668 170.213C380.608 168.934 382.9 168.295 385.221 168.384C387.516 168.438 389.735 169.22 391.557 170.616C392.874 171.701 393.308 172.677 393.06 172.91Z" fill="#263238"/>
<path d="M408.211 206.062C408.211 205.815 410.953 205.412 415.415 204.978C416.546 204.885 417.615 204.683 417.832 203.924C417.952 202.761 417.72 201.589 417.165 200.56L414.067 191.896C409.791 179.497 406.708 169.422 407.22 169.252C407.731 169.081 411.588 178.954 415.88 191.292C416.902 194.392 417.894 197.228 418.823 200.002C419.5 201.383 419.664 202.96 419.288 204.451C419.108 204.834 418.845 205.172 418.518 205.44C418.191 205.708 417.808 205.9 417.398 206C416.769 206.151 416.123 206.219 415.477 206.202C410.938 206.372 408.211 206.31 408.211 206.062Z" fill="#263238"/>
<path d="M409.76 258.357C394.708 258.169 380.003 253.807 367.282 245.756C367.282 245.756 377.057 267.997 409.11 265.905L409.76 258.357Z" fill="#EB996E"/>
<path d="M405.996 216.648C405.182 215.578 404.11 214.732 402.879 214.189C401.649 213.647 400.301 213.427 398.962 213.549C397.986 213.61 397.032 213.866 396.157 214.303C395.281 214.739 394.502 215.347 393.866 216.091C393.263 216.814 392.894 217.705 392.808 218.643C392.723 219.581 392.924 220.523 393.385 221.345C394.078 222.145 394.994 222.719 396.015 222.995C397.036 223.272 398.116 223.236 399.117 222.895C401.223 222.219 403.172 221.128 404.849 219.686C405.355 219.349 405.791 218.917 406.135 218.415C406.3 218.173 406.389 217.887 406.389 217.594C406.389 217.301 406.3 217.015 406.135 216.772" fill="#EB996E"/>
<path d="M395.09 208.759C395.818 208.759 395.694 213.518 399.737 217.036C403.78 220.554 408.846 220.136 408.877 220.833C408.877 221.128 407.715 221.732 405.547 221.732C402.743 221.697 400.043 220.67 397.925 218.834C395.886 217.074 394.614 214.589 394.377 211.906C394.268 209.891 394.764 208.728 395.09 208.759Z" fill="#263238"/>
<path d="M394.671 155.659C394.206 156.837 389.822 156.155 384.632 156.635C379.443 157.116 375.213 158.402 374.563 157.317C374.268 156.79 375.028 155.767 376.747 154.574C379.037 153.213 381.607 152.391 384.261 152.171C386.916 151.951 389.586 152.338 392.069 153.303C393.943 154.125 394.873 155.085 394.671 155.659Z" fill="#263238"/>
<path d="M435.152 160.464C434.346 161.456 431.341 160.324 427.684 160.185C424.028 160.045 420.914 160.665 420.233 159.596C419.939 159.084 420.45 158.046 421.782 157.178C423.63 156.093 425.759 155.58 427.899 155.704C430.038 155.828 432.093 156.584 433.804 157.875C435.105 158.945 435.508 159.968 435.152 160.464Z" fill="#263238"/>
<path d="M339.644 177.978C333.422 181.794 327.964 186.735 323.548 192.547C318.467 198.917 315.167 207.163 316.437 215.223C318.188 226.397 327.87 234.333 336.871 241.184C342.045 241.928 345.903 236.209 346.708 231.032C347.514 225.855 346.801 220.26 349.249 215.626C351.449 211.472 355.787 208.93 358.684 205.226C364.075 198.344 363.718 188.657 362.402 180.008C361.085 171.36 362.402 158.309 373.509 145.91C373.509 146.018 346.491 156.573 339.644 177.978Z" fill="#263238"/>
<path d="M330.07 206.76C334.718 200.049 333.54 190.207 328.165 183.992C322.789 177.776 314.113 175.079 305.934 175.777C299.985 176.288 293.959 178.629 290.117 183.201C286.275 187.773 285.113 194.825 288.304 199.878C290.07 202.668 293.137 205.303 292.44 208.542C291.743 211.782 288.072 212.82 285.469 214.649C283.233 216.329 281.582 218.669 280.748 221.339C279.914 224.009 279.94 226.874 280.821 229.528C281.785 232.148 283.393 234.483 285.497 236.317C287.601 238.151 290.133 239.425 292.859 240.021C298.37 241.133 304.098 240.102 308.877 237.138C308.877 242.114 314.222 245.911 319.164 245.493C324.106 245.074 328.304 241.463 330.953 237.262C334.512 231.168 336.204 224.161 335.818 217.113C335.43 210.102 334.356 203.146 332.611 196.344" fill="#263238"/>
<path d="M338.25 242.703C337.987 242.581 337.742 242.425 337.522 242.238L335.508 240.781C333.788 239.494 331.294 237.681 328.397 235.077C324.947 232.132 321.9 228.744 319.334 225.003C316.157 220.368 314.318 214.946 314.02 209.333C313.887 206.419 314.346 203.509 315.368 200.777C316.364 198.247 317.837 195.932 319.706 193.958C322.943 190.792 326.517 187.99 330.364 185.603C332.89 183.943 335.297 182.11 337.568 180.117C338.358 179.388 338.947 178.799 339.334 178.381C339.519 178.163 339.727 177.965 339.954 177.792C339.954 177.792 339.799 178.055 339.443 178.489C338.935 179.143 338.381 179.759 337.785 180.334C335.583 182.443 333.209 184.366 330.69 186.084C326.93 188.517 323.43 191.332 320.248 194.485C318.459 196.394 317.054 198.63 316.112 201.072C315.138 203.707 314.701 206.511 314.826 209.317C315.106 214.778 316.862 220.059 319.907 224.6C322.417 228.311 325.383 231.69 328.738 234.659C331.573 237.231 334.005 239.169 335.663 240.533L337.568 242.083C337.817 242.264 338.045 242.472 338.25 242.703V242.703Z" fill="#455A64"/>
<path d="M315.477 202.25C315.337 202.327 314.532 200.607 312.487 198.437C309.869 195.564 306.455 193.536 302.681 192.611C298.907 191.686 294.942 191.907 291.294 193.245C288.49 194.237 286.972 195.368 286.894 195.244C286.817 195.12 287.204 194.888 287.901 194.392C288.904 193.72 289.973 193.153 291.092 192.702C294.83 191.178 298.953 190.875 302.873 191.835C306.793 192.795 310.31 194.97 312.921 198.049C313.71 198.963 314.396 199.961 314.966 201.025C315.206 201.401 315.379 201.815 315.477 202.25V202.25Z" fill="#455A64"/>
<path d="M290.612 210.743C290.519 210.743 291.092 209.193 293.184 207.891C294.403 207.168 295.749 206.684 297.15 206.465C298.836 206.206 300.542 206.107 302.247 206.171C305.333 206.255 308.395 206.739 311.356 207.612C312.602 207.897 313.794 208.378 314.888 209.038C313.644 208.812 312.413 208.517 311.201 208.155C308.253 207.464 305.243 207.069 302.216 206.977C299.225 206.691 296.212 207.176 293.463 208.387C292.396 209.02 291.435 209.815 290.612 210.743Z" fill="#455A64"/>
<path d="M285.283 236.069C285.283 235.93 287.498 235.976 290.984 235.294C295.503 234.417 299.792 232.612 303.579 229.993C307.328 227.325 310.491 223.918 312.874 219.981C314.702 216.958 315.43 214.851 315.57 214.913C315.503 215.446 315.362 215.968 315.151 216.463C314.656 217.792 314.061 219.083 313.37 220.322C311.08 224.442 307.882 227.988 304.02 230.689C300.158 233.391 295.732 235.177 291.077 235.914C289.678 236.133 288.264 236.242 286.848 236.24C286.32 236.275 285.791 236.217 285.283 236.069V236.069Z" fill="#455A64"/>
<path d="M317.026 201.816C317.026 201.738 317.971 202.653 319.923 203.722C322.719 205.179 325.853 205.864 329.001 205.706C331.158 205.63 333.289 205.222 335.322 204.497C337.652 203.623 339.827 202.383 341.766 200.824C346.146 197.133 349.632 192.496 351.96 187.262C354.254 181.99 356.22 176.58 357.847 171.065C359.224 166.539 360.943 162.124 362.99 157.86C364.383 154.982 366.115 152.282 368.149 149.816C368.877 148.963 369.481 148.266 369.915 147.909C370.123 147.692 370.352 147.495 370.597 147.32C370.597 147.32 369.76 148.25 368.397 150.017C366.481 152.531 364.84 155.244 363.502 158.108C361.538 162.379 359.887 166.787 358.56 171.298C356.964 176.856 355.003 182.303 352.688 187.603C350.315 192.956 346.73 197.684 342.216 201.413C340.211 203.001 337.961 204.252 335.554 205.117C333.451 205.849 331.244 206.242 329.017 206.28C325.764 206.403 322.543 205.608 319.722 203.986C319.277 203.748 318.857 203.468 318.467 203.149C318.163 202.942 317.877 202.709 317.615 202.451C317.399 202.258 317.202 202.045 317.026 201.816V201.816Z" fill="#455A64"/>
<path d="M362.495 173.018C362.572 173.018 361.937 173.948 361.224 175.761C360.307 178.35 359.785 181.062 359.675 183.806C359.593 187.931 359.132 192.04 358.296 196.081C356.92 201.029 354.092 205.451 350.179 208.775C346.305 212.163 341.466 214.25 336.344 214.742C332.189 215.102 328.008 214.459 324.152 212.867C321.564 211.812 319.175 210.323 317.088 208.465C316.538 207.983 316.02 207.465 315.539 206.915C315.35 206.728 315.184 206.52 315.043 206.295C315.12 206.295 315.818 207.07 317.336 208.279C319.46 210.023 321.85 211.415 324.416 212.402C328.202 213.879 332.283 214.447 336.329 214.06C341.283 213.546 345.955 211.504 349.698 208.217C353.497 204.999 356.257 200.728 357.63 195.941C358.494 191.953 359.012 187.898 359.179 183.821C359.35 181.033 359.968 178.291 361.007 175.699C361.318 175.006 361.68 174.338 362.092 173.7C362.199 173.458 362.335 173.229 362.495 173.018V173.018Z" fill="#455A64"/>
<path d="M454.299 213.177C454.299 213.177 454.826 212.696 455.647 211.751C456.827 210.414 457.746 208.868 458.358 207.194C459.27 204.718 459.645 202.076 459.458 199.444C459.182 196.203 458.282 193.045 456.809 190.145C453.711 183.945 449.528 179.187 446.755 175.56C445.653 174.12 444.649 172.608 443.75 171.034C443.387 170.473 443.095 169.869 442.882 169.236C443.312 169.746 443.69 170.296 444.013 170.879C444.71 171.933 445.779 173.437 447.204 175.203C450.055 178.722 454.408 183.449 457.537 189.788C459.052 192.762 459.958 196.008 460.202 199.336C460.364 202.065 459.92 204.797 458.901 207.333C458.187 209.046 457.132 210.597 455.802 211.89C455.449 212.233 455.071 212.549 454.671 212.836C454.47 213.115 454.315 213.208 454.299 213.177Z" fill="#455A64"/>
<path d="M449.714 222.259C451.251 220.605 452.54 218.736 453.54 216.71C454.542 214.488 455.069 212.081 455.09 209.643C455.089 206.652 454.477 203.693 453.293 200.948C452.059 198.191 450.662 195.51 449.11 192.919C447.762 190.47 446.6 188.269 445.655 186.332C444.71 184.395 443.997 182.891 443.533 181.806C443.247 181.257 443.033 180.674 442.898 180.07C443.249 180.558 443.555 181.077 443.812 181.62L446.166 186.022C447.173 187.882 448.382 190.083 449.76 192.516C451.367 195.108 452.795 197.806 454.036 200.591C455.263 203.438 455.875 206.512 455.833 209.612C455.772 212.142 455.176 214.63 454.083 216.912C453.332 218.433 452.344 219.825 451.155 221.035C450.831 221.358 450.489 221.663 450.132 221.949C449.869 222.182 449.729 222.275 449.714 222.259Z" fill="#455A64"/>
<path d="M338.126 182.085C348.738 163.967 363.579 147.119 383.997 142.237C393.964 139.773 404.329 139.378 414.453 141.076C424.578 142.774 434.248 146.529 442.867 152.11V116.384L417.382 34.0828L397.537 23.5743L350.628 50.419L338.498 149.413L338.126 182.085Z" fill="#2DBF90"/>
<g opacity="0.7">
<path opacity="0.7" d="M338.126 182.085C348.738 163.967 363.579 147.119 383.997 142.237C393.964 139.773 404.329 139.378 414.453 141.076C424.578 142.774 434.248 146.529 442.867 152.11V116.384L417.382 34.0828L397.537 23.5743L350.628 50.419L338.498 149.413L338.126 182.085Z" fill="#2DBF90"/>
</g>
<path d="M441.89 117.686C441.497 117.549 441.118 117.372 440.76 117.159C440.031 116.802 439.009 116.182 437.661 115.609C433.757 113.705 429.679 112.179 425.485 111.052C419.267 109.368 412.869 108.447 406.43 108.309C402.629 108.221 398.827 108.361 395.043 108.727C390.985 109.03 386.971 109.763 383.068 110.913C375.579 113.38 368.491 116.93 362.03 121.452C356.719 125.087 351.911 129.407 347.731 134.301C344.927 137.633 342.51 141.273 340.527 145.15C339.938 146.499 339.458 147.568 339.086 148.374C338.946 148.765 338.764 149.139 338.544 149.49C338.641 149.091 338.776 148.702 338.947 148.328C339.241 147.568 339.644 146.437 340.248 145.011C342.139 141.057 344.5 137.346 347.282 133.96C351.451 128.973 356.271 124.568 361.612 120.863C368.114 116.26 375.268 112.655 382.835 110.169C386.795 109.01 390.866 108.272 394.981 107.968C398.791 107.609 402.62 107.485 406.445 107.596C412.94 107.772 419.388 108.756 425.64 110.525C429.849 111.714 433.924 113.334 437.801 115.361C439.195 116.027 440.202 116.694 440.899 117.097C441.244 117.267 441.576 117.464 441.89 117.686V117.686Z" fill="#2DBF90"/>
<path d="M410.891 108.123C410.674 108.123 407.344 89.3532 403.471 66.1198C399.598 42.8864 396.623 24.0238 396.84 23.9928C397.057 23.9618 400.388 42.7624 404.261 65.9958C408.134 89.2292 411.108 108.092 410.891 108.123Z" fill="#263238"/>
<path d="M379.799 111.517C379.582 111.517 379.923 93.6774 380.589 71.6685C381.255 49.6596 381.952 31.8354 382.138 31.8354C382.324 31.8354 381.999 49.6906 381.348 71.6995C380.698 93.7085 380.031 111.533 379.799 111.517Z" fill="#263238"/>
<path d="M353.339 126.35C353.302 126.067 353.302 125.78 353.339 125.497C353.339 124.846 353.339 124.04 353.432 123.064C353.54 120.956 353.742 117.887 354.036 114.121C354.625 106.588 355.585 96.1728 357.134 84.6723C358.684 73.1719 360.233 62.9734 361.457 55.4407C362.107 51.7054 362.665 48.6986 363.099 46.6217C363.3 45.6607 363.471 44.8858 363.595 44.2503C363.632 43.9667 363.71 43.69 363.827 43.4288C363.861 43.7119 363.861 43.9982 363.827 44.2813C363.718 44.9168 363.61 45.7072 363.471 46.6837C363.13 48.8846 362.65 51.8759 362.092 55.5338C360.93 63.0044 359.443 73.3424 358.002 84.7808C356.561 96.2193 355.446 106.604 354.718 114.121C354.361 117.81 354.067 120.817 353.866 123.033C353.757 124.025 353.68 124.815 353.602 125.466C353.558 125.772 353.469 126.07 353.339 126.35Z" fill="#263238"/>
<path d="M415.415 114.152C415.542 115.347 415.542 116.553 415.415 117.748C415.229 120.259 415.012 123.157 414.78 126.365C414.547 129.574 414.315 132.472 414.129 134.983C414.108 136.184 413.957 137.379 413.68 138.548C413.492 137.359 413.451 136.151 413.556 134.952C413.556 132.736 413.726 129.682 413.974 126.303C414.222 122.925 414.547 119.887 414.842 117.686C414.896 116.49 415.088 115.304 415.415 114.152V114.152Z" fill="#263238"/>
<path d="M267.576 466.62C265.624 463.768 260.372 461.227 256.933 460.855C245.035 459.553 234.191 464.683 224.803 472.123L222.959 475.486C217.909 479.423 212.642 483.917 211.077 490.133C209.646 496.607 208.924 503.217 208.924 509.848C209.071 513.368 210.498 516.713 212.936 519.256C215.18 521.742 218.302 523.259 221.642 523.487C227.959 523.978 234.278 522.563 239.783 519.426C245.253 516.278 250.078 512.123 254.005 507.182C261.337 498.214 266.32 487.561 268.505 476.183C269.125 473.052 269.435 469.364 267.576 466.62Z" fill="#2DBF90"/>
<g opacity="0.4">
<path opacity="0.4" d="M267.576 466.62C265.624 463.768 260.372 461.227 256.933 460.855C245.035 459.553 234.191 464.683 224.803 472.123L222.959 475.486C217.909 479.423 212.642 483.917 211.077 490.133C209.646 496.607 208.924 503.217 208.924 509.848C209.071 513.368 210.498 516.713 212.936 519.256C215.18 521.742 218.302 523.259 221.642 523.487C227.959 523.978 234.278 522.563 239.783 519.426C245.253 516.278 250.078 512.123 254.005 507.182C261.337 498.214 266.32 487.561 268.505 476.183C269.125 473.052 269.435 469.364 267.576 466.62Z" fill="black"/>
</g>
<path d="M266.29 291.417C264.415 292.037 171.573 423.687 169.078 432.46C166.584 441.233 152.998 462.079 172.177 481.655C184.071 493.707 196.751 504.958 210.132 515.334C205.825 482.151 238.467 455.399 261.255 462.343L243.827 450.517L283.656 397.587" fill="#2DBF90"/>
<path d="M459.21 318.928C459.21 318.928 473.819 337.202 477.46 349.028C480.558 359.133 497.135 405.894 497.135 405.894L527.297 480.678C527.297 480.678 522.65 487.281 521.612 492.876C521.178 495.108 517.351 529.47 508.211 544.024L459.83 522.325L453.726 479.004L445.392 441.667L454.005 341.154L459.21 318.928Z" fill="#2DBF90"/>
<path d="M323.424 272.415C323.424 272.415 335.818 260.976 339.257 259.364C339.257 259.364 343.192 272.802 354.749 279.157C366.306 285.512 373.757 292.362 373.757 293.277V309.938C373.757 309.938 326.399 296.997 323.424 272.415Z" fill="#2DBF90"/>
<path d="M331.34 357.18L423.362 351.616L419.055 299.027L415.105 290.161L408.908 278.971C408.59 282.755 407.064 286.336 404.555 289.185C399.488 294.328 392.958 297.781 385.856 299.073L384.044 309.923L337.413 290.657C337.413 290.657 331.34 354.204 331.34 355.661" fill="#2DBF90"/>
<path d="M385.825 299.027C385.849 299.264 385.849 299.503 385.825 299.74C385.748 300.251 385.639 300.949 385.516 301.832C385.216 303.723 384.793 306.436 384.245 309.969V310.109H384.09L346.244 311.271L340.047 311.442L336.809 311.535C335.761 311.506 334.716 311.642 333.711 311.938C332.695 312.292 331.772 312.872 331.013 313.635C330.253 314.397 329.677 315.322 329.326 316.34C328.987 317.405 328.866 318.528 328.97 319.641C328.97 320.819 328.97 321.997 328.97 323.175C329.172 332.66 329.388 342.704 329.605 353.088C330.318 382.196 330.767 408.56 330.628 427.64C330.628 437.187 330.473 444.906 330.349 450.238C330.271 452.857 330.225 454.887 330.179 456.437C330.179 457.104 330.179 457.631 330.179 457.987C330.198 458.168 330.198 458.349 330.179 458.53C330.155 458.35 330.155 458.167 330.179 457.987C330.179 457.584 330.179 457.057 330.179 456.437C330.179 454.98 330.179 452.919 330.179 450.238C330.179 444.859 330.179 437.156 330.179 427.655C330.179 408.576 329.636 382.227 328.924 353.119C328.722 342.735 328.521 332.691 328.319 323.206V319.672C328.228 318.473 328.37 317.268 328.738 316.123C329.124 314.996 329.761 313.973 330.601 313.13C331.441 312.286 332.462 311.646 333.587 311.256C334.678 310.937 335.813 310.796 336.948 310.837L340.171 310.76L346.368 310.605L384.23 309.768L384.059 309.923C384.679 306.399 385.154 303.697 385.485 301.817L385.887 299.74C385.85 299.504 385.829 299.266 385.825 299.027Z" fill="#263238"/>
<path d="M339.66 334.195C341.833 334.195 343.595 332.432 343.595 330.258C343.595 328.084 341.833 326.321 339.66 326.321C337.486 326.321 335.725 328.084 335.725 330.258C335.725 332.432 337.486 334.195 339.66 334.195Z" fill="#263238"/>
<path d="M361.735 326.011C361.735 326.259 357.305 326.833 351.914 328.088C346.522 329.344 342.262 330.769 342.185 330.552C345.195 329.02 348.409 327.925 351.728 327.298C354.989 326.412 358.356 325.979 361.735 326.011Z" fill="#263238"/>
<path d="M355.059 333.838C352.741 333.482 350.445 333.001 348.18 332.397C345.862 332.044 343.566 331.563 341.302 330.955C346.047 330.849 350.754 331.836 355.059 333.838V333.838Z" fill="#263238"/>
<path d="M339.66 378.709C341.833 378.709 343.595 376.946 343.595 374.772C343.595 372.598 341.833 370.835 339.66 370.835C337.486 370.835 335.725 372.598 335.725 374.772C335.725 376.946 337.486 378.709 339.66 378.709Z" fill="#263238"/>
<path d="M361.735 370.54C361.735 370.773 357.305 371.346 351.914 372.602C346.522 373.857 342.262 375.283 342.185 375.066C345.194 373.535 348.408 372.444 351.728 371.827C354.987 370.932 358.356 370.499 361.735 370.54V370.54Z" fill="#263238"/>
<path d="M355.059 378.352C352.741 377.996 350.445 377.515 348.18 376.911C345.862 376.558 343.566 376.077 341.302 375.469C346.047 375.363 350.754 376.35 355.059 378.352V378.352Z" fill="#263238"/>
<path d="M339.66 423.222C341.833 423.222 343.595 421.46 343.595 419.286C343.595 417.111 341.833 415.349 339.66 415.349C337.486 415.349 335.725 417.111 335.725 419.286C335.725 421.46 337.486 423.222 339.66 423.222Z" fill="#263238"/>
<path d="M361.735 415.054C361.735 415.287 357.305 415.86 351.914 417.116C346.522 418.371 342.262 419.797 342.185 419.58C345.194 418.049 348.408 416.958 351.728 416.341C354.987 415.446 358.356 415.013 361.735 415.054V415.054Z" fill="#263238"/>
<path d="M355.059 422.866C352.741 422.51 350.445 422.029 348.18 421.425C345.862 421.072 343.566 420.591 341.302 419.983C343.671 419.798 346.055 420.019 348.351 420.634C350.699 420.984 352.968 421.739 355.059 422.866V422.866Z" fill="#263238"/>
<path d="M278.079 409.506C278.111 409.122 278.184 408.742 278.296 408.374C278.482 407.568 278.745 406.514 279.071 405.197C279.752 402.422 280.775 398.439 281.937 393.495C283.099 388.551 284.385 382.645 285.392 375.981C286.517 368.805 286.994 361.543 286.817 354.282C286.565 347.012 285.325 339.811 283.13 332.877C281.351 327.214 278.774 321.833 275.477 316.898C273.257 313.569 270.657 310.511 267.731 307.784C266.739 306.777 265.825 306.141 265.283 305.63C264.741 305.118 264.415 304.87 264.446 304.839C264.772 305.032 265.083 305.25 265.376 305.49C265.965 305.971 266.925 306.575 267.948 307.551C270.979 310.217 273.669 313.246 275.957 316.572C279.353 321.52 282.014 326.934 283.858 332.645C286.108 339.638 287.38 346.909 287.638 354.251C287.811 361.578 287.292 368.906 286.089 376.136C285.051 382.8 283.687 388.721 282.464 393.665C281.24 398.61 280.124 402.577 279.365 405.321C278.993 406.623 278.684 407.677 278.451 408.421C278.352 408.79 278.228 409.153 278.079 409.506Z" fill="#263238"/>
<path d="M276.53 408.173C276.296 407.502 276.12 406.812 276.003 406.111C275.709 404.778 275.368 402.825 275.012 400.392C274.114 394.063 273.705 387.674 273.788 381.281C273.881 374.885 274.471 368.506 275.554 362.202C275.972 359.8 276.375 357.847 276.716 356.529C276.842 355.824 277.039 355.133 277.305 354.468C277.278 355.183 277.185 355.894 277.026 356.591C276.778 357.924 276.468 359.877 276.127 362.295C275.202 368.589 274.685 374.936 274.578 381.297C274.505 387.651 274.836 394.003 275.57 400.315C275.849 402.748 276.096 404.701 276.298 406.049C276.455 406.746 276.533 407.458 276.53 408.173V408.173Z" fill="#263238"/>
<path d="M188.459 448.564C189.243 448.304 190.046 448.102 190.86 447.959C193.004 447.332 195.08 446.49 197.057 445.448C199.582 444.146 202.448 442.349 205.717 440.38C209.21 438.117 213.083 436.505 217.15 435.622C221.318 434.948 225.592 435.65 229.326 437.621C232.318 439.215 235.08 441.207 237.537 443.542C239.193 445.081 240.745 446.728 242.185 448.471C242.76 449.089 243.279 449.758 243.734 450.47C243.115 449.917 242.535 449.321 241.999 448.688C240.467 447.057 238.854 445.505 237.165 444.038C234.695 441.804 231.952 439.893 229.001 438.35C225.398 436.488 221.291 435.836 217.289 436.49C213.31 437.364 209.517 438.938 206.089 441.14C202.82 443.03 199.892 444.813 197.305 446.068C195.266 447.085 193.112 447.856 190.891 448.362C190.282 448.489 189.667 448.582 189.047 448.641C188.849 448.639 188.651 448.613 188.459 448.564V448.564Z" fill="#263238"/>
<path d="M220.542 416.31C221.056 416.436 221.551 416.628 222.014 416.883C222.589 417.109 223.144 417.384 223.672 417.705C224.395 418.093 225.098 418.517 225.779 418.976C227.568 420.15 229.243 421.488 230.783 422.974C234.572 426.622 237.517 431.055 239.412 435.963C240.189 437.97 240.776 440.045 241.162 442.163C241.323 442.967 241.442 443.779 241.519 444.596C241.6 445.207 241.641 445.824 241.642 446.44C241.719 446.954 241.719 447.476 241.642 447.99C241.488 447.99 241.426 445.743 240.651 442.24C240.189 440.193 239.563 438.187 238.776 436.242C237.773 433.878 236.566 431.606 235.167 429.453C233.731 427.329 232.103 425.342 230.302 423.517C228.816 422.033 227.21 420.675 225.5 419.456C222.525 417.364 220.481 416.449 220.542 416.31Z" fill="#263238"/>
<g opacity="0.4">
<path opacity="0.4" d="M240.899 446.053C238.088 439.65 233.562 434.149 227.82 430.161C222.078 426.173 215.345 423.852 208.366 423.455C206.485 423.274 204.589 423.567 202.851 424.307C201.992 424.697 201.266 425.331 200.764 426.13C200.263 426.929 200.008 427.859 200.031 428.802C200.266 429.69 200.411 430.598 200.465 431.515C200.233 433.576 197.676 434.32 195.678 434.893C191.78 436.006 188.308 438.269 185.717 441.388C184.369 442.938 183.284 445.433 184.57 447.107C185.639 448.471 187.669 448.471 189.388 448.161C195.771 447.045 201.456 443.604 207.281 440.783C213.106 437.962 219.675 435.684 225.996 437.11C232.982 438.66 238.172 444.394 242.866 449.804" fill="black"/>
</g>
<path d="M445.392 441.667C445.22 441.91 445.029 442.138 444.818 442.348L443.037 444.177C442.278 444.968 441.317 445.913 440.155 446.967C438.993 448.021 437.708 449.277 436.189 450.532C432.673 453.536 429.007 456.361 425.206 458.995C415.874 465.467 405.773 470.752 395.136 474.726C390.225 476.524 385.732 477.935 381.906 478.911C380 479.438 378.25 479.795 376.716 480.136C375.182 480.477 373.866 480.74 372.766 480.911L370.272 481.314C369.983 481.386 369.686 481.417 369.388 481.407C369.66 481.286 369.947 481.202 370.241 481.159L372.719 480.601C373.788 480.384 375.105 480.089 376.623 479.702C378.141 479.314 379.877 478.927 381.751 478.353C385.547 477.315 390.008 475.858 394.873 474.029C405.417 470.006 415.452 464.757 424.772 458.39C429.063 455.445 432.797 452.609 435.818 450.083C437.367 448.874 438.668 447.665 439.846 446.642C441.023 445.619 442.03 444.704 442.82 443.945L444.694 442.224C444.904 442.012 445.138 441.825 445.392 441.667V441.667Z" fill="#263238"/>
<path d="M459.83 339.759C459.829 340.108 459.792 340.456 459.722 340.798C459.613 341.557 459.458 342.549 459.272 343.773L457.568 354.623C456.143 363.814 454.269 376.554 452.348 390.628C450.427 404.701 448.753 417.395 447.499 426.71L446.042 437.637C445.856 438.861 445.717 439.853 445.609 440.613C445.575 440.959 445.508 441.302 445.407 441.636C445.366 441.285 445.366 440.932 445.407 440.582C445.469 439.817 445.562 438.825 445.686 437.606C445.98 434.909 446.383 431.189 446.894 426.632C447.963 417.333 449.559 404.608 451.542 390.519C453.525 376.43 455.43 363.705 456.995 354.53C457.801 349.88 458.451 346.222 458.978 343.68C459.21 342.471 459.412 341.495 459.567 340.735C459.614 340.4 459.702 340.072 459.83 339.759V339.759Z" fill="#263238"/>
<path d="M407.406 492.985C407.614 492.433 407.896 491.912 408.242 491.435C408.831 490.52 409.698 489.203 410.798 487.575C413.014 484.352 416.158 479.95 419.768 475.176C423.378 470.402 426.786 466.217 429.327 463.242C430.581 461.692 431.619 460.56 432.425 459.739C433.231 458.917 433.587 458.499 433.633 458.545C433.367 459.045 433.045 459.513 432.673 459.94L429.76 463.753C427.359 466.853 424.028 471.069 420.465 475.811C416.902 480.554 413.649 484.894 411.325 488.04L408.505 491.652C408.195 492.14 407.826 492.587 407.406 492.985V492.985Z" fill="#263238"/>
<path d="M507.127 460.653C506.28 460.364 505.452 460.022 504.648 459.63C503.099 458.948 500.775 457.972 497.878 456.964C490.346 454.244 482.384 452.905 474.377 453.012C472.129 453.061 469.909 453.518 467.824 454.36C465.902 455.192 464.153 456.374 462.665 457.848C460.145 460.429 458.169 463.492 456.856 466.853C455.924 469.099 455.107 471.39 454.408 473.719C454.179 474.587 453.883 475.437 453.525 476.261C453.651 475.37 453.843 474.489 454.098 473.626C454.701 471.253 455.446 468.919 456.329 466.636C457.617 463.199 459.6 460.065 462.154 457.429C463.692 455.873 465.511 454.621 467.514 453.74C469.681 452.855 471.991 452.372 474.331 452.314C482.436 452.163 490.495 453.579 498.064 456.484C500.357 457.338 502.601 458.316 504.788 459.413C505.562 459.785 506.151 460.126 506.554 460.343C506.758 460.419 506.951 460.524 507.127 460.653V460.653Z" fill="#263238"/>
<path d="M495.539 436.381C495.539 436.552 493.107 436.474 489.342 437.141C487.108 437.534 484.911 438.115 482.774 438.877C477.538 440.768 472.741 443.705 468.676 447.51C467.022 449.067 465.503 450.763 464.137 452.578C461.813 455.678 460.775 457.879 460.62 457.801C460.781 457.26 461.005 456.74 461.286 456.251C461.57 455.643 461.891 455.053 462.247 454.484C462.684 453.717 463.159 452.972 463.672 452.253C465.004 450.361 466.508 448.597 468.165 446.983C472.242 443.025 477.147 440.024 482.526 438.195C484.713 437.467 486.964 436.948 489.249 436.645C490.225 436.474 491.124 436.443 491.898 436.381C492.564 436.345 493.231 436.345 493.897 436.381C494.443 436.324 494.993 436.324 495.539 436.381V436.381Z" fill="#263238"/>
<path d="M507.994 534.6C507.241 529.535 505.228 524.74 502.139 520.656C499.051 516.572 494.986 513.33 490.318 511.227C482.928 507.926 472.735 507.166 465.717 511.227C458.699 515.288 449.311 525.27 451.217 533.128L467.313 560.174C471.458 563.18 476.409 564.873 481.526 565.036C486.643 565.199 491.691 563.824 496.019 561.088C500.256 558.201 503.615 554.201 505.728 549.528C507.84 544.855 508.625 539.69 507.994 534.6V534.6Z" fill="#2DBF90"/>
<g opacity="0.4">
<path opacity="0.4" d="M507.994 534.6C507.241 529.535 505.228 524.74 502.139 520.656C499.051 516.572 494.986 513.33 490.318 511.227C482.928 507.926 472.735 507.166 465.717 511.227C458.699 515.288 449.311 525.27 451.217 533.128L467.313 560.174C471.458 563.18 476.409 564.873 481.526 565.036C486.643 565.199 491.691 563.824 496.019 561.088C500.256 558.201 503.615 554.201 505.728 549.528C507.84 544.855 508.625 539.69 507.994 534.6V534.6Z" fill="black"/>
</g>
<path d="M502.975 554.315C502.975 554.315 503.548 553.23 504.524 551.308C505.874 548.536 506.808 545.58 507.297 542.536C508.001 538.017 507.597 533.395 506.12 529.067C505.677 527.822 505.16 526.606 504.571 525.424C503.953 524.201 503.255 523.02 502.479 521.891C499.262 517.072 494.683 513.322 489.327 511.119C482.484 508.527 474.93 508.527 468.087 511.119C465.189 512.164 462.455 513.621 459.969 515.443C458.219 516.76 457.32 517.582 457.258 517.52C457.446 517.29 457.653 517.077 457.878 516.884C458.472 516.282 459.104 515.718 459.768 515.195C462.217 513.233 464.955 511.665 467.886 510.545C474.846 507.801 482.579 507.751 489.574 510.406C492.324 511.508 494.889 513.023 497.181 514.9C499.468 516.784 501.468 518.993 503.114 521.457C503.895 522.627 504.604 523.843 505.237 525.099C505.833 526.314 506.351 527.567 506.786 528.85C508.277 533.289 508.634 538.031 507.824 542.644C507.271 545.731 506.225 548.709 504.726 551.463C504.199 552.424 503.688 553.137 503.378 553.618C503.277 553.868 503.141 554.102 502.975 554.315Z" fill="#263238"/>
<path d="M458.715 516.28C458.482 516.28 456.608 505.709 454.501 492.582C452.394 479.454 450.876 468.79 451.093 468.744C451.31 468.697 453.2 479.33 455.306 492.458C457.413 505.585 458.932 516.249 458.715 516.28Z" fill="#263238"/>
<g opacity="0.4">
<path opacity="0.4" d="M448.211 454.329L456.437 453.756C461.887 445.384 470.424 439.507 480.186 437.404C482.431 436.817 484.783 436.769 487.049 437.265C488.178 437.526 489.22 438.076 490.073 438.862C490.926 439.647 491.56 440.64 491.914 441.744C492.199 442.866 492.035 444.055 491.456 445.057C490.877 446.059 489.929 446.795 488.815 447.107C491.101 447.707 493.238 448.776 495.089 450.246C496.94 451.716 498.465 453.555 499.567 455.647C500.032 456.53 500.372 457.739 499.675 458.452C499.144 458.853 498.477 459.031 497.816 458.948C494.021 458.948 490.256 458.096 486.461 457.925C482.662 457.538 478.843 458.439 475.616 460.483C472.518 462.699 470.845 466.31 469.42 469.782C464.193 482.304 460.329 495.352 457.894 508.701C455.988 501.153 455.818 493.202 454.439 486.041C452.471 475.889 450.566 465.504 448.242 454.36" fill="black"/>
</g>
<g opacity="0.4">
<path opacity="0.4" d="M269.791 522.774C280.031 533.701 293.85 538.816 308.645 541.234C323.44 543.652 338.544 542.784 353.571 541.947C357.258 541.73 361.627 541.094 363.238 537.762C364.385 535.391 363.595 532.585 362.68 530.136C356.081 512.669 343.037 498.549 330.287 484.925C325.639 479.934 320.651 474.757 314.129 472.743C306.956 470.542 298.807 472.479 292.007 469.317C283.827 465.52 280.496 455.879 277.971 447.215L272.766 429.391C273.912 448.812 273.711 464.419 273.711 464.419C273.711 464.419 268.35 500.316 269.063 508.453C269.776 516.59 269.791 522.774 269.791 522.774Z" fill="black"/>
</g>
<path d="M371.774 301.197C371.083 301.123 370.403 300.972 369.745 300.747C368.444 300.422 366.646 299.848 364.323 299.042C358.432 296.928 352.782 294.195 347.467 290.89C342.148 287.584 337.189 283.729 332.673 279.389C330.953 277.716 329.574 276.29 328.753 275.282C328.257 274.793 327.82 274.246 327.452 273.655C328.007 274.08 328.525 274.552 329.001 275.065C329.931 276.026 331.325 277.359 333.091 278.971C342.269 287.385 352.934 294.013 364.54 298.516C366.755 299.383 368.583 300.065 369.853 300.453C370.514 300.644 371.157 300.893 371.774 301.197V301.197Z" fill="#263238"/>
<path d="M414.966 292.595C414.838 293.009 414.639 293.397 414.377 293.742C413.784 294.752 413.116 295.715 412.378 296.625C407.494 302.703 400.787 307.05 393.246 309.024C392.118 309.333 390.968 309.556 389.807 309.69C389.385 309.784 388.951 309.811 388.521 309.768C388.521 309.628 390.303 309.334 393.091 308.482C396.722 307.347 400.182 305.726 403.378 303.661C406.556 301.579 409.433 299.071 411.929 296.206C413.85 294.052 414.842 292.517 414.966 292.595Z" fill="#263238"/>
<path d="M422.154 302.158C419.783 308.233 415.3 313.247 409.528 316.278C411.97 314.248 414.302 312.091 416.515 309.814C418.527 307.362 420.409 304.807 422.154 302.158V302.158Z" fill="#263238"/>
<path d="M340.883 486.459L341.844 486.258C345.283 485.591 356.685 483.515 358.529 485.359C360.682 487.529 376.127 502.703 376.127 502.703C376.127 502.703 373.153 507.585 363.393 502.703C353.633 497.82 340.883 486.459 340.883 486.459Z" fill="#FFBE9D"/>
<path d="M318.978 455.631C320.657 454.515 322.701 454.089 324.686 454.441C326.671 454.793 328.444 455.897 329.636 457.522L376.716 520L364.648 528.85L317.103 466.977C316.443 466.124 315.965 465.143 315.701 464.096C315.436 463.05 315.39 461.96 315.566 460.895C315.742 459.83 316.136 458.813 316.723 457.907C317.31 457.001 318.078 456.227 318.978 455.631V455.631Z" fill="#263238"/>
<path d="M211.325 497.464C211.325 497.464 267.235 506.546 274.981 507.151C282.727 507.755 303.935 530.26 310.086 532.415C316.236 534.569 332.89 534.259 332.89 534.259C332.89 534.259 363.068 535.809 363.997 534.259C364.927 532.709 366.77 533.019 363.997 527.16C362.279 523.571 360.203 520.165 357.8 516.993C357.8 516.993 365.546 526.54 367.669 526.85C369.791 527.16 374.439 527.718 374.129 523.58C373.819 519.442 365.794 502.501 365.794 502.501C365.794 502.501 362.417 494.581 356.251 492.829C350.086 491.078 323.285 478.152 323.285 478.152H294.64L261.209 462.249C261.209 462.249 240.976 455.74 221.72 476.989C217.969 481.21 215.117 486.152 213.339 491.512L211.325 497.464Z" fill="#FFBE9D"/>
<path d="M371.186 515.288C370.837 514.784 370.556 514.237 370.349 513.661C369.807 512.421 369.141 510.902 368.366 509.104C367.591 507.306 366.553 504.826 365.5 502.315C364.629 499.501 362.928 497.016 360.62 495.185C359.361 494.318 358.016 493.58 356.608 492.985L352.657 491.218C350.117 490.102 347.824 489.141 345.903 488.335L341.255 486.428C340.682 486.228 340.132 485.969 339.613 485.653C340.217 485.751 340.809 485.912 341.379 486.134C342.479 486.506 344.09 487.064 346.027 487.792C347.963 488.521 350.318 489.451 352.874 490.536L356.856 492.272C358.324 492.87 359.721 493.629 361.023 494.534C363.455 496.462 365.234 499.092 366.12 502.067C367.127 504.593 368.025 506.903 368.815 508.902C369.605 510.902 370.086 512.281 370.566 513.552C370.832 514.108 371.039 514.689 371.186 515.288V515.288Z" fill="#EB996E"/>
<path d="M343.145 499.758C344.224 500.394 345.219 501.165 346.104 502.052C348.322 504.066 350.392 506.236 352.301 508.546C354.244 510.851 356.015 513.296 357.599 515.861C358.32 516.881 358.904 517.991 359.334 519.163C358.511 518.232 357.77 517.231 357.119 516.171C355.802 514.296 353.928 511.739 351.681 509.057C349.435 506.376 347.266 504.098 345.639 502.47C344.729 501.642 343.895 500.734 343.145 499.758V499.758Z" fill="#EB996E"/>
<path d="M359.055 534.724C358.638 534.641 358.239 534.484 357.878 534.259C356.85 533.74 355.866 533.138 354.935 532.461C351.928 530.156 349.189 527.52 346.77 524.603C343.873 521.271 341.286 518.233 339.458 516.001C338.404 514.846 337.445 513.607 336.592 512.297C337.784 513.307 338.884 514.422 339.876 515.629C341.828 517.768 344.524 520.744 347.375 524.061C349.769 526.934 352.413 529.59 355.275 531.996C357.522 533.794 359.117 534.616 359.055 534.724Z" fill="#EB996E"/>
<path d="M342.448 534.693C341.425 534.349 340.455 533.864 339.567 533.252C337.337 531.93 335.185 530.481 333.122 528.912C331.065 527.346 329.089 525.675 327.204 523.906C326.37 523.216 325.626 522.424 324.989 521.55C325.159 521.364 328.831 524.65 333.618 528.276C338.405 531.903 342.572 534.492 342.448 534.693Z" fill="#EB996E"/>
<path d="M434.176 557.942C434.176 557.942 429.265 550.347 428.583 547.635C427.901 544.922 428.583 532.012 419.536 534.042V535.049C419.768 536.15 419.536 562.406 419.536 562.406L434.176 557.942Z" fill="#FFBE9D"/>
<path d="M318.25 571.69C318.25 571.69 309.9 648.783 400.124 646.536C473.68 644.707 472.394 572.976 472.394 572.976L318.25 571.69Z" fill="#9278FE"/>
<path d="M393.974 592.753C440.407 592.753 478.049 583.649 478.049 572.418C478.049 561.187 440.407 552.083 393.974 552.083C347.541 552.083 309.9 561.187 309.9 572.418C309.9 583.649 347.541 592.753 393.974 592.753Z" fill="#9278FE"/>
<path opacity="0.4" d="M395.229 584.539C437.846 584.539 472.394 578.786 472.394 571.69C472.394 564.594 437.846 558.841 395.229 558.841C352.612 558.841 318.064 564.594 318.064 571.69C318.064 578.786 352.612 584.539 395.229 584.539Z" fill="black"/>
<path d="M475.198 578.23L474.826 578.447L473.788 579.098C472.874 579.672 471.48 580.462 469.652 581.392C464.449 583.998 458.986 586.05 453.355 587.514C445.003 589.624 436.528 591.208 427.979 592.257C417.498 593.439 406.953 593.956 396.406 593.807C385.206 593.714 374.516 593.342 364.834 592.49C356.245 591.78 347.718 590.454 339.319 588.522C333.66 587.219 328.108 585.488 322.711 583.345C320.79 582.617 319.35 581.904 318.358 581.47L317.258 580.943C316.995 580.834 316.871 580.757 316.887 580.741C317.024 580.777 317.159 580.824 317.289 580.881L318.436 581.33C319.443 581.718 320.883 582.369 322.82 583.051C328.245 585.073 333.805 586.715 339.458 587.964C347.84 589.81 356.34 591.074 364.896 591.746C374.563 592.552 385.221 592.908 396.422 593.001C406.932 593.134 417.44 592.616 427.886 591.451C436.409 590.449 444.862 588.927 453.2 586.894C458.817 585.492 464.282 583.535 469.513 581.051C471.341 580.152 472.766 579.424 473.695 578.897L474.78 578.308C475.059 578.277 475.183 578.215 475.198 578.23Z" fill="#263238"/>
<path d="M423.703 569.954C423.703 569.954 432.905 539.095 436.097 534.988C438.715 531.593 457.258 517.551 463.626 512.793C465.194 511.608 466.978 510.74 468.877 510.235C475.183 508.577 481.488 507.461 491.867 511.956C495.142 513.406 498.087 515.509 500.521 518.137C502.956 520.764 504.829 523.861 506.027 527.238L471.403 548.766L470.055 563.336L442.169 556.221C442.304 554.757 442.019 553.284 441.348 551.975C441.348 551.975 432.487 573.457 423.703 569.954Z" fill="#FFBE9D"/>
<path d="M390.272 548.038C386.755 543.388 383.827 538.909 381.503 535.112C379.179 531.314 377.522 528.121 376.422 525.812C375.917 524.615 375.31 523.464 374.609 522.371C374.968 523.621 375.429 524.839 375.988 526.014C377.404 529.255 378.996 532.417 380.76 535.484C383.404 540.009 386.279 544.396 389.373 548.627C392.843 553.416 396.918 558.5 401.24 563.754C407.282 571.008 412.859 577.781 417.398 583.717H418.653C414.114 577.518 408.397 570.496 402.185 563.026C397.863 557.802 393.788 552.765 390.272 548.038Z" fill="#F5F5F5"/>
<path d="M368.149 525.936C368.538 527.166 369.025 528.364 369.605 529.516C370.612 531.81 372.069 535.111 373.788 539.219C378.256 549.926 382.15 560.863 385.454 571.984C386.662 576.34 387.948 580.571 389.466 584.492H390.705C389.156 580.509 387.886 576.2 386.615 571.659C383.326 560.484 379.305 549.539 374.578 538.893C372.75 534.817 371.17 531.562 370.039 529.33C369.501 528.15 368.869 527.015 368.149 525.936Z" fill="#F5F5F5"/>
<path d="M371.186 522.232C371.643 523.452 372.198 524.633 372.843 525.766C373.99 528.013 375.678 531.237 377.801 535.205C382.061 543.125 388.025 554.052 395.291 565.723C399.505 572.511 403.734 578.726 407.684 584.167H408.986C405.051 578.571 400.713 572.139 396.375 565.118C389.125 553.478 383.052 542.644 378.606 534.833L373.308 525.533C372.692 524.376 371.982 523.272 371.186 522.232V522.232Z" fill="#F5F5F5"/>
<path d="M438.932 575.208C435.871 567.971 431.191 561.534 425.252 556.392C419.934 551.782 414.233 547.634 408.211 543.993C402.65 540.474 397.367 537.281 392.874 534.042C385.674 528.938 379.129 522.967 373.385 516.264C371.356 513.893 369.853 511.971 368.862 510.669L367.715 509.119C367.601 508.939 367.46 508.777 367.297 508.639C367.381 508.838 367.49 509.026 367.622 509.197L368.66 510.747C369.605 512.111 371.031 514.079 373.029 516.512C378.669 523.377 385.173 529.482 392.378 534.678C396.918 537.979 402.138 541.234 407.669 544.783C413.622 548.434 419.255 552.582 424.509 557.182C430.315 562.228 434.889 568.537 437.878 575.627C438.769 577.737 439.459 579.927 439.939 582.167L441.147 582.043C440.62 579.702 439.878 577.414 438.932 575.208V575.208Z" fill="#F5F5F5"/>
<path d="M436.097 580.323C434.076 575.216 431.286 570.449 427.824 566.187C423.559 561.012 418.726 556.333 413.416 552.238C407.855 547.821 402.293 544.008 397.336 540.428C392.378 536.847 388.041 533.5 384.509 530.493C381.742 528.119 379.115 525.589 376.639 522.914C375.783 521.874 374.868 520.886 373.897 519.953C374.035 520.28 374.223 520.583 374.454 520.852C374.842 521.41 375.461 522.216 376.282 523.224C378.638 526.041 381.195 528.683 383.935 531.128C388.007 534.738 392.257 538.142 396.67 541.327C401.612 544.969 407.142 548.813 412.657 553.184C417.895 557.22 422.689 561.802 426.956 566.854C430.393 570.998 433.201 575.625 435.291 580.586C435.57 581.253 435.802 581.904 436.035 582.539L436.84 582.462C436.654 581.795 436.437 581.082 436.097 580.323Z" fill="#F5F5F5"/>
<path d="M395.523 573.147C389.574 562.297 384.571 552.192 381.023 544.861L376.84 536.181C376.381 535.103 375.832 534.066 375.198 533.081C375.502 534.225 375.906 535.341 376.406 536.414C377.274 538.521 378.56 541.544 380.233 545.264C383.595 552.688 388.49 562.84 394.439 573.767C396.468 577.471 398.467 581.02 400.403 584.368H401.736C399.737 580.788 397.646 577.052 395.523 573.147Z" fill="#F5F5F5"/>
<path d="M407.901 559.228C399.556 551.01 391.664 542.344 384.261 533.267C381.426 529.78 379.195 526.912 377.63 524.929C376.882 523.831 376.048 522.794 375.136 521.829C375.751 522.986 376.461 524.09 377.258 525.13C378.699 527.207 380.821 530.167 383.595 533.732C390.817 543.029 398.652 551.831 407.049 560.081C411.945 564.932 416.918 569.21 421.085 573.41C424.102 576.374 426.826 579.624 429.218 583.113H430.241C427.851 579.338 425.051 575.839 421.89 572.682C417.708 568.342 412.766 564.049 407.901 559.228Z" fill="#F5F5F5"/>
<path d="M382.464 580.571C380.403 574.371 379.009 568.357 377.708 562.917C375.198 552.068 372.859 543.187 370.364 537.405C369.199 534.366 367.708 531.461 365.918 528.741C365.918 528.741 365.918 528.958 366.166 529.33L367.034 531.004C367.762 532.477 368.815 534.662 369.931 537.576C372.27 543.388 374.47 552.176 376.856 563.119C378.126 568.574 379.474 574.573 381.503 580.881C381.906 582.074 382.355 583.283 382.804 584.508H383.92C383.424 583.19 382.913 581.857 382.464 580.571Z" fill="#F5F5F5"/>
<path d="M444.896 561.848C445.019 561.831 445.144 561.831 445.268 561.848C445.629 561.829 445.991 561.829 446.352 561.848C447.297 561.925 448.691 562.08 450.473 562.328C455.517 563.023 460.496 564.127 465.361 565.63C466.961 566.195 468.515 566.884 470.008 567.691C470.846 568.131 471.572 568.756 472.131 569.52C472.41 569.951 472.593 570.437 472.668 570.945C472.743 571.453 472.707 571.971 472.564 572.465C472.395 572.958 472.13 573.414 471.784 573.805C471.439 574.196 471.019 574.514 470.55 574.743C469.703 575.3 468.806 575.778 467.87 576.169C465.952 576.99 463.98 577.679 461.968 578.23C453.046 580.659 443.951 582.405 434.764 583.454C418.08 585.232 401.281 585.699 384.524 584.849C378.095 584.601 372.905 584.291 369.311 584.074L365.175 583.779L364.106 583.686C363.983 583.712 363.857 583.712 363.734 583.686H365.19L369.326 583.826L384.54 584.337C401.266 585.035 418.02 584.517 434.671 582.787C443.816 581.733 452.872 580.013 461.767 577.641C463.749 577.101 465.695 576.433 467.591 575.642C468.495 575.277 469.362 574.825 470.179 574.294C470.98 573.915 471.607 573.244 471.929 572.418C472.05 572.014 472.081 571.589 472.023 571.172C471.964 570.755 471.816 570.355 471.588 570C471.088 569.315 470.443 568.749 469.698 568.342C468.238 567.548 466.721 566.864 465.159 566.296C460.332 564.754 455.398 563.573 450.396 562.762C448.629 562.468 447.297 562.251 446.321 562.127C445.345 562.003 444.896 561.879 444.896 561.848Z" fill="#263238"/>
<path d="M452.41 542.799C452.549 542.985 449.667 545.232 446.368 548.286C443.068 551.339 440.605 554.036 440.419 553.881C443.582 549.375 447.67 545.597 452.41 542.799V542.799Z" fill="#EB996E"/>
<path d="M451.728 555.012C450.134 554.409 448.457 554.059 446.755 553.974C445.054 554.133 443.387 554.551 441.813 555.214C441.813 555.136 442.154 554.672 443.021 554.176C444.152 553.534 445.425 553.188 446.724 553.168C448.03 553.137 449.323 553.43 450.488 554.021C451.372 554.486 451.79 554.935 451.728 555.012Z" fill="#EB996E"/>
<path d="M170.705 235.108C169.807 235.821 120.682 257.892 120.682 257.892C120.682 257.892 134.206 286.628 160.45 273.825C184.415 262.139 170.705 235.108 170.705 235.108Z" fill="#455A64"/>
<path d="M170.163 76.3803C171.263 76.3803 172.177 114.539 172.177 161.626C172.177 208.713 171.263 246.872 170.163 246.872C169.063 246.872 168.133 208.728 168.133 161.626C168.133 114.524 169.047 76.3803 170.163 76.3803Z" fill="#455A64"/>
<path d="M135.198 191.493C134.299 192.206 85.1744 214.277 85.1744 214.277C85.1744 214.277 98.6988 243.013 124.958 230.21C148.923 218.524 135.198 191.493 135.198 191.493Z" fill="#455A64"/>
<path d="M134.655 73.4974C135.771 73.4974 136.669 102.543 136.669 138.362C136.669 174.181 135.771 203.226 134.655 203.226C133.54 203.226 132.642 174.181 132.642 138.362C132.642 102.543 133.54 73.4974 134.655 73.4974Z" fill="#455A64"/>
<path d="M92.1767 148.483C91.2627 149.18 42.1379 171.251 42.1379 171.251C42.1379 171.251 55.6778 199.987 81.9211 187.184C105.918 175.467 92.1767 148.483 92.1767 148.483Z" fill="#455A64"/>
<path d="M91.65 77.8217C92.7654 77.8217 93.6639 96.2503 93.6639 118.972C93.6639 141.694 92.7654 160.138 91.65 160.138C90.5346 160.138 89.636 141.71 89.636 118.972C89.636 96.2348 90.5346 77.8217 91.65 77.8217Z" fill="#455A64"/>
<path d="M228.598 242.951C256.319 242.951 278.792 220.468 278.792 192.733C278.792 164.999 256.319 142.516 228.598 142.516C200.877 142.516 178.405 164.999 178.405 192.733C178.405 220.468 200.877 242.951 228.598 242.951Z" fill="#455A64"/>
<path d="M226.724 148.126L222.789 83.5565H241.286L236.158 148.126H226.724Z" fill="#455A64"/>
<path d="M249.714 227.947L249.388 228.18L248.366 228.769C247.917 229.017 247.374 229.373 246.693 229.699L244.307 230.768C239.134 232.864 233.589 233.887 228.01 233.775C219.706 233.634 211.626 231.058 204.772 226.367C200.739 223.563 197.292 219.999 194.625 215.874C188.846 206.959 186.567 196.222 188.226 185.728C188.976 180.875 190.665 176.216 193.199 172.011C197.565 164.915 203.916 159.257 211.464 155.737C216.517 153.361 221.997 152.033 227.576 151.831H230.054C230.814 151.831 231.449 151.955 231.96 151.986L233.122 152.125C233.256 152.109 233.391 152.109 233.525 152.125H233.153H231.975C231.464 152.125 230.829 152.032 230.07 152.032H227.483C221.974 152.363 216.582 153.758 211.604 156.139C204.212 159.704 198.017 165.342 193.773 172.367C191.298 176.499 189.651 181.074 188.924 185.836C187.328 196.139 189.572 206.668 195.229 215.424C197.828 219.475 201.19 222.981 205.128 225.747C210.781 229.62 217.283 232.071 224.085 232.894C230.887 233.717 237.786 232.887 244.199 230.474L246.584 229.466C247.281 229.156 247.824 228.846 248.288 228.614L249.342 228.087L249.714 227.947Z" fill="#263238"/>
<path d="M27.3587 0L45.1434 64.3219H120.418L138.188 0H27.3587Z" fill="#455A64"/>
<path d="M134.656 12.7249C134.656 12.9574 111.418 13.1434 82.7732 13.1434C54.1287 13.1434 30.8909 12.9729 30.8909 12.7249C30.8909 12.4769 54.1287 12.3219 82.7732 12.3219C111.418 12.3219 134.656 12.5234 134.656 12.7249Z" fill="#263238"/>
<path d="M148.459 16.5842H132.967L135.446 9.85748H148.381C149.273 9.85748 150.128 10.2118 150.758 10.8426C151.389 11.4733 151.743 12.3288 151.743 13.2208V13.2208C151.743 14.0996 151.4 14.9435 150.786 15.5721C150.172 16.2006 149.337 16.5639 148.459 16.5842V16.5842Z" fill="#263238"/>
<path d="M16.9637 16.5842H32.3781L29.9149 9.85748H16.9637C16.0721 9.85748 15.217 10.2118 14.5866 10.8426C13.9561 11.4733 13.6019 12.3288 13.6019 13.2208V13.2208C13.6019 14.1128 13.9561 14.9683 14.5866 15.5991C15.217 16.2298 16.0721 16.5842 16.9637 16.5842V16.5842Z" fill="#263238"/>
<path d="M289.466 63.4539H8.33466V83.5564H289.466V63.4539Z" fill="#9278FE"/>
<path d="M653.169 349.71C651.102 348.903 648.8 348.949 646.767 349.839C644.734 350.728 643.137 352.387 642.324 354.452L629.854 387.884L645.345 393.588L657.925 360.481C658.71 358.421 658.651 356.134 657.761 354.117C656.87 352.1 655.22 350.516 653.169 349.71Z" fill="#9278FE"/>
<path d="M652.828 360.28C652.828 360.986 652.619 361.676 652.226 362.262C651.834 362.849 651.277 363.306 650.625 363.575C649.973 363.844 649.256 363.914 648.564 363.775C647.872 363.636 647.237 363.295 646.74 362.795C646.242 362.295 645.904 361.658 645.768 360.966C645.633 360.273 645.705 359.556 645.977 358.905C646.249 358.254 646.709 357.698 647.296 357.308C647.884 356.919 648.575 356.712 649.28 356.715C649.748 356.713 650.212 356.804 650.644 356.983C651.076 357.161 651.469 357.424 651.799 357.756C652.129 358.087 652.39 358.481 652.567 358.915C652.743 359.348 652.832 359.812 652.828 360.28Z" fill="#FAFAFA"/>
<path d="M643.998 382.196C644.001 382.902 643.794 383.592 643.405 384.181C643.015 384.769 642.46 385.228 641.809 385.5C641.158 385.773 640.441 385.845 639.749 385.71C639.057 385.574 638.42 385.236 637.921 384.738C637.421 384.24 637.08 383.605 636.941 382.913C636.802 382.221 636.872 381.503 637.141 380.851C637.41 380.199 637.867 379.641 638.453 379.248C639.04 378.856 639.729 378.647 640.435 378.647C641.377 378.647 642.281 379.02 642.949 379.685C643.616 380.35 643.994 381.253 643.998 382.196V382.196Z" fill="#FAFAFA"/>
<path d="M629.885 387.884L605.857 450.594L635.431 450.222L659.567 398.408L629.885 387.884Z" fill="#E0E0E0"/>
<path d="M652.224 450.594H569.342V545.961H652.224V450.594Z" fill="#9278FE"/>
<path d="M652.224 474.339C652.224 474.571 633.634 474.758 610.783 474.758C587.932 474.758 569.327 474.602 569.327 474.339C569.327 474.075 587.917 473.936 610.767 473.936C633.618 473.936 652.224 474.122 652.224 474.339Z" fill="white"/>
<path d="M652.224 484.615C652.224 484.832 633.634 485.018 610.783 485.018C587.932 485.018 569.327 484.832 569.327 484.615C569.327 484.398 587.917 484.212 610.767 484.212C633.618 484.212 652.224 484.382 652.224 484.615Z" fill="white"/>
<path d="M652.224 494.875C652.224 495.108 633.634 495.278 610.783 495.278C587.932 495.278 569.342 495.108 569.342 494.875C569.342 494.643 587.932 494.472 610.783 494.472C633.634 494.472 652.224 494.658 652.224 494.875Z" fill="white"/>
<path d="M652.224 505.151C652.224 505.368 633.634 505.554 610.783 505.554C587.932 505.554 569.342 505.368 569.342 505.151C569.342 504.934 587.932 504.748 610.783 504.748C633.634 504.748 652.224 504.919 652.224 505.151Z" fill="white"/>
<path d="M652.224 515.412C652.224 515.629 633.634 515.815 610.783 515.815C587.932 515.815 569.342 515.629 569.342 515.412C569.342 515.195 587.932 515.009 610.783 515.009C633.634 515.009 652.224 515.195 652.224 515.412Z" fill="white"/>
<path d="M652.224 525.75C652.224 525.982 633.634 526.153 610.783 526.153C587.932 526.153 569.327 525.905 569.327 525.75C569.327 525.595 587.917 525.347 610.767 525.347C633.618 525.347 652.224 525.455 652.224 525.75Z" fill="white"/>
<path d="M520.636 398.098L576.05 402.531C576.05 402.531 577.599 375.609 551.666 372.757C525.733 369.905 520.636 398.098 520.636 398.098Z" fill="#455A64"/>
<path d="M591.248 450.594C590.194 450.951 584.431 437.141 578.389 419.735C572.348 402.329 568.289 387.9 569.342 387.543C570.396 387.187 576.143 400.996 582.2 418.402C588.258 435.808 592.301 450.222 591.248 450.594Z" fill="#455A64"/>
<path d="M594.563 633.222C594.205 633.339 593.837 633.422 593.463 633.47L590.287 633.997L587.994 634.353C587.142 634.462 586.228 634.524 585.237 634.632C583.254 634.803 581.008 635.097 578.513 635.128L574.594 635.252C573.231 635.252 571.805 635.252 570.334 635.252C567.39 635.252 564.261 634.958 561.039 634.694C546.694 633.308 532.69 629.487 519.629 623.395C516.67 621.938 513.819 620.59 511.279 619.087C510.008 618.358 508.753 617.692 507.592 616.963L504.261 614.778C502.123 613.476 500.341 612.065 498.73 610.918C497.925 610.329 497.181 609.802 496.499 609.275L494.702 607.726L492.239 605.664C491.944 605.435 491.67 605.181 491.418 604.905C491.754 605.076 492.066 605.289 492.348 605.54L494.904 607.478L496.732 608.903C497.413 609.415 498.173 609.926 498.994 610.453C500.62 611.569 502.417 612.933 504.571 614.204L507.886 616.266C509.048 616.979 510.303 617.614 511.573 618.327C514.114 619.799 516.949 621.117 519.908 622.558C526.429 625.495 533.161 627.941 540.047 629.874C546.941 631.712 553.963 633.029 561.054 633.811C564.323 634.09 567.437 634.415 570.349 634.431C571.821 634.431 573.231 634.57 574.578 634.539L578.498 634.462C580.977 634.462 583.223 634.214 585.206 634.09C586.182 634.09 587.111 633.966 587.948 633.873L590.241 633.594L593.432 633.206C593.809 633.184 594.187 633.189 594.563 633.222V633.222Z" fill="#455A64"/>
<path d="M528.599 627.115C516.98 625.565 501.798 630.06 493.091 637.965C505.438 636.305 517.432 632.64 528.599 627.115" fill="#455A64"/>
<path d="M529.187 627.255C533.448 616.312 527.158 600.906 527.158 600.906C525.934 598.829 526.476 615.119 529.187 627.255Z" fill="#455A64"/>
<path d="M510.845 618.575C513.943 610.546 509.435 599.263 509.435 599.263C508.568 597.713 508.924 609.694 510.845 618.575Z" fill="#455A64"/>
<path d="M545.609 631.145C548.707 623.116 544.199 611.833 544.199 611.833C543.316 610.283 543.672 622.264 545.609 631.145Z" fill="#455A64"/>
<path d="M511.201 618.745C502.541 617.598 491.248 620.946 484.788 626.805C493.972 625.576 502.894 622.854 511.201 618.745Z" fill="#455A64"/>
<path d="M547.375 632.369C535.09 632.54 520.063 639.515 512.239 648.985C524.778 645.398 536.646 639.786 547.375 632.369Z" fill="#455A64"/>
<path d="M594.191 573.674C591.686 569.91 588.21 566.895 584.13 564.948C580.051 563.001 575.521 562.196 571.021 562.617C566.521 563.038 562.219 564.67 558.571 567.34C554.924 570.01 552.066 573.618 550.303 577.781C547.489 584.91 547.617 592.864 550.659 599.898C553.745 606.854 558.768 612.774 565.128 616.948C581.503 628.107 605.252 627.596 620.465 614.902C626.12 610.252 630.659 603.758 631.697 596.473C632.299 592.235 631.705 587.913 629.981 583.995C628.258 580.077 625.473 576.72 621.943 574.301C618.413 571.883 614.277 570.501 610.002 570.311C605.728 570.12 601.486 571.129 597.754 573.224" fill="#2DBF90"/>
<path d="M594.253 573.643C593.71 571.65 592.478 569.914 590.776 568.745C589.074 567.576 587.012 567.048 584.958 567.257L590.442 573.782C588.951 573.987 587.542 574.584 586.358 575.512C585.174 576.441 584.257 577.668 583.703 579.067C583.455 579.734 583.378 580.617 584.013 581.02C584.238 581.094 584.476 581.119 584.712 581.092C584.947 581.065 585.174 580.988 585.376 580.865L592.038 578.106C592.495 581.825 593.857 585.375 596.004 588.444C597.528 585.181 598.381 581.644 598.513 578.044L605.872 581.299C605.291 579.181 604.087 577.286 602.417 575.859C604.612 575.443 606.712 574.629 608.614 573.457C609.187 573.1 609.807 572.496 609.559 571.907C609.311 571.318 608.754 571.302 608.242 571.256C603.382 570.795 598.496 571.81 594.222 574.17" fill="#455A64"/>
<path d="M593.773 576.402C594.914 568.952 594.288 561.338 591.945 554.176C593.695 553.788 595.849 553.525 596.995 554.92C597.562 555.798 597.824 556.838 597.739 557.88C597.823 564.931 596.485 571.926 593.804 578.448" fill="#455A64"/>
<path d="M558.049 603.076C557.613 602.751 557.227 602.364 556.902 601.929C555.949 600.787 555.123 599.545 554.439 598.224C552.11 593.831 551.288 588.794 552.1 583.888C552.912 578.982 555.312 574.478 558.932 571.07C559.997 570.035 561.177 569.125 562.448 568.357C562.902 568.055 563.391 567.811 563.905 567.629C562.303 568.815 560.777 570.098 559.334 571.473C555.929 574.876 553.675 579.261 552.889 584.012C552.103 588.763 552.824 593.641 554.95 597.961C555.874 599.73 556.909 601.438 558.049 603.076Z" fill="white"/>
<path d="M565.438 608.656C565.361 608.857 564.199 608.656 563.021 607.772C561.844 606.889 561.24 605.912 561.472 605.773C561.705 605.633 562.479 606.346 563.548 607.121C564.617 607.896 565.516 608.439 565.438 608.656Z" fill="white"/>
<path d="M254.113 488.629C253.432 488.784 258.436 513.924 258.436 513.924H271.232L276.886 489.637C269.55 487.119 261.644 486.77 254.113 488.629V488.629Z" fill="#455A64"/>
<path d="M246.399 630.153C246.399 630.153 227.561 577.363 230.195 563.041C232.828 548.72 238.483 545.698 243.006 541.172C247.53 536.646 251.294 532.88 252.425 528.354C253.556 523.828 252.425 505.74 252.425 505.74C252.425 505.74 249.033 500.455 250.164 498.58C251.294 496.704 279.18 498.58 279.18 498.58C279.022 500.88 278.24 503.093 276.918 504.981C276.918 504.981 276.174 526.091 277.305 528.354C278.436 530.617 295.772 549.851 298.405 559.647C301.039 569.442 287.995 630.153 287.995 630.153H246.399Z" fill="#F5F5F5"/>
<path d="M246.398 630.153H247.127H249.249H257.429L287.994 630.013L287.746 630.215C289.295 622.543 291.077 613.848 292.843 604.285C294.609 594.722 296.453 584.275 297.739 573.069C298.033 570.264 298.296 567.427 298.358 564.529C298.626 561.628 298.004 558.714 296.577 556.175C293.695 550.806 290.33 545.711 286.522 540.955C284.632 538.475 282.649 536.01 280.651 533.531C279.659 532.275 278.653 531.035 277.677 529.733C277.414 529.396 277.171 529.044 276.948 528.679C276.792 528.265 276.688 527.833 276.639 527.393C276.521 526.576 276.448 525.753 276.422 524.928C276.127 518.403 276.329 511.801 276.515 505.089V504.981V504.888C276.793 504.423 277.103 503.927 277.367 503.338C278.121 501.894 278.574 500.312 278.699 498.688L279.071 499.076C272.719 498.673 266.429 498.363 260.279 498.254C257.264 498.145 254.245 498.264 251.247 498.611C250.965 498.657 250.693 498.752 250.442 498.89C250.305 499.141 250.241 499.425 250.256 499.711C250.301 500.414 250.458 501.104 250.721 501.757C251.252 503.105 251.906 504.402 252.673 505.632V505.725V505.818C252.951 510.638 253.153 515.381 253.168 520.046C253.205 522.369 253.117 524.692 252.905 527.005C252.615 529.318 251.746 531.519 250.38 533.407C249.097 535.23 247.662 536.941 246.089 538.521C244.539 540.071 242.99 541.621 241.441 543.094C239.863 544.471 238.373 545.947 236.979 547.511C235.668 549.056 234.554 550.758 233.664 552.579C232.006 556.112 230.864 559.865 230.271 563.723C230.078 565.568 230.078 567.427 230.271 569.272C230.395 571.085 230.643 572.883 230.891 574.635C231.983 581.088 233.4 587.481 235.136 593.792C238.234 605.323 241.147 614.406 243.145 620.652C244.168 623.752 244.958 626.123 245.5 627.781C245.763 628.572 245.949 629.192 246.104 629.626C246.259 630.06 246.29 630.261 246.29 630.261C246.193 630.066 246.11 629.864 246.042 629.657L245.36 627.828C244.787 626.278 243.951 623.829 242.897 620.729C240.806 614.53 237.8 605.463 234.64 593.916C233.091 588.15 231.464 581.764 230.302 574.728C230.039 572.961 229.791 571.163 229.652 569.303C229.443 567.418 229.443 565.515 229.652 563.63C230.244 559.704 231.397 555.883 233.075 552.285C233.985 550.41 235.125 548.655 236.468 547.061C237.873 545.473 239.379 543.976 240.976 542.582C242.525 541.141 244.075 539.591 245.546 538.025C247.091 536.469 248.501 534.784 249.76 532.988C251.054 531.196 251.875 529.106 252.146 526.912C252.346 524.629 252.429 522.338 252.394 520.046C252.394 515.396 252.161 510.669 251.883 505.864V506.05C251.07 504.778 250.385 503.428 249.838 502.021C249.552 501.281 249.379 500.502 249.326 499.711C249.299 499.25 249.424 498.792 249.683 498.409C250.032 498.094 250.47 497.894 250.938 497.836C253.996 497.472 257.078 497.347 260.155 497.464C266.352 497.557 272.549 497.867 278.993 498.285H279.628V498.673C279.51 500.436 279.03 502.156 278.219 503.726C277.942 504.258 277.637 504.776 277.305 505.275V505.074C277.119 511.754 276.917 518.372 277.196 524.835C277.229 525.634 277.301 526.431 277.413 527.222C277.453 527.581 277.531 527.934 277.646 528.276C277.847 528.586 278.048 528.896 278.296 529.222C279.241 530.493 280.264 531.733 281.255 532.973C283.254 535.468 285.237 537.932 287.127 540.428C290.966 545.229 294.352 550.376 297.243 555.803C298.711 558.452 299.353 561.481 299.086 564.498C299.086 567.427 298.745 570.295 298.436 573.1C297.134 584.337 295.229 594.799 293.463 604.347C291.697 613.894 289.884 622.62 288.226 630.277V630.494H288.01L257.32 630.354H249.187H247.111L246.398 630.153Z" fill="#263238"/>
<path d="M284.385 624.682C289.158 607.041 292.321 589.004 293.835 570.791C294.005 568.714 294.005 566.311 292.425 564.932C290.504 563.258 287.576 564.157 285.144 564.932C277.995 567.201 270.386 567.607 263.037 566.11C255.895 564.56 248.8 561.367 241.611 562.561C240.697 562.638 239.807 562.898 238.995 563.327C238.183 563.756 237.466 564.344 236.886 565.056C235.725 566.792 236.003 569.07 236.329 571.132C239.164 588.863 244.942 609.229 249.636 624.682H284.385Z" fill="#2DBF90"/>
<path d="M289.11 567.118C288.721 567.661 288.268 568.155 287.762 568.59C286.433 569.848 285.003 570.993 283.486 572.015C278.482 575.463 272.725 577.658 266.697 578.416C260.669 579.174 254.547 578.473 248.846 576.371C247.123 575.757 245.454 575 243.858 574.108C243.253 573.817 242.691 573.447 242.185 573.007C242.185 572.868 244.694 574.387 249.032 575.844C254.67 577.74 260.663 578.339 266.564 577.596C272.465 576.852 278.122 574.786 283.114 571.55C287.018 569.148 289.001 566.994 289.11 567.118Z" fill="white"/>
</g>
<defs>
<clipPath id="clip0_13_336">
<rect width="691" height="649" fill="white"/>
</clipPath>
</defs>
</svg>
