<svg width="88" height="88" viewBox="0 0 88 88" fill="none" xmlns="http://www.w3.org/2000/svg">
<g clip-path="url(#clip0_43_1788)">
<path d="M64.7625 1.375V86.625H1.37505V8.93749C1.37505 4.81245 4.81249 1.375 9.07509 1.375H64.7625V1.375Z" fill="#2DBF90"/>
<path d="M64.7625 88H1.37501C0.55004 88 0 87.45 0 86.625V8.9375C0 3.98749 3.98749 0 8.9375 0H64.6249C65.4499 0 66 0.55004 66 1.37501V86.625C66.1375 87.45 65.5875 88 64.7625 88ZM2.75003 85.25H63.3875V2.75003H8.9375C5.50005 2.75003 2.75003 5.50005 2.75003 8.9375V85.25V85.25Z" fill="#183651"/>
<path d="M59.2624 81.1249V6.875H8.93749C7.83741 6.875 6.87506 7.83753 6.87506 8.93743V65.1749L21.3126 81.1249H59.2624Z" fill="white"/>
<path d="M6.87506 65.3125L21.3124 81.1249V65.3125H6.87506Z" fill="#E0E4E8"/>
<path d="M73.1499 8.66256C73.1499 4.67507 69.8499 1.375 65.8624 1.375H9.76246C13.7499 1.375 17.05 4.67507 17.05 8.66256C17.05 12.65 13.7499 15.9499 9.76246 15.9499H65.8624C69.85 15.9499 73.1499 12.65 73.1499 8.66256Z" fill="#E0E4E8"/>
<path d="M65.8626 17.325H9.76251C8.93754 17.325 8.3875 16.7749 8.3875 15.9499C8.3875 15.125 8.93754 14.5749 9.76251 14.5749C13.0626 14.5749 15.6751 11.9625 15.6751 8.66239C15.6751 5.36233 12.925 2.75003 9.76251 2.75003C8.93754 2.75003 8.3875 2.19999 8.3875 1.37501C8.3875 0.55004 8.93754 0 9.76251 0H65.8624C70.6749 0 74.525 3.84993 74.525 8.66257C74.525 13.4752 70.5375 17.325 65.8626 17.325ZM16.0875 14.5749H65.8626C69.1627 14.5749 71.7752 11.9625 71.7752 8.66239C71.7752 5.36233 69.1627 2.74985 65.8626 2.74985H16.0875C17.6001 4.26242 18.4251 6.32485 18.4251 8.66239C18.4251 10.9999 17.4626 13.0625 16.0875 14.5749Z" fill="#183651"/>
<path d="M49.6375 78.5125L45.3749 74.3877L41.1125 78.5125V63.8H49.6375V78.5125Z" fill="#2DBF90"/>
<path d="M45.3749 68.4751C50.6147 68.4751 54.8624 64.2274 54.8624 58.9875C54.8624 53.7477 50.6147 49.5 45.3749 49.5C40.1351 49.5 35.8874 53.7477 35.8874 58.9875C35.8874 64.2274 40.1351 68.4751 45.3749 68.4751Z" fill="#2DBF90"/>
<path d="M45.3749 64.35C42.35 64.35 40.0124 61.8751 40.0124 58.9875C40.0124 56.0999 42.4873 53.625 45.3749 53.625C48.2625 53.625 50.7374 56.0999 50.7374 58.9875C50.7374 61.8751 48.4001 64.35 45.3749 64.35Z" fill="white"/>
<path d="M51.5624 23.375H14.5749V26.125H51.5624V23.375Z" fill="#183651"/>
<path d="M51.5624 32.0374H14.5749V34.7874H51.5624V32.0374Z" fill="#183651"/>
<path d="M51.5624 40.7H14.5749V43.45H51.5624V40.7Z" fill="#183651"/>
<path d="M17.4625 49.3625H14.5749V52.1126H17.4625V49.3625Z" fill="#183651"/>
<path d="M24.6126 49.3625H21.725V52.1126H24.6126V49.3625Z" fill="#183651"/>
<path d="M31.7625 49.3625H28.8749V52.1126H31.7625V49.3625Z" fill="#183651"/>
<path d="M72.7375 31.2126V74.8003L79.6126 86.6252L86.625 74.8003V31.2126H72.7375Z" fill="#9278FE"/>
<path d="M79.6126 87.9999C79.0626 87.9999 78.6501 87.725 78.3752 87.3125L71.3627 75.4874C71.2252 75.2125 71.2252 75.075 71.2252 74.8V31.2124C71.2252 30.3874 71.7752 29.8374 72.6002 29.8374H86.4877C87.3127 29.8374 87.8627 30.3874 87.8627 31.2124V74.7998C87.8627 75.0748 87.8627 75.3499 87.7251 75.4873L80.8501 87.3124C80.5751 87.725 80.1627 87.9999 79.6126 87.9999ZM74.1126 74.3875L79.75 83.8751L85.3874 74.3875V32.5874H74.2499V74.3874H74.1126V74.3875Z" fill="#183651"/>
<path d="M76.8625 73.6999V35.3374H82.4999V73.6999L79.6125 78.5124L76.8625 73.6999Z" fill="white"/>
<path d="M83.6001 18.5625H75.7627C74.1127 18.5625 72.7377 19.9375 72.7377 21.5875V31.2124H86.6252V21.5875C86.625 19.8001 85.25 18.5625 83.6001 18.5625Z" fill="#2DBF90"/>
<path d="M86.625 32.5877H72.7375C71.9125 32.5877 71.3625 32.0376 71.3625 31.2126V21.5877C71.3625 19.1128 73.2875 17.1877 75.7624 17.1877H83.5998C86.0748 17.1877 87.9998 19.1128 87.9998 21.5877V31.2126C88 31.9002 87.45 32.5877 86.625 32.5877ZM74.1125 29.8376H85.25V21.5875C85.25 20.625 84.5625 19.9376 83.6 19.9376H75.7626C74.8001 19.9376 74.1127 20.625 74.1127 21.5875L74.1125 29.8376Z" fill="#183651"/>
</g>
<defs>
<clipPath id="clip0_43_1788">
<rect width="88" height="88" fill="white"/>
</clipPath>
</defs>
</svg>
