<svg width="88" height="88" viewBox="0 0 88 88" fill="none" xmlns="http://www.w3.org/2000/svg">
<path d="M28.3192 62.2837C43.8836 62.2837 56.501 49.6663 56.501 34.1019C56.501 18.5376 43.8836 5.92017 28.3192 5.92017C12.7549 5.92017 0.137451 18.5376 0.137451 34.1019C0.137451 49.6663 12.7549 62.2837 28.3192 62.2837Z" fill="#9278FE"/>
<path d="M51.6893 63.1086C45.6406 56.7848 37.1173 53.2106 28.319 53.2106C19.5209 53.2106 11.135 56.7848 4.94874 63.1086C2.61185 65.5832 1.23712 68.745 1.23712 72.1818V86.6164H55.1261V72.1818C55.2636 68.745 54.0264 65.5832 51.6893 63.1086Z" fill="#2DBF90"/>
<path d="M55.2637 87.9911H1.37473C0.549928 87.9911 0 87.4412 0 86.6164V72.1818C0 68.47 1.37473 64.8957 3.98667 62.1462C10.3104 55.5476 19.1086 51.8358 28.3193 51.8358C37.3925 51.8358 46.3282 55.5476 52.6519 62.1462C55.2638 64.8957 56.6386 68.47 56.6386 72.1818V86.6164C56.6384 87.3036 56.0885 87.9911 55.2637 87.9911ZM2.74947 85.2416H53.8891V72.1818C53.8891 69.1574 52.7892 66.2704 50.5897 64.0709C44.8159 58.0222 36.5675 54.5853 28.3193 54.5853C19.9335 54.5853 11.8227 58.022 6.04886 64.0709C3.98685 66.2704 2.74947 69.1574 2.74947 72.1818V85.2416Z" fill="#183651"/>
<path d="M5.91125 80.9798V72.319C5.91125 70.3944 6.59853 68.7448 7.97327 67.37C13.3347 61.8711 20.7581 58.7092 28.4566 58.7092C36.155 58.7092 43.5784 61.8711 48.9398 67.37C50.1771 68.7448 51.0019 70.5319 51.0019 72.319V80.9798H5.91125V80.9798Z" fill="white"/>
<path d="M30.1064 58.4346L31.3436 54.3104L28.0442 50.8737L24.8823 54.3104L25.9822 58.4346L22.6828 72.7317L28.0442 78.9179L33.5431 72.7317L30.1064 58.4346Z" fill="#9278FE"/>
<path d="M39.3171 22.2794L31.7561 21.0422L20.7584 24.754L14.9846 31.765L16.7718 43.8626C16.7718 43.8626 16.7718 45.7872 17.1842 46.8869C20.346 56.6474 33.8183 57.3349 38.3549 48.2617C39.0422 47.0245 39.5921 44.4125 40.0045 42.6254L41.6541 28.7407L39.3171 22.2794Z" fill="white"/>
<path d="M27.9068 55.9601C22.2706 55.9601 17.5964 52.5233 15.8093 47.2993C15.3969 46.0621 15.3969 44.4123 15.2594 43.9999L13.4722 32.0399C13.4722 31.6275 13.4722 31.2151 13.7471 30.94L19.5209 23.929C19.6584 23.7915 19.9333 23.5166 20.2082 23.5166L31.2059 19.8048C31.4808 19.6673 31.6183 19.6673 31.8932 19.8048L39.4541 21.042C40.004 21.1795 40.4164 21.4544 40.554 21.8668L42.891 28.3281C43.0285 28.4656 43.0285 28.7405 43.0285 29.0154L41.3789 42.9V43.0376L41.1041 44.1374C40.6917 45.787 40.1417 47.7117 39.5918 48.8115C37.3923 53.2106 32.9932 55.9601 27.9068 55.9601ZM16.4966 32.1776L18.1462 43.5877V43.7252C18.1462 44.2751 18.2837 45.6498 18.5586 46.4747C19.9333 50.5989 23.6451 53.2108 28.0442 53.2108C32.0309 53.2108 35.4676 51.1488 37.2547 47.5745C37.6671 46.7497 38.0795 44.825 38.4919 43.4503L38.7668 42.3505L40.2791 28.8782L38.3544 23.5168L31.8932 22.4169L21.5828 25.8537L16.4966 32.1776Z" fill="#183651"/>
<path d="M35.6052 25.1665C35.6052 25.1665 34.5053 31.9026 21.858 30.8027C21.858 30.8027 15.9467 27.9157 17.1839 38.7761C17.1839 38.7761 17.3214 42.6252 16.909 43.8626C16.909 43.8626 3.16186 21.5922 21.4456 14.4436C21.4456 14.4436 32.0309 9.08224 36.9799 18.1554C36.9799 18.1554 47.9776 19.2553 43.1661 35.3395L40.1418 42.7629C40.0042 42.6254 41.379 23.7917 35.6052 25.1665Z" fill="#E0E4E8"/>
<path d="M16.7716 45.2371C16.3592 45.2371 15.8092 44.9623 15.6717 44.5499C15.3968 43.9999 8.11076 32.1774 11.2726 22.5543C12.6474 18.2928 15.9468 15.1309 20.8956 13.2062C20.8956 13.2062 24.195 11.5566 28.1816 11.5566C32.3058 11.5566 35.6051 13.4813 37.8046 16.918C39.1793 17.1929 41.9288 18.1553 43.8533 21.0422C46.1903 24.479 46.3277 29.428 44.4032 35.7517L41.3789 43.1751C41.104 43.8624 40.4165 44.1375 39.7293 43.9999C39.042 43.8624 38.6294 43.1751 38.6294 42.6252C39.0418 37.6762 38.7669 29.0154 36.7047 26.9534C36.5672 26.8159 36.5672 26.8159 36.4299 26.6785C35.6051 28.6032 32.7181 32.4523 24.3323 32.4523C23.5075 32.4523 22.5452 32.4523 21.5829 32.3148C21.4453 32.3148 21.308 32.3148 21.0329 32.1773C21.0329 32.1773 20.6205 32.0397 20.0706 32.0397C19.6582 32.0397 19.2458 32.1773 19.1083 32.4522C18.6959 33.0021 17.8711 34.5142 18.2835 38.7759C18.2835 39.6007 18.421 43.0374 17.8711 44.4122C17.7335 44.9621 17.3211 45.237 16.7712 45.3745C16.9091 45.2371 16.9091 45.2371 16.7716 45.2371ZM28.1818 14.1686C24.8824 14.1686 21.9956 15.5433 21.9956 15.5433C17.7341 17.1929 14.9846 19.8049 13.8847 23.2418C12.2351 28.3283 14.0223 34.377 15.6719 38.5012C15.2595 34.652 15.8094 31.9026 17.1841 30.3903C18.0089 29.5655 18.9713 29.0156 20.2085 29.0156C21.0333 29.0156 21.7207 29.2905 22.1331 29.428C22.9579 29.428 23.6454 29.5655 24.4702 29.5655C33.2684 29.5655 34.2307 25.1664 34.2307 24.8914C34.3682 24.3415 34.7806 23.9291 35.3305 23.7915C36.7053 23.5167 37.9425 23.9291 38.9048 24.8914C40.8295 26.9534 41.3792 31.3526 41.6543 35.4767L41.9291 34.7894C43.5788 29.428 43.4414 25.3038 41.6543 22.5543C39.8671 19.8049 36.9801 19.53 36.8428 19.53C36.4304 19.53 36.018 19.2551 35.7429 18.8427C34.0932 15.6807 31.4812 14.1686 28.1818 14.1686Z" fill="#183651"/>
<path d="M57.7383 18.2928L60.2127 17.3305C65.5741 22.0046 73.9598 43.3127 73.2726 50.4612L70.7982 51.4235L76.7095 66.683L78.4966 65.8582C83.9956 63.6586 87.2948 58.0223 86.3324 52.2484C84.5453 39.8759 75.6096 17.1929 68.4611 6.88269C65.1617 2.07121 58.8381 0.146554 53.3392 2.20857L51.5521 3.03337L57.7383 18.2928Z" fill="#E0E4E8"/>
<path d="M76.7092 68.0576C76.5717 68.0576 76.2968 68.0576 76.1593 67.92C75.8844 67.7825 75.6094 67.5076 75.472 67.0952L69.4233 51.9734C69.1485 51.2861 69.4233 50.4611 70.2481 50.1862L71.8978 49.4989C71.8978 42.3504 64.7492 24.0666 59.9377 18.9801L58.4255 19.6674C58.1506 19.8049 57.7382 19.8049 57.3256 19.6674C57.0507 19.5299 56.7757 19.255 56.6383 18.8426L50.4521 3.58318C50.1773 2.8959 50.4521 2.07092 51.1394 1.79605L52.9265 0.971242C54.5762 0.283962 56.3633 0.00891113 58.1504 0.00891113C62.8246 0.00891113 67.0861 2.34597 69.698 6.0576C76.9841 16.6429 85.9198 39.3259 87.8443 51.9732C88.8066 58.4344 85.2323 64.758 79.0461 67.0951L77.259 68.0574C77.1216 68.0576 76.8468 68.0576 76.7092 68.0576ZM72.4477 52.2484L77.3967 65.0332L77.9466 64.7584C82.8956 62.8337 85.7824 57.7473 84.9576 52.5233C83.1705 40.4257 74.2348 17.7429 67.3612 7.70738C65.2991 4.68304 61.7249 2.75838 58.0131 2.75838C56.6383 2.75838 55.2636 3.03325 53.8889 3.58318L53.3389 3.85806L58.2879 16.6429L59.3878 16.2305C59.8002 16.093 60.3501 16.093 60.7625 16.5054C66.6739 21.3168 75.3345 43.0375 74.5097 50.5984C74.5097 51.1484 74.0973 51.5608 73.6849 51.6983L72.4477 52.2484Z" fill="#183651"/>
<path d="M66.3988 53.0732C64.6117 53.7605 63.7869 55.8227 64.4741 57.4723L67.9109 66.408C68.5982 68.1951 70.6604 69.0199 72.31 68.3326L76.5715 66.683L70.5228 51.4236L66.3988 53.0732Z" fill="white"/>
<path d="M71.2105 69.9823C69.2858 69.9823 67.4987 68.7451 66.8114 66.9579L63.3747 58.0223C62.4124 55.5478 63.6496 52.7984 66.1241 51.836L70.3857 50.1864C71.073 49.9116 71.898 50.324 72.1728 51.0112L78.2215 66.2707C78.359 66.5455 78.359 66.9579 78.2215 67.3705C78.084 67.6454 77.8091 67.9204 77.3967 68.0578L73.1352 69.7074C72.4477 69.8448 71.7603 69.9823 71.2105 69.9823ZM69.9731 53.2106L66.9488 54.3105C65.8489 54.7229 65.4365 55.9601 65.8489 56.9224L69.2857 65.8581C69.5605 66.6829 70.3855 67.0953 71.2103 67.0953C71.4852 67.0953 71.7603 67.0953 71.8976 66.9578L74.9219 65.8579L69.9731 53.2106Z" fill="#183651"/>
<path d="M47.4279 4.68293C45.6408 5.37021 44.816 7.4324 45.5033 9.08201L48.94 18.0177C49.6273 19.8048 51.6895 20.6296 53.3391 19.9423L57.6006 18.2927L51.6893 3.03333L47.4279 4.68293Z" fill="white"/>
<path d="M52.1018 21.592C50.1771 21.592 48.39 20.3548 47.7027 18.5677L44.266 9.63199C43.3036 7.15758 44.5409 4.40811 47.0154 3.44578L51.277 1.79617C51.9643 1.5213 52.7893 1.9337 53.0641 2.62098L59.1128 17.8804C59.2503 18.1553 59.2503 18.5677 59.1128 18.9802C58.9753 19.2551 58.7004 19.5302 58.288 19.6675L53.8889 21.3171C53.3392 21.4547 52.7893 21.592 52.1018 21.592ZM50.8646 4.82051L47.8403 5.92037C46.7404 6.33277 46.328 7.56998 46.7404 8.53231L50.1771 17.468C50.452 18.2928 51.277 18.7052 52.1018 18.7052C52.3767 18.7052 52.6517 18.7052 52.7891 18.5677L55.8134 17.4678L50.8646 4.82051Z" fill="#183651"/>
<path d="M68.9911 22.8497L70.0301 25.395L72.5754 24.3561L71.5364 21.8108L68.9911 22.8497Z" fill="#183651"/>
<path d="M72.0361 30.1126L73.074 32.6586L75.62 31.6206L74.582 29.0746L72.0361 30.1126Z" fill="#183651"/>
<path d="M74.9037 37.3041L75.9417 39.8501L78.4877 38.8122L77.4497 36.2662L74.9037 37.3041Z" fill="#183651"/>
</svg>
