<svg width="103" height="99" viewBox="0 0 103 99" fill="none" xmlns="http://www.w3.org/2000/svg">
<path d="M58.9973 87.9946C83.2963 87.9946 102.995 68.2963 102.995 43.9973C102.995 19.6983 83.2963 0 58.9973 0C34.6983 0 15 19.6983 15 43.9973C15 68.2963 34.6983 87.9946 58.9973 87.9946Z" fill="#9278FE"/>
<g clip-path="url(#clip0_70_1174)">
<path d="M44 72.875C59.9472 72.875 72.875 69.797 72.875 66C72.875 62.203 59.9472 59.125 44 59.125C28.0528 59.125 15.125 62.203 15.125 66C15.125 69.797 28.0528 72.875 44 72.875Z" fill="#2DBF90"/>
<path d="M72.875 66C72.875 69.795 59.95 72.875 44 72.875C28.05 72.875 15.125 69.795 15.125 66C15.125 66 15.125 97.625 44 97.625C72.875 97.625 72.875 66 72.875 66Z" fill="white"/>
<path d="M44 78.375C64.625 78.375 71.5 74.25 71.5 74.25H71.7887C72.4323 71.5444 72.7963 68.7799 72.875 66C72.875 69.795 59.95 72.875 44 72.875C28.05 72.875 15.125 69.795 15.125 66C15.2037 68.7799 15.5677 71.5444 16.2112 74.25H16.5C16.5 74.25 23.375 78.375 44 78.375Z" fill="#9278FE"/>
<path d="M15.125 52.25H1.375V56.375C1.375 57.469 1.8096 58.5182 2.58318 59.2918C3.35677 60.0654 4.40598 60.5 5.5 60.5V94.875C5.5 95.6043 5.78973 96.3038 6.30546 96.8195C6.82118 97.3353 7.52065 97.625 8.25 97.625C8.97935 97.625 9.67882 97.3353 10.1945 96.8195C10.7103 96.3038 11 95.6043 11 94.875V60.5C12.094 60.5 13.1432 60.0654 13.9168 59.2918C14.6904 58.5182 15.125 57.469 15.125 56.375V52.25Z" fill="white"/>
<path d="M86.625 52.25C86.625 46.9288 83.545 42.625 79.75 42.625C75.955 42.625 72.875 46.9288 72.875 52.25C72.875 56.1962 74.5663 59.5787 77 61.0637V94.875C77 95.6043 77.2897 96.3038 77.8055 96.8195C78.3212 97.3353 79.0207 97.625 79.75 97.625C80.4793 97.625 81.1788 97.3353 81.6945 96.8195C82.2103 96.3038 82.5 95.6043 82.5 94.875V61.0637C84.9337 59.5787 86.625 56.1962 86.625 52.25V52.25Z" fill="white"/>
<path d="M39.875 68.75C41.3938 68.75 42.625 67.5188 42.625 66C42.625 64.4812 41.3938 63.25 39.875 63.25C38.3562 63.25 37.125 64.4812 37.125 66C37.125 67.5188 38.3562 68.75 39.875 68.75Z" fill="#9278FE"/>
<path d="M48.125 56.375H53.625L56.375 63.25L48.125 64.625V56.375Z" fill="#2DBF90"/>
<path d="M34.375 46.75L39.875 45.375L42.625 49.5L35.75 53.625L34.375 46.75Z" fill="#2DBF90"/>
<path d="M54.4362 33.2613C62.6862 29.1363 66.8112 30.5113 66.8112 30.5113C66.0614 34.1356 65.6016 37.8139 65.4362 41.5113C65.4362 47.0113 59.9362 49.7613 54.4362 49.7613C47.5612 49.7613 46.1862 37.3863 54.4362 33.2613Z" fill="#9278FE"/>
<path d="M43.4362 35.75C17.3112 41.25 21.4362 12.375 21.4362 12.375C21.4362 12.375 32.2025 16.5 36.5612 16.5C42.0612 16.5 47.5612 22 47.5612 27.5C47.5612 29.101 47.1885 30.6799 46.4725 32.1119C45.7565 33.5438 44.717 34.7894 43.4362 35.75V35.75Z" fill="#2DBF90"/>
<path d="M37.2762 37.8261C39.5884 37.6904 41.8868 37.3778 44.1512 36.8911C45.631 35.8122 46.8355 34.3995 47.6669 32.7678C48.4983 31.136 48.9332 29.3312 48.9362 27.4999C48.9362 21.2574 42.8037 15.1249 36.5612 15.1249C33.2062 15.1249 24.86 12.2099 21.9175 11.0961C21.7257 11.0229 21.5199 10.9935 21.3153 11.0101C21.1107 11.0268 20.9124 11.0891 20.735 11.1924C20.5579 11.2974 20.4066 11.4409 20.2924 11.6123C20.1781 11.7836 20.1038 11.9785 20.075 12.1824C19.9925 12.7599 18.1087 26.5649 25.7675 33.7286C28.9226 36.543 33.0524 38.0133 37.2762 37.8261V37.8261ZM22.6462 14.2861C25.9187 15.4686 33 17.8749 36.5612 17.8749C39.0519 18.062 41.3928 19.1362 43.1589 20.9022C44.925 22.6683 45.9991 25.0093 46.1862 27.4999C46.1907 28.6778 45.9607 29.8448 45.5099 30.9331C45.059 32.0213 44.3962 33.009 43.56 33.8386L32.0787 21.0786C31.8344 20.8069 31.4922 20.6434 31.1273 20.6241C30.7624 20.6048 30.4048 20.7312 30.1331 20.9755C29.8614 21.2198 29.6979 21.5621 29.6786 21.927C29.6593 22.2918 29.7857 22.6494 30.03 22.9211L40.7412 34.8149C35.0762 35.5711 30.6762 34.5536 27.6512 31.7211C22.495 26.9086 22.4125 18.0124 22.6462 14.2861Z" fill="black"/>
<path d="M47.6712 45.1411C48.5375 48.8399 51.1362 51.1361 54.4362 51.1361C60.39 51.1361 66.8112 48.1249 66.8112 41.5111C66.9873 37.9056 67.4471 34.3195 68.1862 30.7861C68.2535 30.4554 68.1968 30.1116 68.0269 29.82C67.857 29.5284 67.5858 29.3095 67.265 29.2049C66.7975 29.0536 62.3562 27.8299 53.845 32.0374C51.5006 33.2187 49.6191 35.1507 48.5002 37.5255C47.3814 39.9002 47.0895 42.5812 47.6712 45.1411ZM55 34.4986C58.0145 32.7903 61.3849 31.8065 64.845 31.6249H65.175C64.5508 34.8683 64.1784 38.1552 64.0612 41.4561C64.0612 46.1861 59.07 48.3311 54.4362 48.3311C54.1067 48.3342 53.7783 48.2926 53.46 48.2074L59.675 39.5036C59.8852 39.2078 59.9698 38.8409 59.9106 38.4828C59.8514 38.1248 59.653 37.8047 59.3587 37.5924C59.2118 37.4862 59.0453 37.4101 58.8688 37.3685C58.6923 37.3269 58.5094 37.3206 58.3304 37.35C58.1515 37.3794 57.9802 37.4439 57.8263 37.5397C57.6724 37.6356 57.539 37.761 57.4337 37.9086L51.26 46.5711C50.8371 45.9215 50.5257 45.2058 50.3387 44.4536C49.9102 42.5126 50.1348 40.4843 50.9778 38.6841C51.8207 36.8838 53.2347 35.4124 55 34.4986V34.4986Z" fill="black"/>
<path d="M74.25 66C74.25 62.81 69.575 60.7063 59.3313 59.2075C59.1507 59.1804 58.9665 59.1892 58.7894 59.2333C58.6122 59.2773 58.4454 59.3559 58.2986 59.4644C58.1517 59.5729 58.0277 59.7093 57.9336 59.8658C57.8395 60.0222 57.7771 60.1957 57.75 60.3763C57.7229 60.5568 57.7317 60.741 57.7757 60.9182C57.8198 61.0953 57.8984 61.2621 58.0069 61.4089C58.1154 61.5558 58.2518 61.6798 58.4083 61.7739C58.5647 61.868 58.7382 61.9304 58.9187 61.9575C71.2937 63.7863 71.5 66.0825 71.5 66.0825C71.5 67.9525 61.765 71.5825 44 71.5825C26.235 71.5825 16.5 67.9525 16.5 66.0825C16.5 64.2125 26.2075 60.5825 44 60.5825C44.3647 60.5825 44.7144 60.4376 44.9723 60.1798C45.2301 59.9219 45.375 59.5722 45.375 59.2075C45.375 58.8428 45.2301 58.4931 44.9723 58.2352C44.7144 57.9774 44.3647 57.8325 44 57.8325C29.48 57.8325 13.8738 60.4038 13.75 66.0825V66.165C13.75 67.8563 14.8088 99 44 99C73.1912 99 74.25 67.8563 74.25 66.0825V66ZM44 74.25C54.6562 74.25 65.9038 72.875 71.1838 69.905C71.0463 70.8675 70.8675 71.9813 70.62 73.1638C69.4925 73.7413 62.37 77 44 77C25.63 77 18.535 73.7413 17.38 73.1638C17.1325 71.9813 16.9537 70.8675 16.8162 69.905C22.0962 72.875 33.3438 74.25 44 74.25ZM44 96.25C32.6425 96.25 24.5713 91.2313 20.02 81.3175C19.3108 79.7515 18.709 78.139 18.2188 76.4913C21.7937 77.77 29.6313 79.75 44 79.75C58.3687 79.75 66.2063 77.77 69.7812 76.4913C69.291 78.139 68.6892 79.7515 67.98 81.3175C63.4287 91.2313 55.3575 96.25 44 96.25V96.25Z" fill="black"/>
<path d="M79.75 41.25C75.1988 41.25 71.5 46.1863 71.5 52.25C71.4333 54.0474 71.7691 55.837 72.4827 57.488C73.1964 59.139 74.27 60.6097 75.625 61.7925V94.875C75.625 95.969 76.0596 97.0182 76.8332 97.7918C77.6068 98.5654 78.656 99 79.75 99C80.844 99 81.8932 98.5654 82.6668 97.7918C83.4404 97.0182 83.875 95.969 83.875 94.875V61.7925C85.23 60.6097 86.3036 59.139 87.0173 57.488C87.7309 55.837 88.0667 54.0474 88 52.25C88 46.1863 84.3012 41.25 79.75 41.25V41.25ZM81.785 59.895C81.5843 60.0172 81.4182 60.1888 81.3027 60.3934C81.1872 60.598 81.126 60.8288 81.125 61.0637V94.875C81.125 95.2397 80.9801 95.5894 80.7223 95.8473C80.4644 96.1051 80.1147 96.25 79.75 96.25C79.3853 96.25 79.0356 96.1051 78.7777 95.8473C78.5199 95.5894 78.375 95.2397 78.375 94.875V61.0637C78.374 60.8288 78.3128 60.598 78.1973 60.3934C78.0818 60.1888 77.9157 60.0172 77.715 59.895C75.625 58.6025 74.25 55.605 74.25 52.25C74.25 47.7812 76.7663 44 79.75 44C82.7337 44 85.25 47.7812 85.25 52.25C85.25 55.605 83.875 58.6025 81.785 59.895V59.895Z" fill="black"/>
<path d="M16.5 56.375V42.625C16.5 42.2603 16.3551 41.9106 16.0973 41.6527C15.8394 41.3949 15.4897 41.25 15.125 41.25C14.7603 41.25 14.4106 41.3949 14.1527 41.6527C13.8949 41.9106 13.75 42.2603 13.75 42.625V50.875H9.625V42.625C9.625 42.2603 9.48013 41.9106 9.22227 41.6527C8.96441 41.3949 8.61467 41.25 8.25 41.25C7.88533 41.25 7.53559 41.3949 7.27773 41.6527C7.01987 41.9106 6.875 42.2603 6.875 42.625V50.875H2.75V42.625C2.75 42.2603 2.60513 41.9106 2.34727 41.6527C2.08941 41.3949 1.73967 41.25 1.375 41.25C1.01033 41.25 0.660591 41.3949 0.402728 41.6527C0.144866 41.9106 0 42.2603 0 42.625L0 56.375C0.000908982 57.5936 0.406512 58.7774 1.15312 59.7406C1.89974 60.7037 2.94507 61.3916 4.125 61.6962V94.875C4.125 95.969 4.5596 97.0182 5.33318 97.7918C6.10677 98.5654 7.15598 99 8.25 99C9.34402 99 10.3932 98.5654 11.1668 97.7918C11.9404 97.0182 12.375 95.969 12.375 94.875V61.6962C13.5549 61.3916 14.6003 60.7037 15.3469 59.7406C16.0935 58.7774 16.4991 57.5936 16.5 56.375V56.375ZM13.75 56.375C13.75 57.1043 13.4603 57.8038 12.9445 58.3195C12.4288 58.8353 11.7293 59.125 11 59.125C10.6353 59.125 10.2856 59.2699 10.0277 59.5277C9.76987 59.7856 9.625 60.1353 9.625 60.5V94.875C9.625 95.2397 9.48013 95.5894 9.22227 95.8473C8.96441 96.1051 8.61467 96.25 8.25 96.25C7.88533 96.25 7.53559 96.1051 7.27773 95.8473C7.01987 95.5894 6.875 95.2397 6.875 94.875V60.5C6.875 60.1353 6.73013 59.7856 6.47227 59.5277C6.21441 59.2699 5.86467 59.125 5.5 59.125C4.77065 59.125 4.07118 58.8353 3.55546 58.3195C3.03973 57.8038 2.75 57.1043 2.75 56.375V53.625H13.75V56.375Z" fill="black"/>
<path d="M39.545 44L34.045 45.375C33.8676 45.414 33.6998 45.4878 33.5511 45.592C33.4024 45.6962 33.2758 45.8288 33.1786 45.9822C33.0815 46.1357 33.0157 46.3068 32.985 46.4858C32.9544 46.6647 32.9594 46.848 33 47.025L34.375 53.9C34.4204 54.1145 34.5165 54.3151 34.6553 54.4849C34.794 54.6547 34.9714 54.7889 35.1725 54.8763C35.3522 54.9635 35.5503 55.006 35.75 55C35.9968 54.9999 36.239 54.9335 36.4512 54.8075L43.3262 50.6825C43.4857 50.5871 43.6241 50.4603 43.7331 50.3098C43.8421 50.1594 43.9196 49.9884 43.9607 49.8072C44.0018 49.626 44.0058 49.4384 43.9724 49.2556C43.9389 49.0728 43.8688 48.8987 43.7662 48.7438L41.0162 44.6188C40.8659 44.3754 40.6433 44.185 40.3796 44.0741C40.1159 43.9632 39.8241 43.9373 39.545 44V44ZM36.7125 51.4388L35.9837 47.7675L39.27 46.9425L40.645 49.06L36.7125 51.4388Z" fill="black"/>
<path d="M35.75 66C35.75 66.8159 35.9919 67.6134 36.4452 68.2917C36.8984 68.9701 37.5427 69.4988 38.2964 69.811C39.0502 70.1232 39.8796 70.2049 40.6798 70.0457C41.4799 69.8866 42.2149 69.4937 42.7918 68.9168C43.3687 68.3399 43.7616 67.6049 43.9207 66.8047C44.0799 66.0046 43.9982 65.1752 43.686 64.4214C43.3738 63.6677 42.8451 63.0235 42.1667 62.5702C41.4884 62.1169 40.6909 61.875 39.875 61.875C38.781 61.875 37.7318 62.3096 36.9582 63.0832C36.1846 63.8568 35.75 64.906 35.75 66V66ZM41.25 66C41.25 66.272 41.1694 66.5378 41.0183 66.7639C40.8672 66.99 40.6524 67.1663 40.4012 67.2703C40.1499 67.3744 39.8735 67.4016 39.6068 67.3486C39.34 67.2955 39.095 67.1646 38.9027 66.9723C38.7104 66.78 38.5795 66.535 38.5264 66.2683C38.4734 66.0015 38.5006 65.7251 38.6047 65.4738C38.7087 65.2226 38.885 65.0078 39.1111 64.8567C39.3372 64.7056 39.6031 64.625 39.875 64.625C40.2397 64.625 40.5894 64.7699 40.8473 65.0277C41.1051 65.2856 41.25 65.6353 41.25 66Z" fill="black"/>
<path d="M53.625 55H48.125C47.7603 55 47.4106 55.1449 47.1527 55.4027C46.8949 55.6606 46.75 56.0103 46.75 56.375V64.625C46.75 64.9897 46.8949 65.3394 47.1527 65.5973C47.4106 65.8551 47.7603 66 48.125 66H48.345L56.595 64.625C56.7989 64.5912 56.9926 64.5118 57.1616 64.3927C57.3307 64.2737 57.4707 64.1181 57.5712 63.9375C57.6723 63.759 57.7322 63.5602 57.7465 63.3556C57.7607 63.151 57.7291 62.9458 57.6537 62.755L54.9037 55.88C54.804 55.6216 54.6286 55.3993 54.4004 55.2423C54.1723 55.0853 53.902 55.0008 53.625 55ZM49.5 63.0025V57.75H52.69L54.4637 62.1775L49.5 63.0025Z" fill="black"/>
<path d="M34.8837 89.4712C28.875 87.0374 27.5 82.3624 27.5 82.1562C27.4106 81.8025 27.1844 81.4987 26.8711 81.3118C26.5578 81.1248 26.1831 81.07 25.8294 81.1593C25.4756 81.2487 25.1719 81.4749 24.9849 81.7882C24.798 82.1015 24.7431 82.4762 24.8325 82.8299C25.5453 84.9528 26.7334 86.8848 28.306 88.4789C29.8787 90.0731 31.7945 91.2871 33.9075 92.0287C34.0565 92.0878 34.2147 92.1204 34.375 92.125C34.6953 92.1257 35.0059 92.0147 35.253 91.8109C35.5002 91.6071 35.6684 91.3234 35.7288 91.0088C35.7891 90.6942 35.7376 90.3685 35.5834 90.0877C35.4291 89.807 35.1816 89.5889 34.8837 89.4712V89.4712Z" fill="black"/>
<path d="M37.125 90.75H39.875V93.5H37.125V90.75Z" fill="black"/>
</g>
<defs>
<clipPath id="clip0_70_1174">
<rect width="88" height="88" fill="white" transform="translate(0 11)"/>
</clipPath>
</defs>
</svg>
