<svg width="88" height="88" viewBox="0 0 88 88" fill="none" xmlns="http://www.w3.org/2000/svg">
<path d="M44.0027 88C68.3017 88 88 68.3017 88 44.0027C88 19.7036 68.3017 0.00537109 44.0027 0.00537109C19.7037 0.00537109 0.00540161 19.7036 0.00540161 44.0027C0.00540161 68.3017 19.7037 88 44.0027 88Z" fill="#9278FE"/>
<path d="M7.56754 64.3515H51.5648C55.0021 64.3515 57.7519 61.6016 57.7519 58.1644V7.43C57.7519 3.99277 55.0021 1.24292 51.5648 1.24292L19.9417 1.38046L1.38046 20.0793V58.3018C1.38046 61.6016 4.13032 64.3515 7.56754 64.3515Z" fill="#4FBF9F"/>
<path d="M51.4274 65.7265H7.56762C3.44284 65.7265 0.00561523 62.2892 0.00561523 58.1645V20.0793C0.00561523 19.6669 0.14316 19.392 0.418076 19.1169L18.9793 0.418076C19.2542 0.14316 19.5293 0.00561523 19.9418 0.00561523H51.4274C55.5521 0.00561523 58.9894 3.44284 58.9894 7.56762V58.3018C58.9894 62.4266 55.5521 65.7265 51.4274 65.7265ZM2.75547 20.6293V58.302C2.75547 60.9143 4.95531 63.1142 7.56762 63.1142H51.5649C54.1772 63.1142 56.3771 60.9143 56.3771 58.302V7.56762C56.3771 4.95531 54.1772 2.75547 51.5649 2.75547H20.4918L2.75547 20.6293Z" fill="#183651"/>
<path d="M51.4273 7.56763V58.3018H7.5676V20.0793L19.9418 7.56763H51.4273Z" fill="white"/>
<path d="M29.7037 12.1047H26.9539V15.1295H29.7037V12.1047Z" fill="#183651"/>
<path d="M37.6782 12.1047H34.9283V15.1295H37.6782V12.1047Z" fill="#183651"/>
<path d="M45.5151 12.1047H42.7653V15.1295H45.5151V12.1047Z" fill="#183651"/>
<path d="M19.9417 1.38037L1.38046 20.0792H13.7546C17.1919 20.0792 19.9417 17.3293 19.9417 13.8921V1.38037Z" fill="white"/>
<path d="M13.7551 21.4542H1.38089C0.830882 21.4542 0.280877 21.1793 0.143506 20.6293C-0.131409 20.0793 0.00596129 19.5293 0.418422 19.1168L18.9797 0.418041C19.3921 0.00558085 19.9421 -0.131964 20.4921 0.143126C21.0421 0.280671 21.3171 0.830502 21.3171 1.38051V13.8922C21.3171 18.017 18.0174 21.4542 13.7551 21.4542ZM4.68057 18.7044H13.7551C16.3674 18.7044 18.5672 16.5045 18.5672 13.8922V4.68019L4.68057 18.7044Z" fill="#183651"/>
<path d="M46.4776 50.3274H12.5172V53.0772H46.4776V50.3274Z" fill="#183651"/>
<path d="M46.4776 40.8406H12.5172V43.5904H46.4776V40.8406Z" fill="#183651"/>
<path d="M46.4776 31.3535H12.5172V34.1034H46.4776V31.3535Z" fill="#183651"/>
<path d="M46.4776 21.8667H26.8163V24.6165H46.4776V21.8667Z" fill="#183651"/>
<path d="M68.3388 47.9899C78.4381 47.9899 86.6251 39.8028 86.6251 29.7036C86.6251 19.6043 78.4381 11.4172 68.3388 11.4172C58.2395 11.4172 50.0525 19.6043 50.0525 29.7036C50.0525 39.8028 58.2395 47.9899 68.3388 47.9899Z" fill="#2DBF90"/>
<path d="M68.3387 49.365C57.4769 49.365 48.6775 40.5656 48.6775 29.7037C48.6775 18.8419 57.4769 10.0425 68.3387 10.0425C79.2006 10.0425 88 18.8419 88 29.7037C88 40.5656 79.2006 49.365 68.3387 49.365ZM68.3387 12.7923C58.9894 12.7923 51.4273 20.3543 51.4273 29.7037C51.4273 39.0531 58.9894 46.6151 68.3387 46.6151C77.6881 46.6151 85.2501 39.0531 85.2501 29.7037C85.2501 20.3543 77.6881 12.7923 68.3387 12.7923Z" fill="#183651"/>
<path d="M68.3388 42.9028C61.0517 42.9028 55.1397 36.9906 55.1397 29.7037C55.1397 22.4168 61.0518 16.5046 68.3388 16.5046C75.6257 16.5046 81.5378 22.4168 81.5378 29.7037C81.5378 36.9906 75.4883 42.9028 68.3388 42.9028Z" fill="white"/>
<path d="M67.9262 36.3033V35.2033C66.4137 35.0657 65.1763 34.5159 63.939 33.4159L65.039 32.0409C66.0014 32.8659 66.8264 33.2783 67.7888 33.4159V30.2536C66.5514 29.9786 65.7265 29.5662 65.1765 29.1535C64.6265 28.7411 64.3516 28.0535 64.3516 27.0912C64.3516 26.1289 64.6265 25.4414 65.3141 24.8914C66.0014 24.3414 66.8265 23.9289 67.7888 23.9289V23.104H68.7513V23.9289C69.9887 24.0665 71.0887 24.4789 72.0512 25.1663L70.9511 26.6788C70.2638 26.1288 69.4387 25.8539 68.6138 25.7163V28.7411C69.8511 29.016 70.6761 29.4285 71.3636 29.8411C71.9136 30.3911 72.1885 31.0785 72.1885 32.0409C72.1885 33.0034 71.9136 33.6908 71.2261 34.3783C70.5387 34.9283 69.7136 35.3408 68.6138 35.3408V36.4408H67.9264V36.3033H67.9262ZM66.8262 25.9914C66.5513 26.2663 66.4137 26.5414 66.4137 26.9539C66.4137 27.3663 66.5513 27.6412 66.6886 27.7788C66.9636 28.0537 67.2387 28.1912 67.926 28.3288V25.5789C67.5137 25.5789 67.1013 25.8539 66.8262 25.9914ZM70.1261 33.0034C70.401 32.7285 70.5385 32.4534 70.5385 32.0409C70.5385 31.6285 70.401 31.3536 70.1261 31.216C69.8511 30.9411 69.4387 30.8036 68.7511 30.666V33.5534C69.4387 33.4159 69.8511 33.2783 70.1261 33.0034Z" fill="#2DBF90"/>
<path d="M77.5506 30.9411C78.2339 30.9411 78.7879 30.3871 78.7879 29.7037C78.7879 29.0203 78.2339 28.4663 77.5506 28.4663C76.8672 28.4663 76.3132 29.0203 76.3132 29.7037C76.3132 30.3871 76.8672 30.9411 77.5506 30.9411Z" fill="#2DBF90"/>
<path d="M58.9893 30.9411C59.6727 30.9411 60.2267 30.3871 60.2267 29.7037C60.2267 29.0203 59.6727 28.4663 58.9893 28.4663C58.3059 28.4663 57.752 29.0203 57.752 29.7037C57.752 30.3871 58.3059 30.9411 58.9893 30.9411Z" fill="#2DBF90"/>
<path d="M80.7129 82.6379L86.6251 59.127L63.2515 65.1765L69.5761 69.5762L59.1269 80.0256L65.7264 86.6251L76.1757 76.1757L80.7129 82.6379Z" fill="#E0E4E8"/>
<path d="M65.7264 88C65.3139 88 65.039 87.8624 64.7639 87.5875L58.1644 80.988C57.6144 80.438 57.6144 79.613 58.1644 79.063L67.5138 69.7136L62.4265 66.1389C62.0141 65.864 61.7392 65.314 61.8765 64.764C62.0141 64.2139 62.4265 63.8015 62.839 63.6639L86.2126 57.7518C86.625 57.6142 87.175 57.7518 87.5875 58.1642C87.8624 58.4392 87.9999 58.9892 87.9999 59.5392L82.0878 82.9127C81.9502 83.4627 81.5378 83.8752 80.9878 83.8752C80.4378 84.0127 79.8878 83.7376 79.6128 83.3252L76.0381 78.2379L66.6887 87.5873C66.4138 87.8624 66.1389 88 65.7264 88ZM61.1892 80.0255L65.7264 84.5627L75.2133 75.0758C75.4882 74.8009 75.9007 74.6633 76.3133 74.6633C76.726 74.6633 77.1383 74.9383 77.2758 75.2134L80.0256 79.2006L84.7001 60.9143L66.4138 65.589L70.401 68.3389C70.6759 68.6138 70.951 68.8889 70.951 69.3014C70.951 69.7138 70.8135 70.1263 70.5385 70.4014L61.1892 80.0255Z" fill="#183651"/>
</svg>
