<svg width="88" height="88" viewBox="0 0 88 88" fill="none" xmlns="http://www.w3.org/2000/svg">
<g clip-path="url(#clip0_42_1649)">
<path d="M44.0001 88.0002C68.3007 88.0002 88.0002 68.3007 88.0002 44.0001C88.0002 19.6995 68.3007 0 44.0001 0C19.6995 0 0 19.6995 0 44.0001C0 68.3007 19.6995 88.0002 44.0001 88.0002Z" fill="#9278FE"/>
<path d="M62.2875 34.0997H59.5375V36.8498H62.2875V34.0997Z" fill="#183651"/>
<path d="M70.675 34.0997H67.925V36.8498H70.675V34.0997Z" fill="#183651"/>
<path d="M78.9249 34.0997H76.1749V36.8498H78.9249V34.0997Z" fill="#183651"/>
<path d="M11.825 51.1498H9.07499V53.8998H11.825V51.1498Z" fill="#183651"/>
<path d="M20.075 51.1498H17.3249V53.8998H20.075V51.1498Z" fill="#183651"/>
<path d="M28.4623 51.1498H25.7123V53.8998H28.4623V51.1498Z" fill="#183651"/>
<path d="M25.575 11.4122L23.6499 9.48728L26.125 6.87481L23.6499 4.26216L25.575 2.33728L30.1125 6.87481L25.575 11.4122Z" fill="#183651"/>
<path d="M28.0499 5.49988H19.5249V8.24991H28.0499V5.49988Z" fill="#183651"/>
<path d="M53.075 75.4877H34.9251V86.6252H53.075V75.4877Z" fill="#2DBF90"/>
<path d="M53.075 88.0002H34.925C34.1 88.0002 33.55 87.4501 33.55 86.6252V75.4877C33.55 74.6627 34.1 74.1127 34.925 74.1127H53.075C53.8999 74.1127 54.45 74.6627 54.45 75.4877V86.6252C54.45 87.4501 53.8999 88.0002 53.075 88.0002ZM36.3 85.2502H51.7001V76.8627H36.3V85.2502V85.2502Z" fill="#183651"/>
<path d="M53.075 56.9252H34.9251V68.0626H53.075V56.9252Z" fill="white"/>
<path d="M53.075 69.4375H34.925C34.1 69.4375 33.55 68.8875 33.55 68.0625V56.9251C33.55 56.1001 34.1 55.55 34.925 55.55H53.075C53.8999 55.55 54.45 56.1001 54.45 56.9251V68.0625C54.45 68.8875 53.8999 69.4375 53.075 69.4375ZM36.3 66.6875H51.7001V58.3001H36.3V66.6875V66.6875Z" fill="#183651"/>
<path d="M53.075 38.5H34.9251V49.6375H53.075V38.5Z" fill="#2DBF90"/>
<path d="M53.075 50.8751H34.925C34.1 50.8751 33.55 50.325 33.55 49.5V38.3626C33.55 37.5376 34.1 36.9875 34.925 36.9875H53.075C53.8999 36.9875 54.45 37.5376 54.45 38.3626V49.5C54.45 50.325 53.8999 50.8751 53.075 50.8751ZM36.3 48.125H51.7001V39.7376H36.3V48.125V48.125Z" fill="#183651"/>
<path d="M53.075 19.9373H34.9251V31.0747H53.075V19.9373Z" fill="white"/>
<path d="M53.075 32.45H34.925C34.1 32.45 33.55 31.9 33.55 31.075V19.9375C33.55 19.1125 34.1 18.5625 34.925 18.5625H53.075C53.8999 18.5625 54.45 19.1125 54.45 19.9375V31.075C54.45 31.7626 53.8999 32.45 53.075 32.45ZM36.3 29.7002H51.7001V21.3127H36.3V29.7002V29.7002Z" fill="#183651"/>
<path d="M53.075 1.375H34.9251V12.5125H53.075V1.375Z" fill="#2DBF90"/>
<path d="M53.075 13.8875H34.925C34.1001 13.8875 33.55 13.3375 33.55 12.5125V1.37501C33.55 0.55004 34.1001 0 34.925 0H53.075C53.9 0 54.45 0.55004 54.45 1.37501V12.5125C54.45 13.1999 53.9 13.8875 53.075 13.8875ZM36.3 11.1375H51.7001V2.75003H36.3V11.1375V11.1375Z" fill="#183651"/>
<path d="M59.1249 85.1124L57.1999 83.1874L59.6748 80.7123L57.1999 78.0998L59.1249 76.1749L63.5249 80.7123L59.1249 85.1124Z" fill="#183651"/>
<path d="M61.5999 79.3373H53.0749V82.0873H61.5999V79.3373Z" fill="#183651"/>
<path d="M26.6748 84.5627L24.6124 82.6377L27.2249 80.0252L24.6124 77.4127L26.6748 75.4877L31.0748 80.0252L26.6748 84.5627Z" fill="#183651"/>
<path d="M29.0124 81.4H11.1374C5.49999 81.4 0.962464 76.8625 0.962464 71.2251C0.962464 65.5876 5.63755 61.1875 11.275 61.1875H34.925V63.9375H11.275C7.14994 63.9375 3.85004 67.2376 3.85004 71.3625C3.85004 75.4873 7.15011 78.7874 11.275 78.7874H29.15V81.3999H29.0124V81.4Z" fill="#183651"/>
<path d="M26.6748 47.4375L24.6124 45.5125L27.2249 43.0375L24.6124 40.4251L26.6748 38.5L31.0748 43.0375L26.6748 47.4375Z" fill="#183651"/>
<path d="M29.0124 44.4127H11.1374C5.49999 44.4127 0.962464 39.8751 0.962464 34.2377C0.962464 28.6003 5.63755 24.0627 11.275 24.0627H34.925V26.8126H11.275C7.14994 26.8126 3.85004 30.1127 3.85004 34.2375C3.85004 38.3624 7.15011 41.6625 11.275 41.6625H29.15V44.4125H29.0124V44.4127Z" fill="#183651"/>
<path d="M61.3251 66.6875L56.9251 62.15L61.3251 57.75L63.3875 59.6749L60.775 62.15L63.3875 64.7624L61.3251 66.6875Z" fill="#183651"/>
<path d="M76.7248 63.5251H58.8498V60.7751H76.7248C80.8499 60.7751 84.1498 57.475 84.1498 53.3502V52.6627C84.1498 48.5377 80.8497 45.2378 76.7248 45.2378H53.0749V42.4878H76.7248C82.3623 42.4878 86.8998 47.0253 86.8998 52.6627V53.3502C86.9 58.9876 82.3625 63.5251 76.7248 63.5251Z" fill="#183651"/>
<path d="M61.3251 29.7001L56.9251 25.1625L61.3251 20.625L63.3875 22.5501L60.775 25.1625L63.3875 27.775L61.3251 29.7001Z" fill="#183651"/>
<path d="M76.7248 26.5375H58.8498V23.7875H76.7248C80.8499 23.7875 84.1498 20.4874 84.1498 16.3626V15.6751C84.1498 11.5501 80.8497 8.2502 76.7248 8.2502H53.0749V5.5H76.7248C82.3623 5.5 86.8998 10.0375 86.8998 15.675V16.3624C86.9 22 82.3625 26.5375 76.7248 26.5375Z" fill="#183651"/>
<path d="M86.625 75.4877H68.4751V86.6252H86.625V75.4877Z" fill="white"/>
<path d="M86.6249 88.0002H68.475C67.65 88.0002 67.1 87.4501 67.1 86.6252V75.4877C67.1 74.6627 67.65 74.1127 68.475 74.1127H86.6249C87.4499 74.1127 87.9999 74.6627 87.9999 75.4877V86.6252C87.9999 87.4501 87.4499 88.0002 86.6249 88.0002ZM69.85 85.2502H85.2501V76.8627H69.85V85.2502Z" fill="#183651"/>
<path d="M19.525 1.375H1.37509V12.5125H19.525V1.375Z" fill="white"/>
<path d="M19.5249 13.8875H1.37501C0.55004 13.8875 0 13.3375 0 12.5125V1.37501C0 0.55004 0.55004 0 1.37501 0H19.5249C20.3499 0 20.9 0.55004 20.9 1.37501V12.5125C20.9 13.1999 20.3499 13.8875 19.5249 13.8875ZM2.75003 11.1375H18.1501V2.75003H2.75003V11.1375Z" fill="#183651"/>
</g>
<defs>
<clipPath id="clip0_42_1649">
<rect width="88" height="88" fill="white"/>
</clipPath>
</defs>
</svg>
